<svg width="180" height="52" viewBox="0 0 180 52" fill="none" xmlns="http://www.w3.org/2000/svg">
<path d="M69.5411 14.6738C70.5613 13.269 71.8257 12.1764 73.3357 11.392C74.8444 10.609 76.4746 10.2168 78.2237 10.2168C80.3672 10.2168 82.1032 10.7847 83.433 11.9219C84.7627 13.0591 85.5125 14.6082 85.6849 16.5717H80.8479C80.6246 15.8319 80.217 15.2679 79.6253 14.8797C79.0336 14.4928 78.3086 14.2986 77.4517 14.2986C76.0971 14.2986 74.9215 14.7682 73.9275 15.706C72.9321 16.6452 72.2973 17.8978 72.023 19.4652C71.9367 19.9479 71.895 20.3689 71.895 20.7309C71.895 21.9363 72.2293 22.8925 72.8981 23.5982C73.5669 24.3052 74.4839 24.658 75.6504 24.658C76.4916 24.658 77.2754 24.4599 78.0042 24.0638C78.7331 23.6677 79.3471 23.0998 79.8447 22.3587H84.6804C83.8235 24.3222 82.5277 25.8673 80.7957 26.9954C79.0636 28.1247 77.1251 28.6874 74.9816 28.6874C73.4376 28.6874 72.0909 28.387 70.9427 27.7837C69.7932 27.1816 68.9102 26.329 68.2923 25.2259C67.6758 24.1242 67.3662 22.8414 67.3662 21.3763C67.3662 20.7231 67.4263 20.0856 67.5465 19.4652C67.8547 17.6735 68.5196 16.0772 69.5411 14.6738Z" fill="#161616"/>
<path d="M97.5187 20.5016C97.5187 19.6582 97.2744 18.9945 96.7859 18.5118C96.2974 18.0305 95.6756 17.7891 94.9206 17.7891C94.0467 17.7891 93.2486 18.1039 92.5275 18.7322C91.8078 19.3605 91.3532 20.2262 91.1651 21.3279C91.1129 21.6388 91.0868 21.9221 91.0868 22.1805C91.0868 23.0252 91.3323 23.6915 91.8209 24.1821C92.3094 24.674 92.922 24.9192 93.6601 24.9192C94.5352 24.9192 95.332 24.6005 96.0531 23.963C96.7728 23.3256 97.2365 22.456 97.4416 21.3542C97.4939 21.0433 97.5187 20.76 97.5187 20.5016ZM88.2065 17.4271C88.9602 16.3083 89.8693 15.4465 90.9326 14.8445C91.9959 14.2411 93.1193 13.9395 94.3027 13.9395C95.3151 13.9395 96.1641 14.1467 96.8499 14.5599C97.5357 14.973 98.0333 15.516 98.3429 16.1876L98.7021 14.1467H103.102L100.554 28.5617H96.1563L96.5416 26.5208C95.993 27.1923 95.2981 27.7353 94.4582 28.1485C93.6169 28.5617 92.6908 28.7676 91.6798 28.7676C90.6674 28.7676 89.7714 28.5354 88.9902 28.0711C88.2104 27.6055 87.6056 26.947 87.1772 26.0945C86.7474 25.2419 86.5332 24.2385 86.5332 23.0842C86.5332 22.5333 86.5855 21.9484 86.6873 21.3279C86.946 19.8471 87.4515 18.5473 88.2065 17.4271Z" fill="#161616"/>
<path d="M106.665 28.2259C105.765 27.8639 105.057 27.3602 104.543 26.7149C104.028 26.0682 103.771 25.3245 103.771 24.4798C103.771 24.3592 103.787 24.144 103.823 23.8345H108.067C108.033 24.3683 108.191 24.7946 108.544 25.1134C108.895 25.4321 109.396 25.5908 110.048 25.5908C110.597 25.5908 111.051 25.4872 111.412 25.2812C111.771 25.074 111.951 24.7815 111.951 24.4024C111.951 24.0404 111.759 23.7519 111.373 23.5368C110.987 23.3216 110.347 23.0593 109.457 22.7485C108.53 22.4389 107.755 22.1333 107.128 21.8316C106.502 21.5313 105.966 21.0958 105.52 20.5278C105.074 19.9586 104.851 19.2437 104.851 18.3833C104.851 17.5399 105.099 16.7765 105.598 16.0971C106.094 15.4164 106.793 14.8865 107.694 14.5074C108.594 14.1296 109.637 13.9395 110.82 13.9395C112.004 13.9395 113.033 14.1336 113.907 14.5205C114.782 14.9088 115.459 15.4465 115.939 16.1351C116.42 16.8251 116.66 17.6003 116.66 18.4607L116.634 18.8476H112.646C112.68 18.3308 112.526 17.9177 112.184 17.6081C111.84 17.2986 111.352 17.1425 110.717 17.1425C110.219 17.1425 109.812 17.2461 109.494 17.4534C109.177 17.6593 109.019 17.9439 109.019 18.3059C109.019 18.685 109.229 18.9998 109.65 19.249C110.069 19.4982 110.725 19.7776 111.617 20.0884C112.543 20.398 113.311 20.7036 113.92 21.0053C114.529 21.307 115.053 21.728 115.49 22.271C115.926 22.814 116.146 23.4895 116.146 24.2988C116.146 25.2288 115.866 26.0302 115.31 26.7018C114.752 27.3733 113.988 27.8862 113.02 28.239C112.051 28.5918 110.948 28.7676 109.714 28.7676C108.581 28.7676 107.565 28.5879 106.665 28.2259Z" fill="#161616"/>
<path d="M132.804 15.2022C133.617 16.0127 134.025 17.1395 134.025 18.5862C134.025 19.0689 133.974 19.5857 133.871 20.1366L132.379 28.5586H128.005L129.394 20.7307C129.445 20.4382 129.471 20.1798 129.471 19.9556C129.471 19.2328 129.27 18.6728 128.867 18.2766C128.463 17.8805 127.901 17.6825 127.182 17.6825C126.323 17.6825 125.604 17.95 125.021 18.4839C124.437 19.0177 124.06 19.7667 123.889 20.7307V20.6796L122.5 28.5586H118.101L121.471 9.44141H125.87L124.711 16.0547C125.278 15.4186 125.972 14.9136 126.796 14.5437C127.619 14.1738 128.51 13.9889 129.471 13.9889C130.877 13.9889 131.989 14.3929 132.804 15.2022Z" fill="#161616"/>
<path d="M145.653 24.3231L142.336 20.4222C141.598 20.7659 141.023 21.1935 140.611 21.7011C140.2 22.2087 139.993 22.7648 139.993 23.3669C139.993 23.9348 140.213 24.3965 140.651 24.7494C141.087 25.1022 141.692 25.2793 142.464 25.2793C143.613 25.2793 144.676 24.9605 145.653 24.3231ZM150.799 24.2968L154.401 28.5597H149.281L147.892 26.9319C146.023 28.2069 143.921 28.8443 141.59 28.8443C139.702 28.8443 138.214 28.4259 137.125 27.5904C136.036 26.7549 135.492 25.6229 135.492 24.1932C135.492 22.833 135.934 21.6198 136.817 20.5508C137.7 19.4831 138.879 18.6305 140.354 17.9931C139.822 17.1667 139.557 16.3574 139.557 15.5652C139.557 14.5146 139.83 13.5807 140.38 12.7622C140.929 11.9438 141.692 11.3116 142.67 10.863C143.647 10.4157 144.753 10.1914 145.988 10.1914C147.532 10.1914 148.719 10.5456 149.551 11.2512C150.383 11.9569 150.799 12.8527 150.799 13.9375C150.799 14.1618 150.774 14.4201 150.722 14.7126H146.606C146.623 14.6444 146.632 14.5408 146.632 14.4031C146.632 14.0752 146.519 13.8207 146.297 13.641C146.074 13.46 145.791 13.3695 145.448 13.3695C144.985 13.3695 144.59 13.5204 144.265 13.8207C143.938 14.1224 143.776 14.5054 143.776 14.971C143.776 15.5744 144.119 16.3063 144.804 17.1667L148.433 21.4807L148.896 20.758L150.13 19.1303H154.555L152.934 21.3771C152.179 22.5655 151.469 23.5387 150.799 24.2968Z" fill="#161616"/>
<path d="M163.819 10.4258L160.627 28.5606H156.228L159.419 10.4258H163.819Z" fill="#161616"/>
<path d="M179.999 10.4258L179.408 13.9121H174.597L172.023 28.5606H167.624L170.197 13.9121H165.413L166.029 10.4258H179.999Z" fill="#161616"/>
<path d="M73.4565 34.877V41.9126H72.5343V36.666L70.2066 41.9126H69.5587L67.2192 36.6569V41.9126H66.2983V34.877H67.2898L69.8827 40.6928L72.4742 34.877H73.4565Z" fill="#161616"/>
<path d="M78.3662 40.9562C78.6562 40.8001 78.8914 40.5666 79.0703 40.2558C79.2493 39.9436 79.3381 39.5632 79.3381 39.1159C79.3381 38.6687 79.2506 38.2896 79.0755 37.9774C78.8992 37.6666 78.6706 37.4344 78.3871 37.281C78.1037 37.1288 77.7954 37.0527 77.4649 37.0527C77.1279 37.0527 76.8184 37.1288 76.5388 37.281C76.258 37.4344 76.0346 37.6666 75.8661 37.9774C75.6963 38.2896 75.6127 38.6687 75.6127 39.1159C75.6127 39.5711 75.695 39.9541 75.8609 40.2649C76.0255 40.5771 76.2462 40.8093 76.5231 40.9614C76.8001 41.1136 77.1044 41.191 77.4349 41.191C77.7654 41.191 78.0763 41.1123 78.3662 40.9562ZM76.0229 41.6474C75.6009 41.4113 75.2692 41.0729 75.0301 40.6361C74.7911 40.1994 74.6709 39.6931 74.6709 39.1159C74.6709 38.5467 74.7937 38.0443 75.0406 37.6062C75.2861 37.1695 75.6218 36.8337 76.0477 36.6002C76.4735 36.3667 76.949 36.25 77.4754 36.25C78.0018 36.25 78.4773 36.3667 78.9031 36.6002C79.3276 36.8337 79.6633 37.1682 79.9102 37.601C80.1571 38.0352 80.2799 38.5401 80.2799 39.1159C80.2799 39.6931 80.1532 40.1994 79.8998 40.6361C79.6477 41.0729 79.3041 41.4113 78.8731 41.6474C78.4407 41.8848 77.9613 42.0042 77.4349 42.0042C76.915 42.0042 76.4448 41.8848 76.0229 41.6474Z" fill="#161616"/>
<path d="M85.8379 36.8554C86.2572 37.2646 86.4662 37.8562 86.4662 38.6287V41.9131H85.5544V38.7612C85.5544 38.2051 85.416 37.7801 85.139 37.485C84.8634 37.1912 84.4846 37.043 84.0052 37.043C83.5193 37.043 83.1327 37.1951 82.8466 37.5007C82.5592 37.8063 82.4155 38.2497 82.4155 38.832V41.9131H81.4946V36.3412H82.4155V37.1348C82.5984 36.8501 82.8466 36.6298 83.1601 36.4737C83.4736 36.3176 83.8197 36.2402 84.1985 36.2402C84.8726 36.2402 85.4199 36.4449 85.8379 36.8554Z" fill="#161616"/>
<path d="M91.8539 37.8095C91.6985 37.5564 91.4869 37.3623 91.2204 37.2311C90.9539 37.0986 90.6587 37.0317 90.3348 37.0317C89.8685 37.0317 89.4727 37.1813 89.1448 37.479C88.8169 37.7781 88.6301 38.1912 88.5831 38.7198H92.0864C92.0864 38.367 92.0081 38.064 91.8539 37.8095ZM93.0073 39.4727H88.5727C88.6066 40.021 88.7934 40.4499 89.1343 40.7581C89.4753 41.0664 89.8894 41.2211 90.3753 41.2211C90.7737 41.2211 91.1055 41.128 91.3719 40.9418C91.6384 40.7555 91.8265 40.5063 91.9349 40.1941H92.9264C92.7775 40.7293 92.4809 41.1647 92.0355 41.5005C91.5901 41.8363 91.0362 42.0042 90.3753 42.0042C89.8489 42.0042 89.3773 41.8848 88.9632 41.6474C88.5478 41.4113 88.2213 41.0729 87.9862 40.6361C87.7497 40.1994 87.6309 39.6931 87.6309 39.1159C87.6309 38.5401 87.7458 38.0352 87.9757 37.601C88.2043 37.1682 88.5269 36.8337 88.9423 36.6002C89.3577 36.3667 89.8345 36.25 90.3753 36.25C90.9017 36.25 91.368 36.3641 91.773 36.595C92.1779 36.8258 92.4901 37.1419 92.7095 37.5459C92.9277 37.9486 93.0374 38.405 93.0374 38.9126C93.0374 39.0897 93.0282 39.276 93.0073 39.4727Z" fill="#161616"/>
<path d="M99.0318 36.3398L95.6904 44.535H94.7395L95.8328 41.8501L93.5952 36.3398H94.618L96.3592 40.8545L98.0808 36.3398H99.0318Z" fill="#161616"/>
<path d="M106.757 38.016C106.588 37.7052 106.361 37.4665 106.073 37.2999C105.786 37.1333 105.471 37.0507 105.126 37.0507C104.783 37.0507 104.468 37.132 104.185 37.2946C103.901 37.4573 103.675 37.6947 103.507 38.0069C103.338 38.3177 103.253 38.6837 103.253 39.1047C103.253 39.531 103.338 39.9022 103.507 40.217C103.675 40.5331 103.901 40.7731 104.185 40.9397C104.468 41.105 104.783 41.1889 105.126 41.1889C105.471 41.1889 105.786 41.105 106.073 40.9397C106.361 40.7731 106.588 40.5331 106.757 40.217C106.925 39.9022 107.01 39.5349 107.01 39.1139C107.01 38.6942 106.925 38.3282 106.757 38.016ZM102.656 37.6042C102.886 37.174 103.201 36.8408 103.603 36.6034C104.004 36.366 104.455 36.2479 104.954 36.2479C105.386 36.2479 105.789 36.3476 106.16 36.547C106.531 36.7477 106.814 37.01 107.01 37.3353V34.3867H107.941V41.9103H107.01V40.8623C106.827 41.1955 106.558 41.4683 106.2 41.6821C105.842 41.8946 105.424 42.0021 104.945 42.0021C104.451 42.0021 104.004 41.8801 103.603 41.6362C103.201 41.3922 102.886 41.0499 102.656 40.6092C102.426 40.1684 102.312 39.6674 102.312 39.1047C102.312 38.5355 102.426 38.0344 102.656 37.6042Z" fill="#161616"/>
<path d="M113.378 37.8095C113.223 37.5564 113.012 37.3623 112.745 37.2311C112.479 37.0986 112.184 37.0317 111.86 37.0317C111.393 37.0317 110.998 37.1813 110.67 37.479C110.342 37.7781 110.155 38.1912 110.108 38.7198H113.611C113.611 38.367 113.533 38.064 113.378 37.8095ZM114.532 39.4727H110.098C110.132 40.021 110.318 40.4499 110.659 40.7581C111 41.0664 111.414 41.2211 111.9 41.2211C112.299 41.2211 112.63 41.128 112.897 40.9418C113.163 40.7555 113.351 40.5063 113.459 40.1941H114.451C114.302 40.7293 114.006 41.1647 113.56 41.5005C113.115 41.8363 112.561 42.0042 111.9 42.0042C111.374 42.0042 110.902 41.8848 110.487 41.6474C110.073 41.4113 109.746 41.0729 109.51 40.6361C109.273 40.1994 109.156 39.6931 109.156 39.1159C109.156 38.5401 109.271 38.0352 109.501 37.601C109.729 37.1682 110.052 36.8337 110.467 36.6002C110.883 36.3667 111.359 36.25 111.9 36.25C112.427 36.25 112.892 36.3641 113.297 36.595C113.701 36.8258 114.014 37.1419 114.233 37.5459C114.453 37.9486 114.562 38.405 114.562 38.9126C114.562 39.0897 114.553 39.276 114.532 39.4727Z" fill="#161616"/>
<path d="M116.699 41.9103H115.777V34.3867H116.699V41.9103Z" fill="#161616"/>
<path d="M119.189 41.9132H118.268V36.3413H119.189V41.9132ZM118.298 35.254C118.177 35.132 118.117 34.9824 118.117 34.8067C118.117 34.6309 118.177 34.4814 118.298 34.3594C118.42 34.2374 118.569 34.1758 118.744 34.1758C118.912 34.1758 119.056 34.2374 119.175 34.3594C119.292 34.4814 119.351 34.6309 119.351 34.8067C119.351 34.9824 119.292 35.132 119.175 35.254C119.056 35.3759 118.912 35.4363 118.744 35.4363C118.569 35.4363 118.42 35.3759 118.298 35.254Z" fill="#161616"/>
<path d="M122.825 41.0578L124.546 36.3398H125.529L123.351 41.9117H122.279L120.101 36.3398H121.093L122.825 41.0578Z" fill="#161616"/>
<path d="M130.316 37.8095C130.161 37.5564 129.949 37.3623 129.683 37.2311C129.416 37.0986 129.121 37.0317 128.797 37.0317C128.332 37.0317 127.935 37.1813 127.607 37.479C127.281 37.7781 127.093 38.1912 127.046 38.7198H130.549C130.549 38.367 130.472 38.064 130.316 37.8095ZM131.47 39.4727H127.035C127.069 40.021 127.257 40.4499 127.598 40.7581C127.938 41.0664 128.352 41.2211 128.838 41.2211C129.236 41.2211 129.568 41.128 129.836 40.9418C130.102 40.7555 130.289 40.5063 130.397 40.1941H131.389C131.241 40.7293 130.943 41.1647 130.498 41.5005C130.053 41.8363 129.499 42.0042 128.838 42.0042C128.311 42.0042 127.841 41.8848 127.426 41.6474C127.01 41.4113 126.685 41.0729 126.449 40.6361C126.212 40.1994 126.095 39.6931 126.095 39.1159C126.095 38.5401 126.208 38.0352 126.438 37.601C126.668 37.1682 126.989 36.8337 127.405 36.6002C127.82 36.3667 128.298 36.25 128.838 36.25C129.364 36.25 129.831 36.3641 130.236 36.595C130.64 36.8258 130.953 37.1419 131.172 37.5459C131.392 37.9486 131.501 38.405 131.501 38.9126C131.501 39.0897 131.491 39.276 131.47 39.4727Z" fill="#161616"/>
<path d="M134.331 36.5039C134.632 36.3281 134.997 36.2402 135.43 36.2402V37.1951H135.187C134.154 37.1951 133.638 37.7578 133.638 38.8832V41.9131H132.717V36.3412H133.638V37.2463C133.8 36.9275 134.031 36.6809 134.331 36.5039Z" fill="#161616"/>
<path d="M141.271 36.3398L137.931 44.535H136.979L138.072 41.8501L135.834 36.3398H136.857L138.598 40.8545L140.32 36.3398H141.271Z" fill="#161616"/>
<path d="M145.716 41.7851C145.379 41.6396 145.113 41.4362 144.917 41.1752C144.721 40.9142 144.612 40.6138 144.593 40.2754H145.544C145.571 40.5535 145.7 40.7804 145.934 40.9562C146.167 41.1333 146.472 41.2211 146.85 41.2211C147.201 41.2211 147.478 41.1437 147.681 40.9877C147.883 40.8316 147.984 40.6348 147.984 40.3974C147.984 40.1535 147.877 39.9724 147.66 39.8531C147.444 39.735 147.11 39.6183 146.658 39.5029C146.246 39.394 145.911 39.2838 145.651 39.1723C145.391 39.0609 145.168 38.8943 144.982 38.6739C144.797 38.4536 144.704 38.1637 144.704 37.8056C144.704 37.5197 144.789 37.26 144.957 37.0226C145.126 36.7852 145.365 36.5963 145.676 36.4572C145.987 36.3182 146.341 36.25 146.739 36.25C147.353 36.25 147.849 36.4061 148.227 36.7169C148.606 37.0291 148.808 37.4554 148.834 37.9984H147.913C147.894 37.7072 147.777 37.4725 147.564 37.2967C147.352 37.1209 147.067 37.0317 146.709 37.0317C146.377 37.0317 146.115 37.1039 145.919 37.2455C145.723 37.3885 145.625 37.5748 145.625 37.8056C145.625 37.9879 145.685 38.1388 145.802 38.2568C145.92 38.3762 146.069 38.4706 146.248 38.5414C146.427 38.6136 146.675 38.6936 146.992 38.7802C147.391 38.889 147.715 38.9966 147.964 39.1015C148.214 39.2064 148.428 39.3638 148.607 39.5737C148.786 39.7836 148.879 40.059 148.885 40.3974C148.885 40.703 148.801 40.9772 148.632 41.2211C148.463 41.4651 148.225 41.6566 147.918 41.7956C147.612 41.9347 147.259 42.0042 146.86 42.0042C146.435 42.0042 146.053 41.9307 145.716 41.7851Z" fill="#161616"/>
<path d="M154.06 37.8095C153.905 37.5564 153.693 37.3623 153.427 37.2311C153.16 37.0986 152.865 37.0317 152.541 37.0317C152.076 37.0317 151.679 37.1813 151.351 37.479C151.024 37.7781 150.836 38.1912 150.789 38.7198H154.293C154.293 38.367 154.216 38.064 154.06 37.8095ZM155.215 39.4727H150.78C150.813 40.021 151.001 40.4499 151.342 40.7581C151.683 41.0664 152.096 41.2211 152.581 41.2211C152.98 41.2211 153.313 41.128 153.579 40.9418C153.846 40.7555 154.033 40.5063 154.141 40.1941H155.134C154.985 40.7293 154.688 41.1647 154.242 41.5005C153.796 41.8363 153.244 42.0042 152.581 42.0042C152.055 42.0042 151.585 41.8848 151.169 41.6474C150.754 41.4113 150.429 41.0729 150.192 40.6361C149.956 40.1994 149.838 39.6931 149.838 39.1159C149.838 38.5401 149.952 38.0352 150.182 37.601C150.412 37.1682 150.734 36.8337 151.149 36.6002C151.564 36.3667 152.042 36.25 152.581 36.25C153.108 36.25 153.574 36.3641 153.979 36.595C154.384 36.8258 154.696 37.1419 154.916 37.5459C155.135 37.9486 155.245 38.405 155.245 38.9126C155.245 39.0897 155.234 39.276 155.215 39.4727Z" fill="#161616"/>
<path d="M158.073 36.5039C158.374 36.3281 158.74 36.2402 159.172 36.2402V37.1951H158.929C157.897 37.1951 157.38 37.7578 157.38 38.8832V41.9131H156.459V36.3412H157.38V37.2463C157.542 36.9275 157.773 36.6809 158.073 36.5039Z" fill="#161616"/>
<path d="M162.301 41.0578L164.022 36.3398H165.005L162.827 41.9117H161.755L159.577 36.3398H160.57L162.301 41.0578Z" fill="#161616"/>
<path d="M166.837 41.9132H165.915V36.3413H166.837V41.9132ZM165.946 35.254C165.825 35.132 165.763 34.9824 165.763 34.8067C165.763 34.6309 165.825 34.4814 165.946 34.3594C166.068 34.2374 166.215 34.1758 166.391 34.1758C166.56 34.1758 166.704 34.2374 166.821 34.3594C166.939 34.4814 166.999 34.6309 166.999 34.8067C166.999 34.9824 166.939 35.132 166.821 35.254C166.704 35.3759 166.56 35.4363 166.391 35.4363C166.215 35.4363 166.068 35.3759 165.946 35.254Z" fill="#161616"/>
<path d="M168.406 37.6062C168.636 37.176 168.955 36.8429 169.364 36.6055C169.771 36.368 170.239 36.25 170.765 36.25C171.447 36.25 172.009 36.4153 172.451 36.7471C172.893 37.0803 173.186 37.5407 173.327 38.1309H172.335C172.24 37.7912 172.056 37.5236 171.783 37.3269C171.51 37.1301 171.17 37.0317 170.765 37.0317C170.239 37.0317 169.813 37.2141 169.489 37.5761C169.165 37.9394 169.003 38.4523 169.003 39.1159C169.003 39.7875 169.165 40.3056 169.489 40.6716C169.813 41.0375 170.239 41.2211 170.765 41.2211C171.17 41.2211 171.507 41.1267 171.777 40.9365C172.048 40.7463 172.233 40.4761 172.335 40.1233H173.327C173.178 40.6925 172.881 41.1477 172.436 41.49C171.99 41.8324 171.434 42.0042 170.765 42.0042C170.239 42.0042 169.771 41.8848 169.364 41.6474C168.955 41.4113 168.636 41.0755 168.406 40.6414C168.176 40.2072 168.062 39.6996 168.062 39.1159C168.062 38.5401 168.176 38.0378 168.406 37.6062Z" fill="#161616"/>
<path d="M178.43 37.8095C178.274 37.5564 178.063 37.3623 177.796 37.2311C177.53 37.0986 177.235 37.0317 176.911 37.0317C176.446 37.0317 176.048 37.1813 175.721 37.479C175.394 37.7781 175.206 38.1912 175.159 38.7198H178.662C178.662 38.367 178.585 38.064 178.43 37.8095ZM179.583 39.4727H175.148C175.182 40.021 175.369 40.4499 175.71 40.7581C176.051 41.0664 176.465 41.2211 176.951 41.2211C177.35 41.2211 177.681 41.128 177.949 40.9418C178.216 40.7555 178.402 40.5063 178.511 40.1941H179.502C179.355 40.7293 179.057 41.1647 178.611 41.5005C178.166 41.8363 177.612 42.0042 176.951 42.0042C176.425 42.0042 175.954 41.8848 175.539 41.6474C175.124 41.4113 174.797 41.0729 174.562 40.6361C174.326 40.1994 174.208 39.6931 174.208 39.1159C174.208 38.5401 174.322 38.0352 174.552 37.601C174.781 37.1682 175.103 36.8337 175.518 36.6002C175.934 36.3667 176.412 36.25 176.951 36.25C177.478 36.25 177.944 36.3641 178.349 36.595C178.754 36.8258 179.066 37.1419 179.285 37.5459C179.505 37.9486 179.615 38.405 179.615 38.9126C179.615 39.0897 179.604 39.276 179.583 39.4727Z" fill="#161616"/>
<path d="M28.3467 25.4054C23.6221 27.2929 18.6505 26.9217 18.6505 26.9217L21.0749 23.0025L12.0213 22.992C12.0213 22.992 11.6151 22.9605 11.4518 22.6103C11.2872 22.2601 11.555 21.7538 11.555 21.7538C11.555 21.7538 13.2688 17.4122 16.1451 14.8139C19.0215 12.2155 21.0958 12.2352 22.9859 12.2352C24.8747 12.2352 28.0789 12.2155 28.0789 12.2155L30.7084 8.1717L32.2811 8.89966C32.2811 8.89966 36.6348 10.6783 36.64 15.5195C36.6453 20.3621 33.0701 23.5179 28.3467 25.4054ZM37.1168 10.5235C35.6564 8.16908 33.1119 7.01745 31.7861 6.3472C31.5849 6.2344 31.3837 6.12291 31.1865 6.01404C32.5371 4.42302 33.6736 3.56389 34.1242 3.24778C31.1695 1.83252 28.6184 1.04291 27.081 0.711062C26.6969 0.628428 26.3064 0.583832 25.9171 0.523497C21.8586 -0.0969114 8.71785 0.219195 8.71785 0.219195C8.33643 0.219195 7.99027 0.376592 7.73947 0.628428C7.48737 0.880264 7.33193 1.22916 7.33193 1.61216C7.33193 2.37816 7.955 3.00513 8.71785 3.00513H15.6213C16.3842 3.00513 17.0086 3.63078 17.0086 4.39678C17.0086 4.77978 16.8531 5.12737 16.601 5.38052C16.3502 5.63235 16.0028 5.78844 15.6213 5.78844H10.1586C9.7759 5.78844 9.42975 5.94584 9.17765 6.19767C8.92685 6.45082 8.7714 6.79709 8.7714 7.18141C8.7714 7.94609 9.39448 8.57306 10.1586 8.57306H13.6502C14.4118 8.57306 15.0361 9.20003 15.0361 9.96472C15.0361 10.3477 14.8807 10.6966 14.6286 10.9485C14.3778 11.2003 14.0316 11.3577 13.6502 11.3577H1.38592C1.0045 11.3577 0.658345 11.5138 0.407547 11.7656C0.155443 12.0188 0 12.3663 0 12.7493C0 13.5153 0.624383 14.1423 1.38592 14.1423H10.0123C10.7752 14.1423 11.3983 14.768 11.3983 15.534C11.3983 15.917 11.2428 16.2659 10.992 16.5177C10.7399 16.7695 10.3924 16.9269 10.0123 16.9269H6.50638C6.12496 16.9269 5.77881 17.083 5.52801 17.3362C5.27591 17.588 5.12046 17.9369 5.12046 18.3186C5.12046 19.0846 5.74485 19.7102 6.50638 19.7102H6.60566C7.3672 19.7115 7.99027 20.3372 7.99027 21.1032C7.99027 21.4849 7.83483 21.8338 7.58403 22.0856C7.33193 22.3388 6.98577 22.4949 6.60435 22.4949H1.38592C1.0045 22.4949 0.658345 22.6509 0.407547 22.9041C0.155443 23.1559 0 23.5048 0 23.8865C0 24.6538 0.624383 25.2795 1.38592 25.2795H4.42685C4.42685 25.3333 6.01654 26.5885 9.69492 27.609C14.656 28.9849 16.5553 28.8458 16.5553 28.8458C16.5553 28.8458 22.5744 29.6027 28.3258 27.5814C34.0772 25.5602 36.7628 22.3637 37.9593 19.3312C39.327 15.8711 38.5197 12.7834 37.1168 10.5235Z" fill="#ED0000"/>
<path d="M2.92981 19.711C3.30993 19.711 3.65739 19.555 3.90819 19.3031C4.16029 19.05 4.31573 18.7011 4.31573 18.3194C4.31573 17.5534 3.69135 16.9277 2.92981 16.9277H2.28192C1.9018 16.9277 1.55434 17.0838 1.30224 17.337C1.05144 17.5888 0.895996 17.9364 0.895996 18.3194C0.895996 19.0854 1.51907 19.711 2.28192 19.711H2.92981Z" fill="#ED0000"/>
<path d="M5.16652 8.57173H6.57335C6.95477 8.57173 7.30092 8.41565 7.55303 8.1625C7.80382 7.91066 7.96057 7.56308 7.96057 7.18008C7.96057 6.41408 7.33619 5.78711 6.57335 5.78711H5.16652C4.7851 5.78711 4.43895 5.94451 4.18684 6.19634C3.93605 6.44949 3.7793 6.79576 3.7793 7.18008C3.7793 7.94477 4.40368 8.57173 5.16652 8.57173Z" fill="#ED0000"/>
<path d="M35.0437 17.3306C33.7283 22.5287 27.1344 25.0339 21.835 25.4051L23.3685 22.9838C23.3685 22.9838 25.8843 22.9891 25.8857 22.9877C26.2488 22.9694 26.5349 22.6677 26.5349 22.2991C26.5349 21.9332 26.2501 21.6315 25.8883 21.6118C25.887 21.6105 13.0767 21.6158 13.0767 21.6158C13.0767 21.6158 16.3919 14.0095 21.4444 13.5977H31.5704C31.9623 13.5977 32.2797 13.279 32.2797 12.8855C32.2797 12.492 31.9623 12.1745 31.5704 12.1745H30.3595L31.7259 10.1113C31.7259 10.1113 36.3578 12.1326 35.0437 17.3306Z" fill="#161616"/>
<path d="M50.6331 8.21356C49.5607 8.21356 48.692 7.34132 48.692 6.26577C48.692 5.1876 49.5607 4.31535 50.6331 4.31535C51.7042 4.31535 52.5742 5.1876 52.5742 6.26577C52.5742 7.34132 51.7042 8.21356 50.6331 8.21356ZM63.5831 7.30591C62.721 6.35759 61.889 6.2133 60.2561 5.82112C58.622 5.42894 58.5006 5.23351 58.5006 5.23351C58.5006 5.23351 55.4492 0.190231 48.0859 0.00528938C39.7665 -0.204574 34.7061 5.89851 34.4135 6.20806C34.4135 6.20806 37.2088 7.52364 38.873 10.926C41.4607 16.2172 38.7189 20.6716 39.0585 20.1771C39.3968 19.6813 40.6364 17.6981 42.0158 15.5981C43.228 13.7513 44.7276 12.9368 45.9593 12.6587C47.1924 12.3807 49.3177 12.6745 50.027 13.1847C48.7325 14.7862 47.7463 17.9486 47.7463 17.9486C47.7463 17.9486 43.4174 31.0362 42.8792 32.058C42.5161 32.7426 41.3379 35.5535 37.7797 38.3998C34.2215 41.246 30.1839 41.8651 27.4107 41.8953C24.6389 41.9268 22.528 41.2618 20.3858 40.3187C21.0337 40.2256 23.0975 39.8531 25.872 38.0587C28.6438 36.2657 30.3694 33.6503 30.3694 33.6503L36.7569 23.7382C36.655 23.8864 33.3254 28.5991 23.4476 30.0157C20.5569 30.4302 17.4284 30.2426 17.4284 30.2426C17.4284 30.2426 16.4527 30.8303 14.6448 30.8919C12.8383 30.9536 12.0572 30.3659 10.9573 29.8098C9.86008 29.2523 9.27488 30.3607 9.43816 30.8526C11.4511 36.8901 16.7205 42.3294 23.8982 43.5663C31.0787 44.8045 36.5009 42.3294 40.4131 38.771C44.3265 35.2125 45.5283 30.7883 45.5283 30.7883C45.5283 30.7883 48.24 22.6823 50.0884 17.3925C51.9367 12.1013 56.0043 10.4106 57.5144 9.96723C59.0231 9.5239 60.5853 9.5134 61.9712 9.65768C63.3585 9.80196 63.3363 9.81246 63.7072 9.56587C64.0769 9.31797 64.4466 8.25554 63.5831 7.30591Z" fill="#161616"/>
<path d="M13.773 40.6465C14.1217 40.9455 16.9262 43.338 20.5615 44.6588C24.1981 45.9783 27.2168 45.9573 27.2168 45.9573C27.2168 45.9573 28.2644 47.7517 26.868 49.7113C25.4717 51.6709 23.3137 51.8571 22.0611 51.6499C20.8084 51.4439 19.3702 50.5573 18.3644 49.546C17.3573 48.536 14.9538 45.8131 14.4195 45.2149C13.8866 44.6168 13.1081 43.5452 13.1055 42.307C13.1042 41.3325 13.773 40.6465 13.773 40.6465Z" fill="#161616"/>
<path d="M37.5103 43.3259C38.2679 42.9062 41.4316 41.3388 44.082 37.657C46.731 33.9752 47.4181 31.5684 47.4181 31.5684C47.4181 31.5684 50.0332 32.2714 50.382 35.0888C50.6745 37.4616 49.6269 38.7404 48.7335 39.7294C47.84 40.7197 44.8513 42.514 44.2661 42.7934C43.6809 43.0715 42.0481 44.1536 41.3388 44.4631C40.6309 44.7727 38.55 45.2829 37.5103 43.3259Z" fill="#161616"/>
</svg>
