<svg width="180" height="53" viewBox="0 0 180 53" fill="none" xmlns="http://www.w3.org/2000/svg">
<rect x="0.5" y="0.5" width="179" height="52" rx="4.5" fill="black"/>
<rect x="0.5" y="0.5" width="179" height="52" rx="4.5" stroke="#A6A6A6"/>
<path d="M142.58 39.7495H145.068V23.1848H142.58V39.7495ZM164.989 29.1521L162.137 36.3335H162.052L159.092 29.1521H156.412L160.852 39.189L158.32 44.7726H160.914L167.756 29.1521H164.989ZM150.878 37.8681C150.065 37.8681 148.928 37.4628 148.928 36.4613C148.928 35.1829 150.344 34.6927 151.565 34.6927C152.658 34.6927 153.174 34.9267 153.838 35.2466C153.645 36.7812 152.316 37.8681 150.878 37.8681ZM151.18 28.7897C149.378 28.7897 147.513 29.5785 146.741 31.3259L148.949 32.242C149.421 31.3259 150.3 31.0278 151.222 31.0278C152.509 31.0278 153.817 31.7943 153.838 33.1586V33.3289C153.388 33.0732 152.422 32.6897 151.244 32.6897C148.862 32.6897 146.44 33.9893 146.44 36.4188C146.44 38.6351 148.392 40.0631 150.578 40.0631C152.25 40.0631 153.174 39.3172 153.752 38.4431H153.838V39.7226H156.241V33.3713C156.241 30.4305 154.03 28.7897 151.18 28.7897ZM135.804 31.1685H132.265V25.4907H135.804C137.664 25.4907 138.72 27.0207 138.72 28.3296C138.72 29.6132 137.664 31.1685 135.804 31.1685ZM135.74 23.1848H129.778V39.7495H132.265V33.4739H135.74C138.497 33.4739 141.208 31.4905 141.208 28.3296C141.208 25.1693 138.497 23.1848 135.74 23.1848ZM103.231 37.8711C101.512 37.8711 100.074 36.4405 100.074 34.4774C100.074 32.4915 101.512 31.0406 103.231 31.0406C104.928 31.0406 106.26 32.4915 106.26 34.4774C106.26 36.4405 104.928 37.8711 103.231 37.8711ZM106.088 30.0796H106.002C105.444 29.418 104.369 28.8203 103.017 28.8203C100.181 28.8203 97.5817 31.2969 97.5817 34.4774C97.5817 37.6362 100.181 40.0911 103.017 40.0911C104.369 40.0911 105.444 39.4932 106.002 38.8106H106.088V39.6211C106.088 41.7779 104.928 42.93 103.059 42.93C101.535 42.93 100.59 41.8415 100.202 40.9239L98.0333 41.8203C98.6557 43.314 100.309 45.1504 103.059 45.1504C105.981 45.1504 108.451 43.4424 108.451 39.2795V29.1619H106.088V30.0796ZM110.17 39.7495H112.661V23.1848H110.17V39.7495ZM116.334 34.2849C116.27 32.1074 118.032 30.9977 119.299 30.9977C120.287 30.9977 121.124 31.4889 121.405 32.1929L116.334 34.2849ZM124.067 32.406C123.595 31.1473 122.156 28.8203 119.213 28.8203C116.291 28.8203 113.864 31.1044 113.864 34.4557C113.864 37.615 116.27 40.0911 119.492 40.0911C122.09 40.0911 123.595 38.5119 124.218 37.5937L122.285 36.3127C121.64 37.2521 120.76 37.8711 119.492 37.8711C118.225 37.8711 117.322 37.2946 116.743 36.1632L124.325 33.0468L124.067 32.406ZM63.6567 30.5495V32.9402H69.4134C69.2415 34.2849 68.7905 35.2667 68.103 35.9499C67.265 36.7821 65.9546 37.7004 63.6567 37.7004C60.1123 37.7004 57.3415 34.8614 57.3415 31.3393C57.3415 27.8172 60.1123 24.9778 63.6567 24.9778C65.5686 24.9778 66.9645 25.7251 67.9957 26.6858L69.6931 24.999C68.2535 23.6331 66.3421 22.5871 63.6567 22.5871C58.8014 22.5871 54.7202 26.515 54.7202 31.3393C54.7202 36.1632 58.8014 40.0911 63.6567 40.0911C66.277 40.0911 68.2536 39.2371 69.8 37.6362C71.3895 36.0566 71.8838 33.8367 71.8838 32.0433C71.8838 31.4889 71.8405 30.9765 71.7546 30.5495H63.6567ZM78.4286 37.8711C76.7098 37.8711 75.2275 36.4623 75.2275 34.4557C75.2275 32.4278 76.7098 31.0406 78.4286 31.0406C80.1467 31.0406 81.629 32.4278 81.629 34.4557C81.629 36.4623 80.1467 37.8711 78.4286 37.8711ZM78.4286 28.8203C75.2915 28.8203 72.7358 31.1897 72.7358 34.4557C72.7358 37.7004 75.2915 40.0911 78.4286 40.0911C81.5645 40.0911 84.1208 37.7004 84.1208 34.4557C84.1208 31.1897 81.5645 28.8203 78.4286 28.8203ZM90.8457 37.8711C89.1281 37.8711 87.6453 36.4623 87.6453 34.4557C87.6453 32.4278 89.1281 31.0406 90.8457 31.0406C92.5645 31.0406 94.0462 32.4278 94.0462 34.4557C94.0462 36.4623 92.5645 37.8711 90.8457 37.8711ZM90.8457 28.8203C87.7098 28.8203 85.1541 31.1897 85.1541 34.4557C85.1541 37.7004 87.7098 40.0911 90.8457 40.0911C93.9827 40.0911 96.5385 37.7004 96.5385 34.4557C96.5385 31.1897 93.9827 28.8203 90.8457 28.8203Z" fill="white"/>
<path d="M59.3031 17.5351C58.1077 17.5351 57.0795 17.1172 56.2505 16.2935C55.421 15.4692 55.001 14.4372 55.001 13.2372C55.001 12.0371 55.4213 11.0069 56.2505 10.1809C57.0795 9.35706 58.1077 8.93921 59.3031 8.93921C59.9121 8.93921 60.4805 9.04374 61.0236 9.2614C61.567 9.47909 62.0116 9.78128 62.3617 10.1767L62.4442 10.2702L61.5117 11.1966L61.4184 11.0828C61.1863 10.7993 60.891 10.5791 60.5169 10.419C60.1441 10.2593 59.7358 10.1855 59.3031 10.1855C58.4611 10.1855 57.7625 10.4697 57.1791 11.0473C57.179 11.0474 57.1787 11.0474 57.1786 11.0476C56.6084 11.6369 56.3218 12.3543 56.3218 13.2372C56.3218 14.1207 56.6088 14.8383 57.1796 15.4278C57.763 16.0052 58.4615 16.2909 59.303 16.2909C60.0738 16.2909 60.7112 16.0771 61.2124 15.6538H61.2127C61.6792 15.2598 61.9592 14.7274 62.0583 14.0487H59.1697V12.8273H63.3067L63.3244 12.9391C63.3583 13.1538 63.3822 13.3611 63.3822 13.5602C63.3822 14.6999 63.0326 15.6302 62.3465 16.3147C61.5721 17.1305 60.5537 17.5352 59.3031 17.5352L59.3031 17.5351ZM95.2255 17.5351C94.0282 17.5351 93.012 17.117 92.1937 16.2935C92.1936 16.2934 92.1935 16.2933 92.1934 16.2932C92.1933 16.2931 92.1933 16.2931 92.1931 16.2929C91.3737 15.4783 90.9671 14.4461 90.9671 13.2372C90.9671 12.0283 91.3737 10.996 92.1931 10.1814C92.1932 10.1813 92.1933 10.1813 92.1934 10.1811L92.1937 10.1809C93.0121 9.35724 94.0283 8.93919 95.2255 8.93919C96.4203 8.93919 97.4369 9.35734 98.2551 10.1933C99.0749 11.0078 99.4817 12.0381 99.4817 13.2372C99.4817 14.4461 99.0751 15.4783 98.2557 16.2929L98.2554 16.2932C97.4366 17.1173 96.4106 17.5351 95.2254 17.5351L95.2255 17.5351ZM64.5661 17.3571V9.11726H64.6994H69.5182V10.3636H65.864V12.6264H69.1598V13.8479H65.864V16.1128H69.5182V17.3571H64.5661ZM72.5489 17.3571V10.3636H70.3072V9.11726H76.0885V10.3636H75.9551H73.8468V17.3571H72.5489ZM79.7833 17.3571V9.11726H81.0812V9.24976V17.3571H79.7833ZM84.3484 17.3571V10.3636H82.1067V9.11726H87.888V10.3636H87.7546H85.6463V17.3571H84.3484ZM100.634 17.3571V9.11726H102.097L105.822 15.043L105.79 13.9181V9.11726H107.088V17.3571H105.804L101.9 11.1319L101.932 12.2561V12.2579V17.3571H100.634ZM95.2255 16.2909C96.0674 16.2909 96.7547 16.0055 97.315 15.4289L97.3158 15.4278L97.3166 15.427C97.8849 14.8622 98.163 14.135 98.163 13.2371C98.163 12.3415 97.8848 11.6119 97.3166 11.0473L97.3158 11.0465L97.315 11.0457C96.7548 10.4691 96.0676 10.1855 95.2255 10.1855C94.3819 10.1855 93.6947 10.4686 93.1239 11.0452L93.1234 11.0457C92.5656 11.624 92.2879 12.3417 92.2879 13.2371C92.2879 14.1347 92.5655 14.8501 93.1234 15.4285L93.1239 15.4291C93.6948 16.0057 94.3821 16.2908 95.2255 16.2908V16.2909Z" fill="white"/>
<path d="M27.6196 25.7349L13.4243 40.7074C13.4248 40.7105 13.4259 40.7131 13.4264 40.7162C13.8618 42.3419 15.3561 43.5391 17.1295 43.5391C17.8384 43.5391 18.504 43.3486 19.0748 43.0142L19.1202 42.9878L35.0989 33.8252L27.6196 25.7349Z" fill="#EA4335"/>
<path d="M41.9807 23.1859L41.9671 23.1766L35.0687 19.2026L27.2969 26.0751L35.0958 33.8242L41.9578 29.8896C43.1609 29.2442 43.9775 27.9839 43.9775 26.5305C43.9775 25.0876 43.1718 23.8335 41.9807 23.1859Z" fill="#FBBC04"/>
<path d="M13.4236 12.2899C13.3383 12.6026 13.2935 12.9301 13.2935 13.2702V39.7273C13.2935 40.0668 13.3378 40.3954 13.4242 40.707L28.108 26.1176L13.4236 12.2899Z" fill="#4285F4"/>
<path d="M27.7244 26.498L35.0718 19.1986L19.1113 10.0029C18.5312 9.65756 17.8541 9.45828 17.1296 9.45828C15.3561 9.45828 13.8598 10.6575 13.4244 12.2853C13.4238 12.2869 13.4238 12.288 13.4238 12.2894L27.7244 26.498Z" fill="#34A853"/>
</svg>
