<svg width="166" height="61" viewBox="0 0 166 61" fill="none" xmlns="http://www.w3.org/2000/svg">
<g filter="url(#filter0_d_564_293)">
<rect x="4" width="158" height="53" rx="7" fill="#0C0D10" shape-rendering="crispEdges"/>
<rect x="4.5" y="0.5" width="157" height="52" rx="6.5" stroke="#A6A6A6" shape-rendering="crispEdges"/>
<path d="M111.342 25.4415V28.4771H109.452V30.4678H111.342V37.2319C111.342 39.5416 112.381 40.4655 114.993 40.4655C115.452 40.4655 115.889 40.4105 116.272 40.3445V38.3757C115.944 38.4087 115.736 38.4307 115.375 38.4307C114.206 38.4307 113.692 37.8808 113.692 36.627V30.4678H116.272V28.4771H113.692V25.4415H111.342Z" fill="white"/>
<path d="M122.926 40.6304C126.401 40.6304 128.533 38.2878 128.533 34.4053C128.533 30.5448 126.39 28.1911 122.926 28.1911C119.45 28.1911 117.308 30.5448 117.308 34.4053C117.308 38.2878 119.439 40.6304 122.926 40.6304ZM122.926 38.5297C120.882 38.5297 119.734 37.0229 119.734 34.4053C119.734 31.8096 120.882 30.2918 122.926 30.2918C124.959 30.2918 126.117 31.8096 126.117 34.4053C126.117 37.0119 124.959 38.5297 122.926 38.5297Z" fill="white"/>
<path d="M130.356 40.3995H132.706V33.3274C132.706 31.6446 133.963 30.5118 135.744 30.5118C136.16 30.5118 136.859 30.5888 137.056 30.6548V28.3231C136.804 28.2571 136.356 28.2241 136.007 28.2241C134.455 28.2241 133.132 29.082 132.793 30.2588H132.618V28.4221H130.356V40.3995Z" fill="white"/>
<path d="M142.89 30.2038C144.628 30.2038 145.765 31.4247 145.819 33.3054H139.808C139.939 31.4357 141.153 30.2038 142.89 30.2038ZM145.808 37.1659C145.371 38.1008 144.399 38.6177 142.978 38.6177C141.098 38.6177 139.885 37.2869 139.808 35.1862V35.0542H148.213V34.2293C148.213 30.4678 146.213 28.1911 142.901 28.1911C139.546 28.1911 137.415 30.6218 137.415 34.4493C137.415 38.2768 139.502 40.6304 142.912 40.6304C145.634 40.6304 147.535 39.3106 148.071 37.1659H145.808Z" fill="white"/>
<path d="M95.9327 35.9764C96.114 38.9175 98.5495 40.7985 102.174 40.7985C106.049 40.7985 108.473 38.8263 108.473 35.68C108.473 33.2063 107.091 31.8383 103.738 31.0518L101.937 30.6072C99.8069 30.1056 98.946 29.433 98.946 28.2588C98.946 26.7769 100.283 25.8079 102.288 25.8079C104.191 25.8079 105.505 26.7541 105.743 28.2702H108.212C108.065 25.5001 105.641 23.5508 102.322 23.5508C98.7534 23.5508 96.3745 25.5001 96.3745 28.4298C96.3745 30.8466 97.7226 32.2829 100.679 32.9783L102.786 33.4913C104.95 34.0043 105.901 34.7566 105.901 36.0106C105.901 37.4698 104.406 38.5299 102.367 38.5299C100.181 38.5299 98.6628 37.5382 98.4475 35.9764H95.9327Z" fill="white"/>
<path d="M71.5911 28.2241C69.9735 28.2241 68.5746 29.038 67.8532 30.4018H67.6784V28.4221H65.416V44.3809H67.7658V38.5847H67.9516C68.5746 39.8496 69.9189 40.5975 71.6129 40.5975C74.6185 40.5975 76.5312 38.2108 76.5312 34.4053C76.5312 30.5998 74.6185 28.2241 71.5911 28.2241ZM70.9244 38.4747C68.9571 38.4747 67.7221 36.9129 67.7221 34.4163C67.7221 31.9086 68.9571 30.3468 70.9353 30.3468C72.9245 30.3468 74.1158 31.8756 74.1158 34.4053C74.1158 36.9459 72.9245 38.4747 70.9244 38.4747Z" fill="white"/>
<path d="M84.7535 28.2241C83.136 28.2241 81.737 29.038 81.0157 30.4018H80.8408V28.4221H78.5784V44.3809H80.9283V38.5847H81.1141C81.737 39.8496 83.0813 40.5975 84.7754 40.5975C87.781 40.5975 89.6936 38.2108 89.6936 34.4053C89.6936 30.5998 87.781 28.2241 84.7535 28.2241ZM84.0868 38.4747C82.1196 38.4747 80.8845 36.9129 80.8845 34.4163C80.8845 31.9086 82.1196 30.3468 84.0978 30.3468C86.0869 30.3468 87.2782 31.8756 87.2782 34.4053C87.2782 36.9459 86.0869 38.4747 84.0868 38.4747Z" fill="white"/>
<path d="M61.2 40.3995H63.8961L57.9942 23.9498H55.2642L49.3623 40.3995H51.9677L53.4744 36.0334H59.7047L61.2 40.3995ZM56.4989 26.9365H56.6915L59.059 33.8903H54.12L56.4989 26.9365Z" fill="white"/>
<path d="M50.9404 11.5428V19.4782H53.7875C56.1373 19.4782 57.498 18.0209 57.498 15.4858C57.498 12.9891 56.1264 11.5428 53.7875 11.5428H50.9404ZM52.1645 12.6646H53.6509C55.2849 12.6646 56.2521 13.7095 56.2521 15.5023C56.2521 17.3225 55.3012 18.3564 53.6509 18.3564H52.1645V12.6646Z" fill="white"/>
<path d="M61.6654 19.5937C63.4032 19.5937 64.4688 18.4224 64.4688 16.4811C64.4688 14.5509 63.3977 13.374 61.6654 13.374C59.9276 13.374 58.8566 14.5509 58.8566 16.4811C58.8566 18.4224 59.9222 19.5937 61.6654 19.5937ZM61.6654 18.5434C60.6435 18.5434 60.0697 17.79 60.0697 16.4811C60.0697 15.1833 60.6435 14.4244 61.6654 14.4244C62.6818 14.4244 63.2611 15.1833 63.2611 16.4811C63.2611 17.7845 62.6818 18.5434 61.6654 18.5434Z" fill="white"/>
<path d="M73.5434 13.4895H72.3685L71.3084 18.0594H71.2155L69.9914 13.4895H68.8657L67.6416 18.0594H67.5542L66.4885 13.4895H65.2972L66.9366 19.4782H68.1443L69.3684 15.0678H69.4613L70.6909 19.4782H71.9095L73.5434 13.4895Z" fill="white"/>
<path d="M74.8965 19.4782H76.0714V15.9752C76.0714 15.0403 76.6233 14.4574 77.4922 14.4574C78.3611 14.4574 78.7764 14.9358 78.7764 15.8982V19.4782H79.9513V15.6013C79.9513 14.1769 79.2191 13.374 77.8911 13.374C76.9949 13.374 76.4047 13.7755 76.1151 14.4409H76.0277V13.4895H74.8965V19.4782Z" fill="white"/>
<path d="M81.8017 19.4782H82.9766V11.1523H81.8017V19.4782Z" fill="white"/>
<path d="M87.3953 19.5937C89.1331 19.5937 90.1987 18.4224 90.1987 16.4811C90.1987 14.5509 89.1276 13.374 87.3953 13.374C85.6575 13.374 84.5865 14.5509 84.5865 16.4811C84.5865 18.4224 85.6521 19.5937 87.3953 19.5937ZM87.3953 18.5434C86.3734 18.5434 85.7996 17.79 85.7996 16.4811C85.7996 15.1833 86.3734 14.4244 87.3953 14.4244C88.4117 14.4244 88.991 15.1833 88.991 16.4811C88.991 17.7845 88.4117 18.5434 87.3953 18.5434Z" fill="white"/>
<path d="M93.6994 18.5819C93.06 18.5819 92.5955 18.2684 92.5955 17.7295C92.5955 17.2015 92.9671 16.9211 93.7868 16.8661L95.2404 16.7726V17.273C95.2404 18.0154 94.5846 18.5819 93.6994 18.5819ZM93.3988 19.5772C94.1803 19.5772 94.8306 19.2363 95.1858 18.6368H95.2787V19.4782H96.4098V15.3868C96.4098 14.1219 95.5683 13.374 94.0764 13.374C92.7267 13.374 91.7649 14.034 91.6446 15.0623H92.7813C92.9125 14.6389 93.366 14.3969 94.0218 14.3969C94.8251 14.3969 95.2404 14.7544 95.2404 15.3868V15.9037L93.6283 15.9972C92.213 16.0852 91.4151 16.7066 91.4151 17.7845C91.4151 18.8788 92.2512 19.5772 93.3988 19.5772Z" fill="white"/>
<path d="M100.397 19.5772C101.217 19.5772 101.911 19.1868 102.266 18.5324H102.359V19.4782H103.484V11.1523H102.31V14.4409H102.222C101.9 13.781 101.211 13.3905 100.397 13.3905C98.8941 13.3905 97.9268 14.5894 97.9268 16.4811C97.9268 18.3784 98.8832 19.5772 100.397 19.5772ZM100.73 14.4519C101.714 14.4519 102.331 15.2383 102.331 16.4866C102.331 17.7405 101.719 18.5159 100.73 18.5159C99.7357 18.5159 99.14 17.7515 99.14 16.4811C99.14 15.2218 99.7411 14.4519 100.73 14.4519Z" fill="white"/>
<path d="M111.103 19.5937C112.841 19.5937 113.907 18.4224 113.907 16.4811C113.907 14.5509 112.836 13.374 111.103 13.374C109.366 13.374 108.294 14.5509 108.294 16.4811C108.294 18.4224 109.36 19.5937 111.103 19.5937ZM111.103 18.5434C110.081 18.5434 109.508 17.79 109.508 16.4811C109.508 15.1833 110.081 14.4244 111.103 14.4244C112.12 14.4244 112.699 15.1833 112.699 16.4811C112.699 17.7845 112.12 18.5434 111.103 18.5434Z" fill="white"/>
<path d="M115.462 19.4782H116.637V15.9752C116.637 15.0403 117.189 14.4574 118.058 14.4574C118.927 14.4574 119.342 14.9358 119.342 15.8982V19.4782H120.517V15.6013C120.517 14.1769 119.784 13.374 118.457 13.374C117.56 13.374 116.97 13.7755 116.681 14.4409H116.593V13.4895H115.462V19.4782Z" fill="white"/>
<path d="M125.928 11.9992V13.517H124.982V14.5124H125.928V17.8944C125.928 19.0493 126.447 19.5112 127.753 19.5112C127.983 19.5112 128.201 19.4837 128.392 19.4507V18.4664C128.229 18.4829 128.125 18.4939 127.944 18.4939C127.36 18.4939 127.103 18.2189 127.103 17.592V14.5124H128.392V13.517H127.103V11.9992H125.928Z" fill="white"/>
<path d="M129.97 19.4782H131.144V15.9807C131.144 15.0733 131.68 14.4629 132.642 14.4629C133.472 14.4629 133.915 14.9468 133.915 15.9037V19.4782H135.09V15.6122C135.09 14.1879 134.309 13.3795 133.041 13.3795C132.144 13.3795 131.516 13.781 131.226 14.4519H131.134V11.1523H129.97V19.4782Z" fill="white"/>
<path d="M139.328 14.3804C140.197 14.3804 140.766 14.9908 140.793 15.9312H137.787C137.853 14.9963 138.459 14.3804 139.328 14.3804ZM140.787 17.8615C140.569 18.3289 140.082 18.5874 139.372 18.5874C138.432 18.5874 137.826 17.9219 137.787 16.8716V16.8056H141.99V16.3931C141.99 14.5124 140.99 13.374 139.334 13.374C137.656 13.374 136.591 14.5894 136.591 16.5031C136.591 18.4169 137.634 19.5937 139.339 19.5937C140.7 19.5937 141.651 18.9338 141.919 17.8615H140.787Z" fill="white"/>
<path d="M36.6125 26.8987C36.641 24.6713 37.8297 22.5638 39.7153 21.3972C38.5258 19.6875 36.5333 18.6035 34.4603 18.5383C32.2493 18.3047 30.1058 19.8697 28.9791 19.8697C27.8307 19.8697 26.0959 18.5614 24.228 18.6001C21.7931 18.6793 19.5232 20.0724 18.3386 22.2145C15.7922 26.6512 17.6916 33.1716 20.1309 36.7579C21.3513 38.5139 22.7776 40.4755 24.6439 40.406C26.4702 40.3298 27.1523 39.234 29.3568 39.234C31.5408 39.234 32.1808 40.406 34.0849 40.3617C36.0446 40.3297 37.2793 38.5979 38.4569 36.8251C39.3338 35.5739 40.0086 34.1909 40.4562 32.7276C38.1532 31.7473 36.6152 29.415 36.6125 26.8987Z" fill="white"/>
<path d="M33.0158 16.1798C34.0843 14.8889 34.6108 13.2298 34.4833 11.5547C32.8508 11.7272 31.3429 12.5124 30.26 13.7537C29.201 14.9665 28.6499 16.5964 28.7541 18.2075C30.3871 18.2244 31.9925 17.4606 33.0158 16.1798Z" fill="white"/>
</g>
<defs>
<filter id="filter0_d_564_293" x="0" y="0" width="166" height="61" filterUnits="userSpaceOnUse" color-interpolation-filters="sRGB">
<feFlood flood-opacity="0" result="BackgroundImageFix"/>
<feColorMatrix in="SourceAlpha" type="matrix" values="0 0 0 0 0 0 0 0 0 0 0 0 0 0 0 0 0 0 127 0" result="hardAlpha"/>
<feOffset dy="4"/>
<feGaussianBlur stdDeviation="2"/>
<feComposite in2="hardAlpha" operator="out"/>
<feColorMatrix type="matrix" values="0 0 0 0 0 0 0 0 0 0 0 0 0 0 0 0 0 0 0.25 0"/>
<feBlend mode="normal" in2="BackgroundImageFix" result="effect1_dropShadow_564_293"/>
<feBlend mode="normal" in="SourceGraphic" in2="effect1_dropShadow_564_293" result="shape"/>
</filter>
</defs>
</svg>
