<svg width="176" height="53" viewBox="0 0 176 53" fill="none" xmlns="http://www.w3.org/2000/svg">
<rect x="0.5" y="0.5" width="175" height="52" rx="6.25" fill="#100F0D"/>
<rect x="0.5" y="0.5" width="175" height="52" rx="6.25" stroke="#A6A6A6"/>
<path d="M60.073 33.6696H64.699L63.0429 29.2306C62.8149 28.6174 62.5909 27.9401 62.37 27.1983C62.1706 27.8545 61.9532 28.5246 61.7182 29.2092L60.073 33.6696ZM65.4894 35.7769H59.2932L57.7765 39.9272H55.0522L61.12 24.4279H63.6947L69.9015 39.9272H67.0386L65.4894 35.7769Z" fill="white"/>
<path d="M77.9378 37.1087C78.4755 36.3851 78.7444 35.3277 78.7444 33.9371C78.7444 32.6466 78.5218 31.7104 78.0768 31.1291C77.6314 30.548 77.0386 30.2575 76.2979 30.2575C75.7851 30.2575 75.3116 30.3789 74.8772 30.6212C74.4428 30.8637 74.0296 31.188 73.6379 31.5945V37.7773C73.9015 37.9055 74.2078 38.0072 74.5568 38.0818C74.9058 38.1571 75.2513 38.1945 75.5928 38.1945C76.6187 38.1945 77.4 37.8323 77.9378 37.1087ZM70.9994 31.2095C70.9994 30.3538 70.9708 29.4124 70.914 28.3857H73.3923C73.4847 28.8635 73.5489 29.3521 73.5846 29.851C74.6101 28.7317 75.7852 28.1716 77.1099 28.1716C77.8792 28.1716 78.5913 28.3659 79.2466 28.7544C79.9015 29.1432 80.4305 29.7564 80.8328 30.5942C81.2354 31.4323 81.4366 32.4969 81.4366 33.7874C81.4366 35.1351 81.2069 36.2869 80.7474 37.2423C80.288 38.1981 79.6453 38.9216 78.8192 39.4139C77.9931 39.9057 77.0386 40.1519 75.9563 40.1519C75.1726 40.1519 74.3997 40.0198 73.6379 39.7562V44.5266L70.9994 44.7513V31.2095Z" fill="white"/>
<path d="M89.9763 37.1087C90.5141 36.3851 90.783 35.3277 90.783 33.9371C90.783 32.6466 90.5603 31.7104 90.1153 31.1291C89.67 30.548 89.0772 30.2575 88.3365 30.2575C87.8237 30.2575 87.3502 30.3789 86.9158 30.6212C86.481 30.8637 86.0681 31.188 85.6764 31.5945V37.7773C85.94 37.9055 86.246 38.0072 86.5953 38.0818C86.944 38.1571 87.2894 38.1945 87.6314 38.1945C88.6569 38.1945 89.4385 37.8323 89.9763 37.1087ZM83.0376 31.2095C83.0376 30.3538 83.009 29.4124 82.9522 28.3857H85.4308C85.5233 28.8635 85.5875 29.3521 85.6232 29.851C86.6486 28.7317 87.8237 28.1716 89.1484 28.1716C89.9177 28.1716 90.6295 28.3659 91.2851 28.7544C91.9401 29.1432 92.469 29.7564 92.8717 30.5942C93.2736 31.4323 93.4751 32.4969 93.4751 33.7874C93.4751 35.1351 93.245 36.2869 92.7859 37.2423C92.3265 38.1981 91.6836 38.9216 90.8578 39.4139C90.0314 39.9057 89.0771 40.1519 87.9945 40.1519C87.2111 40.1519 86.4383 40.0198 85.6764 39.7562V44.5266L83.0376 44.7513V31.2095Z" fill="white"/>
<path d="M98.3223 39.1945C97.1825 38.5637 96.3067 37.6595 95.6944 36.4829C95.0815 35.3063 94.7755 33.9157 94.7755 32.3112C94.7755 30.5715 95.1281 29.0933 95.8331 27.8773C96.5382 26.6618 97.498 25.7489 98.7119 25.1391C99.9265 24.5295 101.288 24.2246 102.799 24.2246C103.689 24.2246 104.538 24.3227 105.346 24.5187C106.155 24.715 106.908 24.984 107.606 25.3264L106.933 27.3586C105.53 26.6884 104.191 26.3531 102.916 26.3531C101.841 26.3531 100.899 26.5832 100.091 27.0432C99.2822 27.5033 98.6533 28.1789 98.2048 29.0702C97.756 29.9617 97.5319 31.0384 97.5319 32.3004C97.5319 33.4061 97.7044 34.3864 98.0495 35.2421C98.3954 36.0978 98.9402 36.7755 99.6845 37.2745C100.429 37.7737 101.367 38.0231 102.499 38.0231C103.012 38.0231 103.525 37.9804 104.038 37.8949C104.55 37.8094 105.031 37.6846 105.48 37.5204V34.3864H101.901V32.3326H108.044V38.8577C107.161 39.2711 106.233 39.5888 105.261 39.8096C104.289 40.0305 103.322 40.141 102.36 40.141C100.808 40.141 99.4614 39.8259 98.3223 39.1945Z" fill="white"/>
<path d="M115.84 37.7877C116.388 37.5243 116.837 37.1959 117.186 36.8038V34.6645C116.466 34.5862 115.879 34.5469 115.423 34.5469C114.333 34.5469 113.58 34.7231 113.164 35.0765C112.747 35.429 112.539 35.9053 112.539 36.5042C112.539 37.0751 112.69 37.4974 112.993 37.7719C113.295 38.0464 113.707 38.1836 114.226 38.1836C114.753 38.1836 115.291 38.0518 115.84 37.7877ZM117.421 39.9272C117.328 39.4778 117.267 38.9682 117.239 38.3977C116.833 38.8828 116.305 39.2944 115.652 39.6332C115.001 39.9718 114.266 40.141 113.447 40.141C112.784 40.141 112.181 40.011 111.636 39.7505C111.091 39.4905 110.658 39.0983 110.338 38.5739C110.018 38.05 109.857 37.4101 109.857 36.6539C109.857 35.5346 110.259 34.6413 111.064 33.9744C111.869 33.3077 113.212 32.9744 115.092 32.9744C115.797 32.9744 116.495 33.0245 117.186 33.1242V32.8996C117.186 31.8799 116.968 31.1615 116.534 30.744C116.099 30.3272 115.476 30.1185 114.665 30.1185C114.102 30.1185 113.5 30.2006 112.859 30.3645C112.218 30.5287 111.655 30.7247 111.171 30.9528L110.754 29.0274C111.224 28.8134 111.844 28.6174 112.613 28.439C113.383 28.261 114.194 28.1716 115.049 28.1716C116.046 28.1716 116.893 28.3231 117.591 28.6261C118.289 28.9293 118.834 29.4501 119.226 30.1878C119.618 30.9262 119.814 31.9192 119.814 33.167V37.7556C119.814 38.2337 119.842 38.9578 119.899 39.9272H117.421Z" fill="white"/>
<path d="M121.838 37.1567V23.5186L124.466 23.3047V36.6861C124.466 37.1782 124.55 37.5256 124.717 37.7291C124.884 37.932 125.149 38.0341 125.513 38.0341C125.677 38.0341 125.908 37.9949 126.207 37.9164L126.517 39.8096C126.267 39.9095 125.963 39.9898 125.604 40.0502C125.244 40.1106 124.904 40.141 124.583 40.141C122.753 40.141 121.838 39.1464 121.838 37.1567Z" fill="white"/>
<path d="M128.408 37.1567V23.5186L131.036 23.3047V36.6861C131.036 37.1782 131.12 37.5256 131.287 37.7291C131.454 37.932 131.72 38.0341 132.083 38.0341C132.247 38.0341 132.478 37.9949 132.777 37.9164L133.087 39.8096C132.838 39.9095 132.533 39.9898 132.174 40.0502C131.814 40.1106 131.474 40.141 131.153 40.141C129.323 40.141 128.408 39.1464 128.408 37.1567Z" fill="white"/>
<path d="M141.322 32.8141C141.269 31.8941 141.04 31.2043 140.627 30.744C140.214 30.2844 139.66 30.0542 138.972 30.0542C138.301 30.0542 137.744 30.2862 137.299 30.7495C136.855 31.2133 136.562 31.9013 136.428 32.8141H141.322ZM143.895 34.4933H136.354C136.473 36.9109 137.624 38.1196 139.805 38.1196C140.345 38.1196 140.899 38.0536 141.467 37.9218C142.031 37.7895 142.575 37.6133 143.094 37.392L143.672 39.1997C142.381 39.8276 140.934 40.141 139.325 40.141C138.097 40.141 137.066 39.9095 136.226 39.4459C135.383 38.9825 134.751 38.3157 134.328 37.4455C133.905 36.5759 133.693 35.5275 133.693 34.3008C133.693 33.0245 133.918 31.9262 134.367 31.0063C134.815 30.0863 135.44 29.3841 136.241 28.8991C137.042 28.4142 137.966 28.1716 139.014 28.1716C140.105 28.1716 141.012 28.4266 141.742 28.9366C142.472 29.4462 143.012 30.1257 143.365 30.9741C143.718 31.8231 143.895 32.7605 143.895 33.7874V34.4933Z" fill="white"/>
<path d="M145.892 31.2844C145.892 30.6499 145.86 29.6837 145.804 28.3857H148.274C148.316 28.7066 148.355 29.0898 148.397 29.5356C148.436 29.9812 148.461 30.3431 148.475 30.6212C148.782 30.1149 149.082 29.6888 149.378 29.3431C149.675 28.9969 150.021 28.7155 150.416 28.4977C150.811 28.2803 151.259 28.1716 151.767 28.1716C152.173 28.1716 152.519 28.2145 152.812 28.3001L152.48 30.5892C152.226 30.5108 151.94 30.4714 151.626 30.4714C151.009 30.4714 150.465 30.6301 150.003 30.9476C149.541 31.2646 149.047 31.787 148.517 32.5144V39.9272H145.892V31.2844Z" fill="white"/>
<path d="M154.294 44.6496C153.909 44.5821 153.592 44.5054 153.345 44.4199L153.825 42.4945C154.001 42.5441 154.227 42.5924 154.499 42.6388C154.767 42.6854 155.025 42.7083 155.268 42.7083C156.436 42.7083 157.311 41.9557 157.893 40.4513L158.066 40.0234L153.814 28.3857H156.644L158.783 34.889C159.129 36.0018 159.354 36.8539 159.453 37.4455C159.654 36.6113 159.887 35.7769 160.159 34.9426L162.329 28.3857H164.986L160.748 40.0771C160.349 41.1823 159.915 42.0734 159.453 42.7511C158.991 43.4284 158.444 43.9312 157.816 44.2594C157.184 44.5871 156.425 44.7513 155.533 44.7513C155.092 44.7513 154.679 44.7178 154.294 44.6496Z" fill="white"/>
<path d="M55.041 9.6731H59.7442L59.6119 10.8105H56.4194V13.0132H59.4298V14.0788H56.4194V16.5189H59.7827L59.6669 17.6672H55.041V9.6731Z" fill="white"/>
<path d="M62.9861 13.5873L60.505 9.6731H62.0708L63.7526 12.5496L65.5227 9.6731H67.0443L64.5851 13.5375L67.2483 17.6672H65.6603L63.7582 14.5205L61.8227 17.6672H60.3011L62.9861 13.5873Z" fill="white"/>
<path d="M71.72 13.2421C72.0139 12.9757 72.1611 12.5991 72.1611 12.1132C72.1611 11.62 72.0111 11.2652 71.7119 11.0479C71.4123 10.8306 70.9719 10.7221 70.3914 10.7221H69.6415V13.5598C69.987 13.6149 70.2516 13.6424 70.4355 13.6424C70.9976 13.6424 71.426 13.5092 71.72 13.2421ZM68.2628 9.6731H70.4133C71.4239 9.6731 72.1978 9.87945 72.7345 10.2914C73.2713 10.7038 73.5394 11.2999 73.5394 12.08C73.5394 12.61 73.4191 13.0732 73.1785 13.4686C72.9374 13.8643 72.6022 14.1682 72.172 14.3795C71.7422 14.5915 71.2475 14.6971 70.6888 14.6971C70.3839 14.6971 70.0346 14.6604 69.6415 14.5866V17.6672H68.2628V9.6731Z" fill="white"/>
<path d="M74.9016 9.6731H76.2799V16.4857H79.5826L79.4668 17.6672H74.9016V9.6731Z" fill="white"/>
<path d="M85.2509 16.2953C85.6369 16.0359 85.9252 15.6791 86.1165 15.2243C86.3078 14.7699 86.4034 14.2498 86.4034 13.6647C86.4034 13.0905 86.3187 12.5793 86.1497 12.1298C85.9803 11.6807 85.7103 11.3232 85.3391 11.056C84.9679 10.7893 84.4901 10.6557 83.9053 10.6557C83.3467 10.6557 82.8725 10.791 82.4829 11.0617C82.0933 11.332 81.8011 11.6949 81.6063 12.1493C81.4115 12.604 81.3141 13.1054 81.3141 13.6537C81.3141 14.2314 81.4059 14.7487 81.5897 15.2049C81.7732 15.6614 82.0545 16.0221 82.4335 16.2871C82.8118 16.5521 83.2804 16.6846 83.8394 16.6846C84.3944 16.6846 84.8648 16.5546 85.2509 16.2953ZM81.678 17.2754C81.0936 16.9405 80.6468 16.4702 80.3381 15.8646C80.0293 15.2593 79.8751 14.5555 79.8751 13.753C79.8751 12.9103 80.0392 12.1733 80.3684 11.5419C80.6973 10.9108 81.1716 10.4232 81.7909 10.0787C82.4102 9.73493 83.1407 9.5625 83.9826 9.5625C84.7876 9.5625 85.4806 9.72927 86.0614 10.0621C86.6419 10.3957 87.0852 10.8638 87.3901 11.4673C87.6953 12.0712 87.8477 12.7704 87.8477 13.5654C87.8477 14.423 87.6815 15.1685 87.3488 15.8013C87.016 16.4341 86.5421 16.9221 85.9263 17.2641C85.3105 17.6065 84.5875 17.7776 83.7568 17.7776C82.9554 17.7776 82.2623 17.6104 81.678 17.2754Z" fill="white"/>
<path d="M91.5478 13.4548C91.8819 13.4548 92.178 13.3898 92.4352 13.2587C92.6925 13.1283 92.8929 12.9443 93.0362 12.7068C93.1798 12.4694 93.2515 12.1941 93.2515 11.8814C93.2515 11.4804 93.1244 11.1868 92.8711 11.0009C92.6174 10.8151 92.2479 10.7221 91.7627 10.7221H90.7647V13.4548H91.5478ZM89.3864 9.6731H91.884C92.7955 9.6731 93.4858 9.85542 93.9544 10.2197C94.4231 10.584 94.6574 11.1052 94.6574 11.7821C94.6574 12.2054 94.5727 12.5782 94.4036 12.9001C94.2346 13.2223 94.025 13.4845 93.7752 13.6866C93.525 13.8891 93.2681 14.0399 93.0034 14.1396L95.457 17.6672H93.8581L91.7792 14.4982H90.7647V17.6672H89.3864V9.6731Z" fill="white"/>
<path d="M96.5488 9.6731H101.252L101.12 10.8105H97.9271V13.0132H100.938V14.0788H97.9271V16.5189H101.29L101.175 17.6672H96.5488V9.6731Z" fill="white"/>
<path d="M106.369 9.6731H107.747V17.6672H106.369V9.6731Z" fill="white"/>
<path d="M111.392 10.8271H108.916L109.037 9.6731H115.252L115.125 10.8271H112.77V17.6672H111.392V10.8271Z" fill="white"/>
<path d="M124.807 16.2953C125.193 16.0359 125.481 15.6791 125.673 15.2243C125.863 14.7699 125.959 14.2498 125.959 13.6647C125.959 13.0905 125.874 12.5793 125.706 12.1298C125.536 11.6807 125.266 11.3232 124.895 11.056C124.524 10.7893 124.046 10.6557 123.461 10.6557C122.902 10.6557 122.428 10.791 122.039 11.0617C121.649 11.332 121.357 11.6949 121.162 12.1493C120.967 12.604 120.87 13.1054 120.87 13.6537C120.87 14.2314 120.962 14.7487 121.146 15.2049C121.329 15.6614 121.61 16.0221 121.989 16.2871C122.368 16.5521 122.836 16.6846 123.395 16.6846C123.95 16.6846 124.421 16.5546 124.807 16.2953ZM121.234 17.2754C120.649 16.9405 120.203 16.4702 119.894 15.8646C119.585 15.2593 119.431 14.5555 119.431 13.753C119.431 12.9103 119.595 12.1733 119.924 11.5419C120.253 10.9108 120.727 10.4232 121.347 10.0787C121.966 9.73493 122.697 9.5625 123.539 9.5625C124.344 9.5625 125.036 9.72927 125.617 10.0621C126.198 10.3957 126.641 10.8638 126.946 11.4673C127.251 12.0712 127.404 12.7704 127.404 13.5654C127.404 14.423 127.237 15.1685 126.905 15.8013C126.572 16.4341 126.098 16.9221 125.482 17.2641C124.867 17.6065 124.143 17.7776 123.312 17.7776C122.511 17.7776 121.818 17.6104 121.234 17.2754Z" fill="white"/>
<path d="M128.942 9.6731H130.525L134.473 15.8674C134.438 15.2787 134.424 14.7357 134.424 14.2389V9.6731H135.701V17.6672H134.17L130.161 11.3733C130.201 12.0878 130.221 12.7206 130.221 13.2725V17.6672H128.942V9.6731Z" fill="white"/>
<path fill-rule="evenodd" clip-rule="evenodd" d="M35.6525 9.71654H20.9924C14.0865 9.71654 11.5605 12.2457 11.5605 19.1605V33.8396C11.5605 40.7541 14.0865 43.2832 20.9924 43.2832H35.6479C42.5538 43.2832 45.0844 40.7541 45.0844 33.8396V19.1605C45.0844 12.2457 42.5584 9.71654 35.6525 9.71654Z" fill="#C91C2E"/>
<path d="M26.1861 29.1837H27.5305L26.8562 27.6135L26.1861 29.1837ZM25.8551 29.9753L25.4563 30.889H24.5483L26.4793 26.5028H27.2638L29.187 30.889H28.2547L27.8608 29.9753H25.8551ZM40.4654 30.8859H41.3431V26.5028H40.4654V30.8859ZM36.973 29.0025H38.5902V28.2038H36.973V27.3053H39.3207V26.5056H36.0957V30.8886H39.4054V30.0891H36.973V29.0025ZM33.4861 29.5205L32.491 26.5027H31.7655L30.7704 29.5205L29.802 26.5047H28.8556L30.3832 30.891H31.1193L32.1159 28.0098L33.1121 30.891H33.8549L35.3786 26.5047H34.4566L33.4861 29.5205ZM23.2088 29.0147C23.2088 29.7282 22.8549 30.1094 22.2123 30.1094C21.5661 30.1094 21.2104 29.7174 21.2104 28.9843V26.5053H20.3211V29.0147C20.3211 30.2492 21.0061 30.957 22.2002 30.957C23.406 30.957 24.0977 30.2357 24.0977 28.9784V26.5027H23.2088V29.0147ZM18.1993 26.5028H19.0882V30.8913H18.1993V29.1092H16.191V30.8913H15.3018V26.5028H16.191V28.2732H18.1993V26.5028Z" fill="white"/>
<path d="M28.3223 20.916C25.2455 20.916 22.7422 18.4094 22.7422 15.3287H23.5305C23.5305 17.9743 25.6799 20.1267 28.3223 20.1267C30.9647 20.1267 33.1141 17.9743 33.1141 15.3287H33.9024C33.9024 18.4094 31.3991 20.916 28.3223 20.916Z" fill="white"/>
</svg>
