<svg width="146" height="53" viewBox="0 0 146 53" fill="none" xmlns="http://www.w3.org/2000/svg">
<g clip-path="url(#clip0_564_224)">
<mask id="mask0_564_224" style="mask-type:luminance" maskUnits="userSpaceOnUse" x="0" y="0" width="146" height="53">
<path d="M146 0H0V53H146V0Z" fill="white"/>
</mask>
<g mask="url(#mask0_564_224)">
<path d="M140.738 0.662109H5.26083C2.71833 0.662109 0.657227 2.73839 0.657227 5.29961V47.6996C0.657227 50.2608 2.71833 52.3371 5.26083 52.3371H140.738C143.281 52.3371 145.342 50.2608 145.342 47.6996V5.29961C145.342 2.73839 143.281 0.662109 140.738 0.662109Z" fill="#1A1C20" stroke="#393E45"/>
<path d="M60.2381 36.2579C62.6199 35.6394 64.1896 33.7887 64.1896 31.3694C64.1896 28.3765 61.8275 26.2715 58.5148 26.2715H52.6123V42.3786H55.3358V36.4574H57.2669L61.4908 42.3786H64.6898L60.2381 36.253V36.2579ZM58.5148 28.7855C60.2182 28.7855 61.3968 29.838 61.3968 31.3694C61.3968 32.9009 60.2182 33.9533 58.5148 33.9533H55.3358V28.7906H58.5148V28.7855Z" fill="white"/>
<path d="M70.8223 42.6077C72.2534 42.6077 73.5707 41.8544 74.3183 40.5974L74.8383 42.3782H76.7893V30.4961H74.1797V37.375C74.1797 39.0659 73.0656 40.2531 71.5454 40.2531C70.0251 40.2531 69.0051 39.0659 69.0051 37.375V30.4961H66.3955V37.6692C66.3955 40.5275 68.3019 42.6077 70.8223 42.6077Z" fill="white"/>
<path d="M85.1212 42.6061C88.1418 42.6061 90.6375 40.8703 90.6375 37.992C90.6375 34.7696 88.0279 33.8319 85.7797 33.0537C84.0318 32.4601 82.5116 31.9113 82.5116 30.4697C82.5116 29.2126 83.6702 28.5492 85.032 28.5492C86.463 28.5492 87.4832 29.3025 88.0526 30.5844L90.6425 30.1505C89.8254 27.6364 87.7605 26.0352 84.9429 26.0352C82.1254 26.0352 79.7238 27.7261 79.7238 30.6044C79.7238 33.8517 82.3334 34.7396 84.5815 35.4929C86.3047 36.0616 87.8497 36.6102 87.8497 38.0768C87.8497 39.3588 86.6909 40.087 85.1459 40.087C83.3732 40.087 82.4224 39.2441 81.5806 37.7126L78.9463 38.1716C79.7188 40.8901 82.1699 42.6061 85.1212 42.6061Z" fill="white"/>
<path d="M97.7379 40.0947C96.8515 40.0947 96.4207 39.6607 96.4207 38.7678V32.7819H99.9414V30.4973H96.4207V27.0703H94.4697L93.8112 30.4973H91.8799V32.7819H93.8112V38.7678C93.8112 41.0973 95.148 42.3794 97.7379 42.3794H99.9414L100.169 40.0947H97.7379Z" fill="white"/>
<path d="M107.626 42.6085C111.325 42.6085 113.935 40.0495 113.935 36.438C113.935 32.8266 111.325 30.2676 107.626 30.2676C103.927 30.2676 101.317 32.8266 101.317 36.438C101.317 40.0495 103.927 42.6085 107.626 42.6085ZM107.626 40.2092C105.492 40.2092 104.041 38.6778 104.041 36.438C104.041 34.1983 105.492 32.6669 107.626 32.6669C109.76 32.6669 111.211 34.1983 111.211 36.438C111.211 38.6778 109.76 40.2092 107.626 40.2092Z" fill="white"/>
<path d="M118.818 42.3782V35.3647C118.818 33.8583 119.545 33.0103 121.135 33.0103H122.635L122.408 30.4961H121.908C120.521 30.4961 119.456 30.8852 118.659 32.2121L118.159 30.4961H116.208V42.3782H118.818Z" fill="white"/>
<path d="M135.478 36.3022C135.478 32.8754 132.938 30.2715 129.347 30.2715C125.757 30.2715 123.217 32.8554 123.217 36.442C123.217 40.0285 125.757 42.6124 129.347 42.6124C131.799 42.6124 134.116 41.4452 134.997 39.1854L132.546 38.7715C131.976 39.6195 130.887 40.2131 129.506 40.2131C127.51 40.2131 126.193 38.981 125.94 37.1502H135.428C135.453 36.9009 135.472 36.6265 135.472 36.3022M129.342 32.556C130.976 32.556 132.205 33.6086 132.635 35.0901H126.099C126.53 33.5587 127.758 32.556 129.347 32.556" fill="white"/>
<path d="M12.7428 40.1658C14.9632 42.3996 18.5325 42.3996 25.6761 42.3996H26.9364C34.08 42.3996 37.6493 42.3996 39.8696 40.1658C42.09 37.932 42.09 34.333 42.09 27.1351V25.8641C42.09 18.6662 42.09 15.0672 39.8696 12.8335C37.6493 10.5996 34.075 10.5996 26.9364 10.5996H25.6761C18.5325 10.5996 14.9582 10.5996 12.7428 12.8335C10.5225 15.0723 10.5225 18.6712 10.5225 25.8641V27.1351C10.5225 34.333 10.5225 37.932 12.7428 40.1658Z" fill="#0077FF"/>
<path fill-rule="evenodd" clip-rule="evenodd" d="M34.8928 31.738L32.7611 31.2019C32.5051 31.1274 32.3229 30.8941 32.3131 30.626L32.0472 22.7182C31.9685 21.6707 31.2004 20.8368 30.393 20.5935C30.3486 20.5787 30.2995 20.5935 30.2749 20.6382C30.2453 20.6779 30.2601 20.7325 30.2946 20.7623C30.4915 20.9162 31.0429 21.4226 31.0429 22.2963V32.6364C31.0429 33.6342 30.1025 34.3689 29.1376 34.1256L26.9713 33.5796C26.7301 33.4952 26.5628 33.2718 26.5578 33.0088L26.2919 25.1009C26.2132 24.0535 25.4451 23.2195 24.6378 22.9763C24.5935 22.9614 24.5443 22.9763 24.5196 23.0209C24.4901 23.0607 24.5048 23.1153 24.5393 23.1451C24.7362 23.2989 25.2876 23.8053 25.2876 24.679V33.2967V35.0192C25.2876 36.0169 24.3523 36.7516 23.3873 36.5084L17.2727 34.9695C16.4209 34.756 15.8252 33.9866 15.8252 33.108V22.7529C15.8252 21.7551 16.7606 21.0204 17.7256 21.2637L21.5805 22.2317V20.3652C21.5805 19.3674 22.5158 18.6326 23.4809 18.8759L27.3357 19.844V17.9774C27.3357 16.9797 28.2711 16.245 29.236 16.4883L35.3507 18.0271C36.2023 18.2406 36.798 19.01 36.798 19.8886V30.2438C36.798 31.2415 35.8627 31.9762 34.8977 31.7329" fill="white"/>
<path d="M56.3336 18.664C55.5861 18.664 54.9141 18.4891 54.3176 18.1392C53.7213 17.7817 53.2532 17.2874 52.9133 16.6561C52.5812 16.0248 52.415 15.3137 52.415 14.5226C52.415 13.7316 52.5812 13.0242 52.9133 12.4005C53.2532 11.7693 53.7175 11.2787 54.3063 10.9288C54.9028 10.5713 55.5748 10.3926 56.3223 10.3926C57.1302 10.3926 57.8476 10.5979 58.4742 11.0087C59.1084 11.4118 59.5614 11.9594 59.8333 12.6516L58.678 12.8341C58.4667 12.4082 58.1534 12.0773 57.738 11.8415C57.3304 11.5981 56.8698 11.4764 56.3563 11.4764C55.8278 11.4764 55.3558 11.6057 54.9406 11.8643C54.5328 12.1229 54.212 12.4842 53.9779 12.9482C53.7514 13.4046 53.6382 13.9293 53.6382 14.5226C53.6382 15.1235 53.7514 15.6559 53.9779 16.1199C54.212 16.5762 54.5366 16.9337 54.9519 17.1924C55.3673 17.4509 55.8429 17.5802 56.379 17.5802C56.9075 17.5802 57.3756 17.4586 57.7834 17.2152C58.1986 16.9642 58.5157 16.6143 58.7347 16.1655L59.8898 16.3481C59.603 17.0554 59.1387 17.6182 58.4968 18.0365C57.8551 18.455 57.134 18.664 56.3336 18.664Z" fill="white"/>
<path d="M65.9211 18.5488H64.46L62.2969 16.1074H61.9458V18.5488H60.8359V12.6504H61.9458V15.0349H62.2855L64.3581 12.6504H65.6946L63.1802 15.5026L65.9211 18.5488Z" fill="white"/>
<path d="M68.6737 12.5371C69.3984 12.5371 69.9685 12.7767 70.3838 13.2558C70.8066 13.7274 71.018 14.3891 71.018 15.2411V18.5496H70.2252L69.9648 17.6256C69.776 17.9221 69.5231 18.1693 69.206 18.3672C68.8889 18.5649 68.5075 18.6637 68.062 18.6637C67.6694 18.6637 67.3184 18.5839 67.0087 18.4241C66.6993 18.2645 66.4576 18.0439 66.2839 17.7624C66.1103 17.4734 66.0234 17.1501 66.0234 16.7927C66.0234 16.2374 66.2424 15.7924 66.6803 15.4579C67.1182 15.1232 67.7524 14.9558 68.583 14.9558H69.9081C69.8778 14.4918 69.7496 14.1343 69.5231 13.8834C69.2965 13.6247 68.9945 13.4954 68.617 13.4954C68.3301 13.4954 68.0772 13.5639 67.8582 13.7008C67.6392 13.8378 67.473 14.0165 67.3598 14.237L66.3293 14.0659C66.4802 13.5944 66.7709 13.2216 67.2013 12.9478C67.6317 12.674 68.1224 12.5371 68.6737 12.5371ZM68.2999 17.7169C68.7756 17.7169 69.1606 17.5609 69.4551 17.249C69.7571 16.9295 69.9081 16.4923 69.9081 15.937V15.8685H68.617C67.6355 15.8685 67.1446 16.1651 67.1446 16.7585C67.1446 17.0475 67.2504 17.2795 67.4617 17.4544C67.6732 17.6293 67.9526 17.7169 68.2999 17.7169Z" fill="white"/>
<path d="M75.4806 16.4039C75.2995 16.4876 75.0843 16.5523 74.8351 16.5979C74.5859 16.6436 74.3405 16.6664 74.099 16.6664C73.3968 16.6664 72.857 16.4686 72.4793 16.073C72.1018 15.6775 71.9131 15.1185 71.9131 14.396V12.6504H73.0229V14.396C73.0229 15.2403 73.427 15.6624 74.2349 15.6624C74.7256 15.6624 75.1409 15.5748 75.4806 15.3999V12.6504H76.5906V18.5488H75.4806V16.4039Z" fill="white"/>
<path d="M80.3142 12.5371C81.039 12.5371 81.6091 12.7767 82.0243 13.2558C82.4472 13.7274 82.6586 14.3891 82.6586 15.2411V18.5496H81.8658L81.6053 17.6256C81.4165 17.9221 81.1636 18.1693 80.8465 18.3672C80.5293 18.5649 80.148 18.6637 79.7027 18.6637C79.31 18.6637 78.9589 18.5839 78.6494 18.4241C78.3397 18.2645 78.0981 18.0439 77.9245 17.7624C77.7509 17.4734 77.6641 17.1501 77.6641 16.7927C77.6641 16.2374 77.8829 15.7924 78.3209 15.4579C78.7588 15.1232 79.393 14.9558 80.2235 14.9558H81.5487C81.5185 14.4918 81.3901 14.1343 81.1636 13.8834C80.9371 13.6247 80.6351 13.4954 80.2576 13.4954C79.9706 13.4954 79.7177 13.5639 79.4988 13.7008C79.2798 13.8378 79.1137 14.0165 79.0004 14.237L77.9697 14.0659C78.1209 13.5944 78.4116 13.2216 78.8419 12.9478C79.2723 12.674 79.763 12.5371 80.3142 12.5371ZM79.9405 17.7169C80.4161 17.7169 80.8012 17.5609 81.0957 17.249C81.3977 16.9295 81.5487 16.4923 81.5487 15.937V15.8685H80.2576C79.276 15.8685 78.7852 16.1651 78.7852 16.7585C78.7852 17.0475 78.891 17.2795 79.1024 17.4544C79.3137 17.6293 79.5931 17.7169 79.9405 17.7169Z" fill="white"/>
<path d="M85.649 18.5498H84.0068V12.6514H85.0828V17.2949H85.2527L87.6197 12.6514H89.2619V18.5498H88.186V13.9177H88.0161L85.649 18.5498ZM86.6458 11.8869C86.1549 11.8869 85.7435 11.7576 85.4112 11.499C85.0866 11.2328 84.894 10.8373 84.8336 10.3125H85.7396C85.7774 10.5559 85.8718 10.7422 86.0228 10.8715C86.1813 10.9932 86.389 11.0541 86.6458 11.0541C86.9024 11.0541 87.1062 10.9932 87.2572 10.8715C87.4159 10.7422 87.5102 10.5559 87.5404 10.3125H88.4579C88.3899 10.8373 88.1898 11.2328 87.8576 11.499C87.5329 11.7576 87.1289 11.8869 86.6458 11.8869Z" fill="white"/>
<path d="M93.2338 18.5488H92.124V13.6772H90.0967V12.6504H95.2611V13.6772H93.2338V18.5488Z" fill="white"/>
<path d="M101.554 15.5605C101.554 15.7127 101.551 15.8304 101.543 15.9142H96.707C96.7674 16.439 96.9712 16.8573 97.3186 17.1691C97.666 17.481 98.1077 17.637 98.6437 17.637C99.0137 17.637 99.3421 17.5646 99.629 17.4202C99.9235 17.2681 100.146 17.0703 100.297 16.8268L101.339 16.998C101.113 17.5304 100.746 17.9412 100.241 18.2302C99.7424 18.5193 99.1873 18.6637 98.5758 18.6637C97.9944 18.6637 97.4734 18.5344 97.0128 18.2759C96.5522 18.0097 96.1936 17.6445 95.9369 17.1806C95.6801 16.7166 95.5518 16.1918 95.5518 15.6061C95.5518 15.0129 95.6801 14.4842 95.9369 14.0202C96.1936 13.5564 96.5485 13.195 97.0015 12.9364C97.4545 12.6702 97.9717 12.5371 98.553 12.5371C99.1269 12.5371 99.6404 12.6702 100.093 12.9364C100.554 13.195 100.913 13.5564 101.169 14.0202C101.426 14.4767 101.554 14.99 101.554 15.5605ZM98.553 13.5297C98.1077 13.5297 97.7226 13.6627 97.3979 13.9289C97.0808 14.1953 96.8693 14.5528 96.7637 15.0014H100.343C100.244 14.5603 100.033 14.2067 99.7083 13.9405C99.3912 13.6666 99.0062 13.5297 98.553 13.5297Z" fill="white"/>
<path d="M106.543 18.5488H104.9V12.6504H105.976V17.2939H106.146L108.513 12.6504H110.155V18.5488H109.079V13.9167H108.91L106.543 18.5488Z" fill="white"/>
<path d="M114.761 15.5376C115.07 15.6289 115.327 15.7963 115.531 16.0397C115.735 16.2755 115.837 16.5683 115.837 16.9181C115.837 17.2452 115.742 17.5418 115.553 17.808C115.365 18.0667 115.093 18.2759 114.738 18.4355C114.391 18.5876 113.987 18.6637 113.526 18.6637C112.907 18.6637 112.375 18.5193 111.929 18.2302C111.484 17.9336 111.189 17.5381 111.046 17.0436L112.077 16.8726C112.326 17.4202 112.805 17.6939 113.515 17.6939C113.908 17.6939 114.206 17.6217 114.41 17.4772C114.621 17.3251 114.727 17.116 114.727 16.8496C114.727 16.6139 114.629 16.4238 114.432 16.2792C114.244 16.1348 113.938 16.0625 113.515 16.0625H112.745V15.0813H113.515C113.877 15.0813 114.153 15.0129 114.342 14.8759C114.538 14.739 114.636 14.5565 114.636 14.3283C114.636 14.0849 114.53 13.8872 114.319 13.7351C114.115 13.583 113.862 13.5069 113.56 13.5069C113.266 13.5069 113.002 13.5791 112.767 13.7237C112.533 13.8681 112.356 14.0659 112.235 14.3169L111.205 14.1343C111.378 13.6247 111.676 13.2331 112.099 12.9592C112.53 12.6778 113.028 12.5371 113.594 12.5371C114.002 12.5371 114.368 12.6094 114.693 12.7539C115.025 12.8984 115.282 13.1 115.463 13.3585C115.652 13.6172 115.746 13.9062 115.746 14.2256C115.746 14.5528 115.655 14.8303 115.474 15.0585C115.293 15.2867 115.055 15.4465 114.761 15.5376Z" fill="white"/>
</g>
</g>
<defs>
<clipPath id="clip0_564_224">
<rect width="146" height="53" fill="white"/>
</clipPath>
</defs>
</svg>
