<svg width="181" height="45" viewBox="0 0 181 45" fill="none" xmlns="http://www.w3.org/2000/svg">
<path fill-rule="evenodd" clip-rule="evenodd" d="M160.441 26.7253C157.031 33.4865 158.121 38.399 163.814 38.399C169.677 38.399 175.451 33.5307 178.78 26.7253C182.19 19.839 180.967 14.9707 175.451 14.9707C169.986 14.9707 163.77 19.9274 160.441 26.7253ZM174.751 20.3619C176.062 20.3619 175.804 22.9986 173.617 26.6812C171.474 30.2385 169.154 32.9562 167.703 32.9562C166.348 32.9562 166.613 30.3269 168.844 26.6812C170.988 23.087 173.308 20.3619 174.751 20.3619Z" fill="black"/>
<path d="M155.454 20.1471C158.341 14.9695 158.953 9.74767 156.721 9.74767C153.834 9.74767 148.885 15.1389 144.687 22.4671C140.525 29.7512 139.48 35.1498 142.146 35.1498C144.363 35.1498 147.986 31.9902 151.499 26.8567H145.04L147.574 22.7323H160.485C153.701 35.194 144.12 44.0983 134.228 44.0983C125.515 44.0983 124.727 34.4501 131.51 21.9884C137.992 10.0938 148.273 0.835938 157.421 0.835938C163.07 0.835938 168.056 6.23453 161.494 20.1471H155.454Z" fill="black"/>
<path d="M20.2171 37.696H14.9216V11.3217H12.5575C8.22681 11.3217 5.95094 13.5165 5.95094 16.7645C5.95094 20.447 7.52708 22.1631 10.7603 24.3505L13.4339 26.1549L5.73004 37.696H0L6.91581 27.3776C2.93131 24.5273 0.699645 21.7654 0.699645 17.0665C0.699645 11.1891 4.76519 7.19727 12.5132 7.19727H20.2171V37.696Z" fill="black"/>
<path d="M122.407 36.7706C121.141 37.6986 119.432 38.1331 117.024 38.1331C110.064 38.1331 106.698 34.0529 106.698 26.6804C106.698 19.9709 110.152 15.1836 116.81 15.1836C119.388 15.1836 121.317 15.6255 122.407 16.2368V20.6706C121.362 20.0151 119.388 19.308 117.377 19.308C113.96 19.308 112.082 21.768 112.082 26.5479C112.082 31.1142 113.614 34.0087 117.333 34.0087C119.52 34.0087 121.096 33.4416 122.407 32.521V36.7706Z" fill="black"/>
<path d="M107 37.7001H101.093L93.3893 27.0354V37.7001H88.1821V15.627H93.3893V25.9822L100.747 15.627H105.998L98.6405 25.9822L107 37.7001Z" fill="black"/>
<path fill-rule="evenodd" clip-rule="evenodd" d="M72.1403 28.5217H84.683V25.7598C84.683 18.0781 81.3098 15.1836 76.1027 15.1836C69.7613 15.1836 66.7417 20.0593 66.7417 26.7246C66.7417 34.4064 70.5053 38.1331 77.1559 38.1331C80.4776 38.1331 82.9301 37.2567 84.462 36.2035V31.9465C82.8417 33.0439 80.1314 34.0087 77.5904 34.0087C73.7974 34.0087 72.3244 32.219 72.1403 28.5217ZM72.1329 24.6624C72.2507 21.1714 73.5249 19.308 76.0143 19.308C78.5994 19.308 79.3875 21.4586 79.3875 24.2279V24.6624H72.1329Z" fill="black"/>
<path fill-rule="evenodd" clip-rule="evenodd" d="M63.1483 33.5682H65.4683V42.7451H60.6589V37.7001H48.9706V42.7451H44.1538V33.5682H45.7742C47.6154 29.8857 47.9616 22.911 47.9616 17.5124V15.627H63.1483V33.5682ZM50.5909 33.5682H57.9413V19.7514H52.4321V20.4069C52.4321 24.2293 52.0344 30.2392 50.5909 33.5682Z" fill="black"/>
<path d="M36.7594 24.3545V15.627H41.9664V37.7001H36.7594V28.479H29.7993V37.7001H24.5923V15.627H29.7993V24.3545H36.7594Z" fill="black"/>
</svg>
