<svg width="182" height="20" viewBox="0 0 182 20" fill="none" xmlns="http://www.w3.org/2000/svg">
<path d="M153.783 0.615845H149.781V18.65H154.488L160.447 6.45151H160.539L160.263 18.65H164.266V0.615845H159.558L153.599 12.8082H153.508L153.783 0.615845ZM110.01 9.72488V9.51035C110.01 5.65464 112.578 4.12827 116.765 4.12827C120.958 4.12827 123.551 5.65464 123.551 9.51035V9.72488C123.551 13.5745 120.958 15.1315 116.765 15.1315C112.547 15.1008 110.01 13.5438 110.01 9.72488ZM105.271 9.9701C105.271 15.4686 109.826 19.0424 116.765 19.0424C123.704 19.0424 128.289 15.4993 128.289 9.9701V9.26514C128.289 3.76048 123.704 0.248047 116.765 0.248047C109.826 0.248047 105.271 3.76048 105.271 9.26514V9.9701ZM181.509 0.615845H170.046L169.893 10.6076C169.831 13.6664 169.372 14.733 167.723 14.733H166.681V18.65H167.845C172.277 18.65 173.558 16.8724 173.681 10.6076L173.773 4.06699H177.5V18.65H181.472V0.615845H181.509ZM81.4014 18.65H85.5268L85.3429 6.69671H85.4349L89.9281 18.65H94.0535L98.4854 6.69671H98.5774L98.3935 18.65H102.525V0.615845H96.8365L92.0367 13.9423H91.9448L87.0838 0.615845H81.4014V18.65ZM140.947 15.1621H135.259V11.7723H140.947C142.29 11.7723 142.872 12.3485 142.872 13.4825C142.872 14.6104 142.29 15.1621 140.947 15.1621ZM131.011 0.615845V18.65H140.788C144.368 18.65 147.028 17.3321 147.028 13.4825C147.028 9.63294 144.398 8.34565 140.788 8.34565H135.289V4.15893H146.415V0.615845H131.011Z" fill="#FA6400"/>
<path d="M22.1622 14.1275L17.9754 12.3192C16.6636 14.6731 14.5243 15.1941 11.9252 15.1941C7.64652 15.1941 5.47656 13.3 5.47656 9.75689V9.5117C5.47656 5.96248 7.64652 4.06833 11.9252 4.06833C14.5243 4.06833 16.6636 4.55873 17.9754 6.94326L22.1622 5.14107C20.1761 1.04016 16.1426 0.21875 11.9252 0.21875C5.10874 0.21875 0.830078 3.73119 0.830078 9.29715V9.97144C0.830078 15.5619 5.10874 19.0437 11.9252 19.0437C16.1426 19.0131 20.1761 18.2223 22.1622 14.1275ZM62.0556 0.617191H57.6176V18.6514H62.5399L73.0282 6.08506H73.1201L73.0588 18.6514H77.4908V0.617191H72.5684L62.0801 13.1774H61.9882L62.0556 0.617191ZM28.5802 0.617191H24.5773V18.6514H29.2851L35.2434 6.45286H35.3353L35.0595 18.6514H39.0685V0.617191H34.3607L28.427 12.8096H28.335L28.5802 0.617191ZM46.2773 4.16028V18.6207H50.4394V4.16028H55.2637V0.617191H41.453V4.16028H46.2773Z" fill="#6E00BE"/>
</svg>
