<svg width="175" height="30" viewBox="0 0 175 30" fill="none" xmlns="http://www.w3.org/2000/svg">
<path d="M52.3377 11.6727L45.2664 1.69189H34.8344L46.5344 18.285L37.0515 29.4093H48.7126L71.4591 1.69189H60.1014L52.3377 11.6727ZM23.9357 11.9761V11.5171C31.007 10.7936 34.1031 7.08291 34.2976 1.69189H22.0297C22.1387 8.23423 18.6224 8.84102 14.4605 8.84102H10.9054V1.69189H0.660156V22.8748H10.9054V15.15H14.8417C19.3148 15.15 22.7921 15.6479 22.6754 22.8748H34.6788C34.4921 16.4102 30.8203 12.7773 23.9357 11.9761ZM91.4673 1.69189H72.5482V22.8748H82.7935V7.3085H87.9122C92.8831 7.3085 93.84 8.95771 93.84 13.5086V22.8748H104.085V13.2363C104.085 5.74487 101.184 1.69189 91.4673 1.69189ZM157.49 1.69189H142.312V29.4093H152.558V22.8748H157.109C167.471 22.8748 174.309 18.744 174.309 12.3572C174.309 5.97047 167.587 1.69189 157.49 1.69189ZM156.992 17.5615H152.558V6.96622H156.992C161.348 6.96622 164.102 8.84101 164.102 12.2405C164.102 15.3367 161.317 17.5615 156.992 17.5615ZM123.012 0.890625C112.876 0.890625 105.198 5.90046 105.198 12.435C105.198 18.9696 113.109 23.676 123.541 23.676C131.764 23.676 139.52 20.2376 141.208 15.9124H130.535C129.049 17.9739 125.953 19.1641 123.541 19.1641C119.722 19.1641 116.548 17.2504 115.785 14.0375H141.317C141.628 6.74061 133.639 0.890625 123.004 0.890625H123.012ZM116.166 9.56448C117.427 6.77951 120.219 5.4026 123.199 5.4026C126.528 5.4026 129.204 6.62393 130.426 9.56448H116.166Z" fill="black"/>
</svg>
