<svg width="182" height="55" viewBox="0 0 182 55" fill="none" xmlns="http://www.w3.org/2000/svg">
<path d="M121.935 1.39724C108.394 -0.70157 78.8347 2.30067 58.0725 18.4521C57.6208 18.8047 57.1305 19.4988 57.3674 20.5069L58.0504 22.9197C58.1771 23.3549 58.5462 23.6523 58.9759 23.7129C59.1411 23.735 59.3174 23.7239 59.4882 23.6633C80.2559 15.9732 102.908 17.1355 115.093 20.3471C116.872 20.8153 118.685 19.6751 119.384 17.9674L124.248 4.95586C124.728 3.4575 123.885 1.70022 121.935 1.39724Z" fill="#5EB848"/>
<path d="M173.16 38.2793V36.0098H169.53V38.2793C164.859 38.7476 161.879 41.0061 161.879 44.9724C161.879 49.0158 164.859 51.2743 169.53 51.7371V54.0397H173.16V51.7371C177.799 51.2743 181.17 49.0158 181.17 44.9724C181.17 41.0061 177.799 38.7476 173.16 38.2793ZM26.018 39.8769C25.0099 38.7586 23.6107 38.2077 22.0132 38.2077C18.2838 38.2077 15.4137 40.4387 15.4137 44.9999C15.4137 49.5887 18.3774 51.8197 22.0132 51.8197C23.5391 51.8197 24.9768 51.2302 26.018 50.0459V51.5608H30.166V38.4666H26.018V39.8769ZM54.4813 41.8379C56.1394 41.8379 57.2026 42.7193 57.3568 43.8817H61.5049C61.3231 40.1523 58.0565 38.2077 54.4813 38.2077C50.3058 38.2077 47.3255 40.6426 47.3255 44.9999C47.3255 49.3793 50.3058 51.8197 54.4813 51.8197C58.0565 51.8197 61.3231 49.8751 61.5049 46.1402H57.3568C57.2026 47.3081 56.1394 48.1895 54.4813 48.1895C52.5092 48.1895 51.4736 47.0216 51.4736 44.9999C51.4736 43.0003 52.5092 41.8379 54.4813 41.8379ZM70.5502 38.2077C66.4241 38.2077 63.1575 40.4387 63.1575 44.9999C63.1575 49.5887 66.4241 51.8197 70.5502 51.8197C74.6486 51.8197 77.9153 49.5887 77.9153 44.9999C77.9153 40.4332 74.6486 38.2077 70.5502 38.2077ZM152.85 38.2022C148.724 38.2022 145.457 40.4332 145.457 44.9999C145.457 49.5887 148.724 51.8197 152.85 51.8197C156.948 51.8197 160.215 49.5887 160.215 44.9999C160.215 40.4332 156.948 38.2022 152.85 38.2022ZM0.490723 42.0969H5.421V51.5608H9.56904V42.0969H14.4938V38.4666H0.490723V42.0969ZM42.4669 38.4666L39.0625 43.0554H37.3108V38.4666H33.1572V51.5608H37.3108V46.658H39.663L42.4669 51.5608H46.951L42.7423 44.1516L46.951 38.4666H42.4669ZM92.6124 44.8567C93.4222 44.2508 93.8464 43.3363 93.8464 42.207C93.8464 40.0366 92.2984 38.4666 89.3899 38.4666H79.9039V51.5608H89.9132C92.8218 51.5608 94.3697 49.9853 94.3697 47.8149C94.3697 46.4818 93.7362 45.4572 92.6124 44.8567ZM100.859 48.1895V38.4666H96.7109V51.5608H103.586L107.916 41.7057V51.5608H112.064V38.4666H105.128L100.859 48.1895ZM124.155 42.7634C124.155 44.8842 118.707 44.8622 118.707 42.7634V38.4666H114.559V43.7825C114.559 49.3628 123.819 48.0958 124.155 47.1263V51.5608H128.303V38.4666H124.155V42.7634ZM140.604 38.4611L137.194 43.0554H135.442V38.4611H131.294V51.5608H135.442V46.658H137.8L140.599 51.5608H145.088L140.874 44.1516L145.088 38.4611H140.604ZM89.0869 48.3106H84.0354V46.4267H89.0869C89.7645 46.4267 90.2382 46.7131 90.2382 47.3411C90.2382 47.9966 89.7645 48.3106 89.0869 48.3106ZM22.8064 48.1895C20.8343 48.1895 19.5618 47.2034 19.5618 44.9999C19.5618 42.824 20.8343 41.8379 22.8064 41.8379C24.7455 41.8379 26.018 42.824 26.018 44.9999C26.018 47.2034 24.7455 48.1895 22.8064 48.1895ZM70.5502 48.1895C68.578 48.1895 67.3055 47.2034 67.3055 44.9999C67.3055 42.824 68.578 41.8379 70.5502 41.8379C72.4947 41.8379 73.7672 42.824 73.7672 44.9999C73.7672 47.2034 72.4947 48.1895 70.5502 48.1895ZM152.85 48.1895C150.878 48.1895 149.605 47.2034 149.605 44.9999C149.605 42.8185 150.878 41.8324 152.85 41.8324C154.794 41.8324 156.067 42.8185 156.067 44.9999C156.067 47.2034 154.794 48.1895 152.85 48.1895ZM173.16 48.0848V41.9371C175.336 42.2235 176.631 43.0774 176.631 44.9724C176.631 46.917 175.336 47.7983 173.16 48.0848ZM169.53 48.0848C167.321 47.7983 166.027 46.917 166.027 44.9724C166.027 43.0774 167.321 42.2235 169.53 41.9371V48.0848ZM84.0354 41.6066H88.6682C89.3733 41.6066 89.8195 41.893 89.8195 42.5486C89.8195 43.1766 89.3733 43.441 88.6682 43.441H84.0354V41.6066Z" fill="#333333"/>
</svg>
