<svg width="181" height="30" viewBox="0 0 181 30" fill="none" xmlns="http://www.w3.org/2000/svg">
<path d="M126.166 5.43344C126.166 6.7755 125.18 7.88597 123.838 7.88597H121.504C120.156 7.88003 119.17 6.77549 119.17 5.42749V3.49754C119.17 1.99514 120.566 0.890625 122.027 0.890625H124.004C125.465 0.890625 126.166 1.99514 126.166 3.49754V5.43344Z" fill="#FF3E80"/>
<path fill-rule="evenodd" clip-rule="evenodd" d="M13.1658 6.20652V14.0748H13.0887C12.4948 11.1531 10.9568 9.33008 7.51853 9.33008H6.9247C2.77381 9.33008 0.321289 12.2577 0.321289 17.6319V20.797C0.321289 26.2543 2.53626 29.2591 6.68121 29.2591H7.32255C10.6005 29.2591 12.2989 27.2401 13.0887 24.6747H13.1658V26.8066C13.1658 28.1546 14.1576 29.2591 15.4996 29.2591H17.8334C19.1754 29.2591 20.1612 28.1486 20.1612 26.8066V6.20652C20.1612 4.70413 19.1398 3.59961 17.673 3.59961H15.7015C14.2407 3.59961 13.1658 4.70413 13.1658 6.20652ZM6.9247 19.3005C6.9247 21.6699 7.91638 22.6616 10.2858 22.6616C12.6552 22.6616 13.6469 21.6699 13.6469 19.3005C13.6469 16.9311 12.6552 15.9394 10.2858 15.9394C7.91638 15.9394 6.9247 16.9311 6.9247 19.3005Z" fill="#FF3E80"/>
<path fill-rule="evenodd" clip-rule="evenodd" d="M21.688 18.0712V20.5237C21.688 25.8623 25.0847 29.259 30.8152 29.259H32.472C38.2024 29.259 41.5992 25.8623 41.5992 20.5237V18.0712C41.5992 12.7386 38.2024 9.33594 32.472 9.33594H30.8152C25.0847 9.33594 21.688 12.7386 21.688 18.0712ZM31.6466 22.6556C29.2712 22.6556 28.2855 21.6698 28.2855 19.2945C28.2855 16.9251 29.2712 15.9334 31.6466 15.9334C34.016 15.9334 35.0076 16.9251 35.0076 19.2945C35.0076 21.6698 34.016 22.6556 31.6466 22.6556Z" fill="#FF3E80"/>
<path d="M126.166 26.8054V12.025C126.166 10.5166 125.097 9.41211 123.636 9.41211H121.659C120.198 9.41211 119.17 10.5166 119.17 12.025V26.7995C119.17 28.1475 120.156 29.258 121.504 29.258H123.838C125.18 29.258 126.166 28.1475 126.166 26.8054Z" fill="#FF3E80"/>
<path d="M97.8215 12.3882C97.3464 11.0105 98.2253 9.33594 99.8346 9.33594H101.396C102.637 9.33594 103.843 9.33593 104.484 11.1649L107.228 19.1579C107.691 20.5 107.833 21.5332 107.822 22.3349H107.881C107.869 21.5332 108.012 20.5 108.475 19.1579L111.218 11.1649C111.86 9.33593 113.065 9.33594 114.306 9.33594H115.868C117.477 9.33594 118.356 11.0105 117.881 12.3882L117.62 13.2077L113.326 25.7079C112.554 28.0238 110.909 29.259 108.469 29.259H107.234C104.793 29.259 103.148 28.0238 102.376 25.7079L97.8215 12.3882Z" fill="#FF3E80"/>
<path fill-rule="evenodd" clip-rule="evenodd" d="M89.4601 14.0747H89.5433V11.8478C89.5433 10.5058 90.5291 9.34186 91.8711 9.34186H94.2048C95.5528 9.34186 96.5386 10.5058 96.5386 11.8538V26.7293C96.5386 28.0713 95.5528 29.1759 94.2048 29.1818H91.8711C90.5291 29.1818 89.5433 28.0773 89.5433 26.7293V24.6746H89.4661C88.6763 27.24 86.972 29.259 83.6941 29.259H83.0586C78.9078 29.259 76.6987 26.2542 76.6987 20.8028V17.6377C76.6987 12.2576 79.1453 9.33594 83.2962 9.33594H83.89C87.3283 9.33594 88.8663 11.1531 89.4601 14.0747ZM83.3318 19.3123C83.3318 21.6876 84.3176 22.6734 86.6929 22.6734C89.0623 22.6734 90.048 21.6876 90.048 19.3123C90.048 16.9429 89.0623 15.9572 86.6929 15.9572C84.3176 15.9572 83.3318 16.9429 83.3318 19.3123Z" fill="#FF3E80"/>
<path fill-rule="evenodd" clip-rule="evenodd" d="M174.011 14.0747H173.928C173.334 11.1531 171.796 9.33594 168.352 9.33594H167.758C163.613 9.33594 161.16 12.2576 161.16 17.6377V20.8028C161.16 26.2542 163.375 29.259 167.52 29.259H168.161C171.439 29.259 173.138 27.24 173.928 24.6746H174.011V26.7293C174.011 28.0773 174.996 29.1818 176.339 29.1818H178.672C180.014 29.1759 181 28.0713 181 26.7293V11.8538C181 10.5058 180.014 9.34186 178.672 9.34186H176.339C174.996 9.34186 174.011 10.5058 174.011 11.8478V14.0747ZM171.154 22.6734C168.785 22.6734 167.793 21.6876 167.793 19.3123C167.793 16.9429 168.785 15.9572 171.154 15.9572C173.524 15.9572 174.516 16.9429 174.516 19.3123C174.516 21.6876 173.524 22.6734 171.154 22.6734Z" fill="#FF3E80"/>
<path d="M70.4756 6.05806C70.4756 4.716 69.4423 3.59961 68.1478 3.59961H66.0575C64.7332 3.59961 63.6465 4.716 63.6465 6.05806V9.33008H62.5657C61.1049 9.33008 60.1191 10.393 60.1191 11.6995V13.6057C60.1191 14.9121 61.0277 15.9751 62.7261 15.9751H63.6465L63.6762 20.8029C63.6762 26.2543 65.8912 29.2591 70.0361 29.2591H72.934C74.4364 29.2591 75.541 28.2793 75.541 26.9372L75.5231 24.9419C75.5231 23.6058 74.383 22.6616 72.9162 22.6616C70.725 22.6616 70.5172 21.7709 70.4578 19.7578L70.4756 15.9751H72.9162C74.6146 15.9751 75.5231 14.9121 75.5231 13.6057V11.6995C75.5231 10.393 74.5374 9.33008 73.0706 9.33008H70.4756V6.05806Z" fill="#FF3E80"/>
<path d="M152.634 3.59961C153.928 3.59961 154.961 4.716 154.961 6.05806V9.33008H157.556C159.023 9.33008 160.009 10.393 160.009 11.6995V13.6057C160.009 14.9121 159.1 15.9751 157.402 15.9751H154.961L154.944 19.7578C155.003 21.7709 155.211 22.6616 157.402 22.6616C158.869 22.6616 160.009 23.6058 160.009 24.9419L160.027 26.9372C160.027 28.2793 158.922 29.2591 157.42 29.2591H154.528C150.377 29.2591 148.162 26.2543 148.162 20.8029L148.132 15.9751H147.212C145.513 15.9751 144.605 14.9121 144.605 13.6057V11.6995C144.605 10.393 145.591 9.33008 147.052 9.33008H148.132V6.05806C148.132 4.716 149.225 3.59961 150.543 3.59961H152.634Z" fill="#FF3E80"/>
<path d="M48.338 19.8711C44.9116 19.0694 42.7856 17.6501 42.7856 14.6275C42.7856 11.1536 45.4757 9.29492 50.0245 9.29492H53.0352H56.3191C58.0175 9.29492 58.926 10.3698 58.926 11.6821V13.5468C58.926 14.8532 58.0175 15.928 56.3191 15.928L52.4236 15.9102C51.6694 15.9102 51.2596 16.1596 51.1171 16.7356C50.8321 17.8995 52.4889 18.2915 54.1813 18.6834C57.5899 19.4791 59.7396 20.9043 59.7396 23.9269C59.7396 27.4068 57.0495 29.2595 52.5067 29.2595H49.496H45.743C44.0505 29.2595 43.142 28.1847 43.142 26.8783V25.0077C43.142 23.7013 44.0505 22.6265 45.743 22.6265L50.1017 22.6443C50.8558 22.6443 51.2656 22.3949 51.4081 21.8188C51.6931 20.6549 50.0304 20.263 48.338 19.8711Z" fill="#FF3E80"/>
<path d="M132.87 19.8711C129.437 19.0694 127.317 17.6501 127.317 14.6275C127.317 11.1536 130.007 9.29492 134.55 9.29492H137.567H140.851C142.549 9.29492 143.458 10.3698 143.458 11.6821V13.5468C143.458 14.8532 142.549 15.928 140.851 15.928L136.955 15.9102C136.201 15.9102 135.791 16.1596 135.649 16.7356C135.364 17.8995 137.021 18.2915 138.707 18.6834C142.116 19.4791 144.271 20.9043 144.271 23.9269C144.271 27.4068 141.581 29.2595 137.033 29.2595H134.022H130.275C128.576 29.2595 127.668 28.1847 127.668 26.8783V25.0077C127.668 23.7013 128.576 22.6265 130.275 22.6265L134.627 22.6443C135.388 22.6443 135.797 22.3949 135.94 21.8188C136.225 20.6549 134.556 20.263 132.87 19.8711Z" fill="#FF3E80"/>
</svg>
