<svg width="180" height="41" viewBox="0 0 180 41" fill="none" xmlns="http://www.w3.org/2000/svg">
<path d="M57.9849 20.9031L53.0946 10.4219H48.4473L55.646 25.7944L50.3912 36.1237H55.0689L67.9174 10.4219H63.1789L57.9849 20.9031Z" fill="black"/>
<path d="M94.7384 0.517578H90.729V28.7713H94.7384V0.517578Z" fill="black"/>
<path d="M77.6375 13.8835C79.9156 13.8835 81.9204 15.281 82.8012 17.1646H86.9625C85.869 13.124 82.2241 10.0859 77.6375 10.0859C72.3524 10.0859 68.1606 14.3696 68.1606 19.6254C68.1606 24.9116 72.3524 29.1648 77.6375 29.1648C82.1633 29.1648 85.869 26.066 86.9625 21.8735H82.8012C81.9204 23.8483 79.9156 25.2458 77.6375 25.2458C74.6001 25.2458 71.9879 22.6634 71.9879 19.6254C71.9879 16.4051 74.5697 13.8835 77.6375 13.8835Z" fill="black"/>
<path d="M103.243 10.4219H99.2036V28.7716H103.243V10.4219Z" fill="black"/>
<path d="M101.239 3.12891C99.7809 3.12891 98.7178 4.2226 98.7178 5.6201C98.7178 7.04798 99.7809 8.2632 101.239 8.2632C102.666 8.2632 103.76 7.04798 103.76 5.6201C103.76 4.2226 102.666 3.12891 101.239 3.12891Z" fill="black"/>
<path d="M154.06 4.55664H150.081V24.79C150.081 27.2204 151.964 28.8002 154.181 28.8002H159.952V24.8204H155.123C154.515 24.8204 154.029 24.3343 154.029 23.7267V14.3999H159.952V10.4201H154.06V4.55664Z" fill="black"/>
<path d="M116.578 10.0547C113.874 10.0547 111.505 10.9357 109.652 12.8193C108.043 14.6421 107.131 16.9206 107.131 19.503C107.131 22.1461 108.073 24.6373 109.774 26.3689C111.566 28.0702 113.966 29.1639 116.608 29.1639C119.251 29.1639 121.681 28.0703 123.503 26.2778C124.323 25.5183 124.84 24.6373 125.326 23.574L120.618 23.6955C119.585 24.7588 118.218 25.3056 116.578 25.3056C114.968 25.3056 113.571 24.7892 112.568 23.7259C111.9 23.0575 111.384 22.2372 111.08 21.265H125.964V20.9612C125.994 20.5663 126.055 20.0195 126.055 19.5637C126.085 14.0649 121.985 10.0547 116.578 10.0547ZM111.202 17.4979C111.991 15.3409 114.026 13.8522 116.578 13.8522C119.099 13.8522 121.104 15.3105 121.924 17.4979H111.202Z" fill="black"/>
<path d="M138.356 10.0547C136.655 10.0547 135.046 10.5408 133.831 11.6952V10.4192H129.852V18.9865V28.7994H133.831V18.227C133.831 15.8877 135.592 13.8218 137.901 13.8218C140.331 13.8218 142.092 15.827 142.092 18.227V28.7994H146.072V17.9232C146.072 13.3661 142.913 10.0547 138.356 10.0547Z" fill="black"/>
<path d="M174.411 17.5908H168.67C167.819 17.5908 167.091 16.8616 167.091 16.011C167.091 15.13 167.789 14.4008 168.67 14.4008H178.937V10.3906H168.67C167.182 10.3906 165.784 10.9679 164.721 12.0312C163.658 13.0945 163.081 14.492 163.081 15.9806C163.081 17.4693 163.658 18.8668 164.721 19.9301C165.784 20.9934 167.182 21.5706 168.67 21.5706H174.411C175.292 21.5706 175.99 22.239 175.99 23.1504C175.99 24.0314 175.261 24.7605 174.411 24.7605H163.81V28.7708H174.411C177.509 28.7708 180 26.2492 180 23.1808C180.03 20.1123 177.509 17.5908 174.411 17.5908Z" fill="black"/>
<path d="M32.8349 0H7.32027C3.28045 0 0 3.28109 0 7.32169V32.8412C0 36.8818 3.28045 40.1629 7.32027 40.1629H32.8349C36.8747 40.1629 40.1552 36.8818 40.1552 32.8412V7.32169C40.1552 3.28109 36.8747 0 32.8349 0ZM38.8187 32.8412C38.8187 36.1223 36.1457 38.7958 32.8653 38.7958H7.35063C4.07018 38.7958 1.39722 36.1223 1.39722 32.8412V7.32169C1.39722 4.0406 4.07018 1.36712 7.35063 1.36712H32.8653C36.1457 1.36712 38.8187 4.0406 38.8187 7.32169V32.8412Z" fill="black"/>
<path d="M32.0758 10.4512H23.4494C23.085 10.4512 22.599 10.6942 22.4167 11.0284L12.7576 25.9755C12.545 26.2794 12.545 26.7958 12.7576 27.0996L16.9796 33.7833C17.1923 34.0871 17.496 34.0871 17.7086 33.7833L32.3796 11.0284C32.5922 10.7246 32.4403 10.4512 32.0758 10.4512Z" fill="black"/>
<path d="M14.094 19.0792L19.2881 11.0284C19.5007 10.7246 19.3489 10.4512 18.9844 10.4512H8.59624C8.23175 10.4512 8.07987 10.6942 8.2925 11.0284L13.3651 19.0792C13.5777 19.383 13.8814 19.383 14.094 19.0792Z" fill="black"/>
</svg>
