<svg width="261" height="71" viewBox="0 0 261 71" fill="none" xmlns="http://www.w3.org/2000/svg">
<path d="M100.591 20.146C102.067 18.2175 103.896 16.7175 106.08 15.6407C108.262 14.5657 110.62 14.0273 113.15 14.0273C116.251 14.0273 118.762 14.807 120.686 16.3682C122.609 17.9294 123.694 20.0559 123.943 22.7515H116.946C116.623 21.736 116.034 20.9617 115.178 20.4287C114.322 19.8975 113.273 19.631 112.034 19.631C110.074 19.631 108.374 20.2756 106.936 21.5631C105.496 22.8524 104.578 24.572 104.181 26.7238C104.057 27.3864 103.996 27.9644 103.996 28.4614C103.996 30.1162 104.48 31.4289 105.447 32.3976C106.415 33.3682 107.741 33.8526 109.428 33.8526C110.645 33.8526 111.779 33.5807 112.833 33.0369C113.887 32.4931 114.775 31.7134 115.495 30.696H122.49C121.251 33.3916 119.376 35.5128 116.871 37.0614C114.365 38.6117 111.561 39.3842 108.461 39.3842C106.227 39.3842 104.279 38.9718 102.619 38.1435C100.956 37.317 99.6787 36.1466 98.7849 34.6323C97.8931 33.1197 97.4453 31.3587 97.4453 29.3473C97.4453 28.4506 97.5322 27.5755 97.7061 26.7238C98.152 24.2641 99.1137 22.0727 100.591 20.146Z" fill="#161616"/>
<path d="M141.058 28.1415C141.058 26.9837 140.705 26.0725 139.998 25.4099C139.292 24.7491 138.392 24.4177 137.3 24.4177C136.036 24.4177 134.882 24.8499 133.839 25.7124C132.798 26.5749 132.14 27.7634 131.868 29.2759C131.792 29.7027 131.755 30.0916 131.755 30.4463C131.755 31.606 132.11 32.5207 132.816 33.1941C133.523 33.8694 134.409 34.2061 135.477 34.2061C136.743 34.2061 137.895 33.7686 138.938 32.8934C139.979 32.0183 140.65 30.8245 140.947 29.3119C141.022 28.8852 141.058 28.4962 141.058 28.1415ZM127.588 23.9208C128.679 22.3848 129.994 21.2018 131.532 20.3753C133.07 19.547 134.695 19.1328 136.406 19.1328C137.871 19.1328 139.099 19.4173 140.091 19.9845C141.083 20.5517 141.803 21.2972 142.251 22.2191L142.77 19.4173H149.134L145.449 39.2065H139.088L139.645 36.4047C138.851 37.3267 137.846 38.0721 136.631 38.6393C135.414 39.2065 134.075 39.4892 132.612 39.4892C131.148 39.4892 129.852 39.1705 128.722 38.5331C127.594 37.8939 126.719 36.9899 126.099 35.8195C125.478 34.6491 125.168 33.2716 125.168 31.687C125.168 30.9307 125.244 30.1276 125.391 29.2759C125.765 27.243 126.496 25.4585 127.588 23.9208Z" fill="#161616"/>
<path d="M154.289 38.7456C152.987 38.2486 151.963 37.5571 151.218 36.6712C150.474 35.7835 150.102 34.7625 150.102 33.6029C150.102 33.4372 150.126 33.1419 150.177 32.717H156.316C156.267 33.4498 156.495 34.0351 157.006 34.4726C157.514 34.9102 158.239 35.1281 159.182 35.1281C159.976 35.1281 160.633 34.9858 161.155 34.7031C161.674 34.4186 161.935 34.017 161.935 33.4967C161.935 32.9997 161.657 32.6035 161.098 32.3082C160.541 32.0129 159.615 31.6528 158.326 31.226C156.987 30.8011 155.864 30.3815 154.957 29.9674C154.052 29.555 153.278 28.9572 152.632 28.1775C151.987 27.396 151.664 26.4147 151.664 25.2334C151.664 24.0756 152.023 23.0276 152.745 22.0949C153.463 21.1604 154.474 20.4329 155.777 19.9125C157.079 19.3939 158.587 19.1328 160.299 19.1328C162.011 19.1328 163.5 19.3993 164.764 19.9305C166.03 20.4635 167.008 21.2018 167.704 22.1471C168.399 23.0943 168.747 24.1584 168.747 25.3397L168.709 25.8709H162.94C162.99 25.1614 162.767 24.5942 162.272 24.1693C161.775 23.7443 161.068 23.53 160.15 23.53C159.43 23.53 158.84 23.6723 158.381 23.9568C157.922 24.2395 157.693 24.6302 157.693 25.1272C157.693 25.6476 157.998 26.0797 158.606 26.4219C159.213 26.764 160.161 27.1475 161.452 27.5743C162.791 27.9992 163.902 28.4188 164.783 28.833C165.663 29.2471 166.421 29.8251 167.054 30.5706C167.685 31.3161 168.002 32.2434 168.002 33.3544C168.002 34.6311 167.598 35.7313 166.793 36.6532C165.986 37.5751 164.881 38.2792 163.481 38.7636C162.079 39.248 160.484 39.4892 158.699 39.4892C157.06 39.4892 155.59 39.2426 154.289 38.7456Z" fill="#161616"/>
<path d="M192.1 20.8714C193.277 21.9842 193.866 23.5309 193.866 25.5171C193.866 26.1797 193.793 26.8892 193.643 27.6454L191.486 39.2075H185.158L187.168 28.4611C187.242 28.0596 187.28 27.7049 187.28 27.397C187.28 26.4048 186.989 25.6359 186.405 25.0921C185.821 24.5483 185.009 24.2764 183.968 24.2764C182.726 24.2764 181.685 24.6438 180.842 25.3766C179.998 26.1095 179.452 27.1377 179.204 28.4611V28.3909L177.196 39.2075H170.832L175.707 12.9629H182.07L180.395 22.0418C181.215 21.1685 182.218 20.4752 183.41 19.9674C184.6 19.4597 185.889 19.2058 187.28 19.2058C189.313 19.2058 190.921 19.7604 192.1 20.8714Z" fill="#161616"/>
<path d="M210.686 33.3905L205.887 28.0354C204.82 28.5071 203.988 29.0941 203.393 29.791C202.798 30.4879 202.499 31.2513 202.499 32.0778C202.499 32.8575 202.817 33.4914 203.45 33.9757C204.081 34.4601 204.956 34.7032 206.072 34.7032C207.735 34.7032 209.273 34.2656 210.686 33.3905ZM218.129 33.3545L223.34 39.2066H215.933L213.925 36.972C211.221 38.7223 208.181 39.5974 204.808 39.5974C202.078 39.5974 199.926 39.023 198.35 37.876C196.774 36.7289 195.988 35.175 195.988 33.2122C195.988 31.345 196.627 29.6794 197.904 28.2118C199.181 26.7461 200.888 25.5757 203.021 24.7005C202.252 23.5661 201.868 22.4551 201.868 21.3675C201.868 19.9252 202.263 18.6431 203.059 17.5195C203.852 16.3959 204.956 15.528 206.371 14.9122C207.784 14.2981 209.384 13.9902 211.17 13.9902C213.403 13.9902 215.121 14.4764 216.324 15.4452C217.528 16.4139 218.129 17.6438 218.129 19.1329C218.129 19.4408 218.093 19.7956 218.017 20.1971H212.064C212.088 20.1035 212.102 19.9612 212.102 19.7721C212.102 19.322 211.939 18.9727 211.618 18.726C211.295 18.4775 210.885 18.3532 210.39 18.3532C209.719 18.3532 209.148 18.5603 208.678 18.9727C208.205 19.3868 207.971 19.9126 207.971 20.5518C207.971 21.3801 208.466 22.3849 209.458 23.5661L214.707 29.4885L215.376 28.4963L217.161 26.2617H223.563L221.218 29.3462C220.126 30.9776 219.098 32.3137 218.129 33.3545Z" fill="#161616"/>
<path d="M236.964 14.313L232.348 39.2089H225.984L230.6 14.313H236.964Z" fill="#161616"/>
<path d="M260.365 14.313L259.509 19.0991H252.55L248.828 39.2089H242.464L246.187 19.0991H239.266L240.157 14.313H260.365Z" fill="#161616"/>
<path d="M106.257 47.8809V57.5396H104.923V50.337L101.556 57.5396H100.618L97.2344 50.3244V57.5396H95.9023V47.8809H97.3364L101.087 55.865L104.836 47.8809H106.257Z" fill="#161616"/>
<path d="M113.349 56.2254C113.769 56.0111 114.109 55.6906 114.368 55.2639C114.626 54.8353 114.755 54.3131 114.755 53.6991C114.755 53.0851 114.628 52.5647 114.375 52.1361C114.12 51.7094 113.789 51.3906 113.379 51.18C112.969 50.9711 112.523 50.8666 112.045 50.8666C111.558 50.8666 111.11 50.9711 110.706 51.18C110.3 51.3906 109.976 51.7094 109.733 52.1361C109.487 52.5647 109.366 53.0851 109.366 53.6991C109.366 54.3239 109.485 54.8497 109.725 55.2765C109.963 55.705 110.283 56.0237 110.683 56.2326C111.084 56.4415 111.524 56.5477 112.002 56.5477C112.48 56.5477 112.93 56.4397 113.349 56.2254ZM109.959 57.1744C109.349 56.8502 108.869 56.3857 108.524 55.786C108.178 55.1864 108.004 54.4914 108.004 53.6991C108.004 52.9176 108.182 52.2279 108.539 51.6265C108.894 51.0269 109.379 50.5659 109.995 50.2454C110.611 49.9249 111.299 49.7646 112.061 49.7646C112.822 49.7646 113.51 49.9249 114.126 50.2454C114.74 50.5659 115.225 51.0251 115.582 51.6193C115.94 52.2153 116.117 52.9086 116.117 53.6991C116.117 54.4914 115.934 55.1864 115.567 55.786C115.203 56.3857 114.706 56.8502 114.082 57.1744C113.457 57.5003 112.763 57.6641 112.002 57.6641C111.25 57.6641 110.57 57.5003 109.959 57.1744Z" fill="#161616"/>
<path d="M124.161 50.596C124.768 51.1578 125.07 51.9699 125.07 53.0305V57.5393H123.751V53.2123C123.751 52.4488 123.551 51.8654 123.15 51.4603C122.752 51.0569 122.204 50.8535 121.51 50.8535C120.808 50.8535 120.248 51.0623 119.834 51.4819C119.419 51.9014 119.211 52.5101 119.211 53.3096V57.5393H117.879V49.8901H119.211V50.9795C119.475 50.5888 119.834 50.2863 120.288 50.072C120.741 49.8577 121.242 49.7515 121.79 49.7515C122.765 49.7515 123.557 50.0324 124.161 50.596Z" fill="#161616"/>
<path d="M132.863 51.9056C132.638 51.5581 132.332 51.2916 131.946 51.1115C131.561 50.9297 131.134 50.8378 130.665 50.8378C129.991 50.8378 129.418 51.0431 128.944 51.4519C128.47 51.8624 128.199 52.4296 128.131 53.1553H133.199C133.199 52.6709 133.085 52.255 132.863 51.9056ZM134.531 54.1889H128.116C128.165 54.9415 128.436 55.5304 128.929 55.9535C129.422 56.3767 130.021 56.5891 130.724 56.5891C131.3 56.5891 131.78 56.4613 132.165 56.2056C132.551 55.9499 132.823 55.6078 132.98 55.1792H134.414C134.198 55.9139 133.769 56.5117 133.125 56.9727C132.481 57.4336 131.68 57.6641 130.724 57.6641C129.962 57.6641 129.28 57.5003 128.681 57.1744C128.08 56.8502 127.608 56.3857 127.268 55.786C126.926 55.1864 126.754 54.4914 126.754 53.6991C126.754 52.9086 126.92 52.2153 127.253 51.6193C127.583 51.0251 128.05 50.5659 128.651 50.2454C129.252 49.9249 129.941 49.7646 130.724 49.7646C131.485 49.7646 132.16 49.9213 132.745 50.2382C133.331 50.5551 133.783 50.9891 134.1 51.5437C134.416 52.0965 134.574 52.7231 134.574 53.42C134.574 53.6631 134.561 53.9188 134.531 54.1889Z" fill="#161616"/>
<path d="M143.251 49.8906L138.417 61.1411H137.042L138.623 57.4552L135.387 49.8906H136.866L139.385 56.0885L141.875 49.8906H143.251Z" fill="#161616"/>
<path d="M154.418 52.1929C154.174 51.7661 153.846 51.4384 153.43 51.2097C153.014 50.981 152.559 50.8676 152.06 50.8676C151.563 50.8676 151.108 50.9792 150.698 51.2025C150.288 51.4258 149.961 51.7517 149.717 52.1803C149.473 52.607 149.351 53.1094 149.351 53.6874C149.351 54.2726 149.473 54.7822 149.717 55.2144C149.961 55.6483 150.288 55.9779 150.698 56.2065C151.108 56.4334 151.563 56.5487 152.06 56.5487C152.559 56.5487 153.014 56.4334 153.43 56.2065C153.846 55.9779 154.174 55.6483 154.418 55.2144C154.662 54.7822 154.785 54.278 154.785 53.7C154.785 53.1238 154.662 52.6214 154.418 52.1929ZM148.487 51.6275C148.82 51.0368 149.275 50.5795 149.857 50.2536C150.437 49.9276 151.089 49.7656 151.811 49.7656C152.436 49.7656 153.018 49.9024 153.555 50.1761C154.091 50.4516 154.501 50.8118 154.785 51.2583V47.2104H156.132V57.539H154.785V56.1003C154.52 56.5577 154.131 56.9322 153.613 57.2257C153.095 57.5174 152.491 57.6651 151.797 57.6651C151.083 57.6651 150.437 57.4976 149.857 57.1627C149.275 56.8278 148.82 56.3578 148.487 55.7528C148.155 55.1477 147.988 54.4599 147.988 53.6874C147.988 52.9059 148.155 52.2181 148.487 51.6275Z" fill="#161616"/>
<path d="M164.001 51.9056C163.778 51.5581 163.472 51.2916 163.087 51.1115C162.701 50.9297 162.274 50.8378 161.806 50.8378C161.131 50.8378 160.559 51.0431 160.084 51.4519C159.61 51.8624 159.34 52.4296 159.272 53.1553H164.339C164.339 52.6709 164.226 52.255 164.001 51.9056ZM165.672 54.1889H159.257C159.306 54.9415 159.576 55.5304 160.069 55.9535C160.562 56.3767 161.161 56.5891 161.864 56.5891C162.441 56.5891 162.92 56.4613 163.306 56.2056C163.691 55.9499 163.963 55.6078 164.118 55.1792H165.554C165.339 55.9139 164.91 56.5117 164.266 56.9727C163.621 57.4336 162.82 57.6641 161.864 57.6641C161.103 57.6641 160.421 57.5003 159.82 57.1744C159.221 56.8502 158.749 56.3857 158.407 55.786C158.065 55.1864 157.895 54.4914 157.895 53.6991C157.895 52.9086 158.061 52.2153 158.393 51.6193C158.724 51.0251 159.191 50.5659 159.792 50.2454C160.392 49.9249 161.082 49.7646 161.864 49.7646C162.626 49.7646 163.298 49.9213 163.884 50.2382C164.47 50.5551 164.921 50.9891 165.239 51.5437C165.556 52.0965 165.715 52.7231 165.715 53.42C165.715 53.6631 165.702 53.9188 165.672 54.1889Z" fill="#161616"/>
<path d="M168.803 57.539H167.469V47.2104H168.803V57.539Z" fill="#161616"/>
<path d="M172.407 57.5376H171.075V49.8884H172.407V57.5376ZM171.118 48.3957C170.942 48.2282 170.855 48.0229 170.855 47.7816C170.855 47.5404 170.942 47.3351 171.118 47.1676C171.294 47.0002 171.509 46.9155 171.762 46.9155C172.006 46.9155 172.214 47.0002 172.386 47.1676C172.556 47.3351 172.641 47.5404 172.641 47.7816C172.641 48.0229 172.556 48.2282 172.386 48.3957C172.214 48.5631 172.006 48.646 171.762 48.646C171.509 48.646 171.294 48.5631 171.118 48.3957Z" fill="#161616"/>
<path d="M177.662 56.3676L180.152 49.8906H181.573L178.424 57.5398H176.872L173.723 49.8906H175.157L177.662 56.3676Z" fill="#161616"/>
<path d="M188.505 51.9056C188.28 51.5581 187.974 51.2916 187.589 51.1115C187.203 50.9297 186.776 50.8378 186.308 50.8378C185.635 50.8378 185.061 51.0431 184.586 51.4519C184.114 51.8624 183.842 52.4296 183.774 53.1553H188.841C188.841 52.6709 188.73 52.255 188.505 51.9056ZM190.174 54.1889H183.759C183.808 54.9415 184.08 55.5304 184.573 55.9535C185.064 56.3767 185.663 56.5891 186.366 56.5891C186.943 56.5891 187.422 56.4613 187.81 56.2056C188.195 55.9499 188.465 55.6078 188.622 55.1792H190.056C189.843 55.9139 189.412 56.5117 188.768 56.9727C188.123 57.4336 187.322 57.6641 186.366 57.6641C185.605 57.6641 184.925 57.5003 184.324 57.1744C183.723 56.8502 183.252 56.3857 182.91 55.786C182.568 55.1864 182.398 54.4914 182.398 53.6991C182.398 52.9086 182.563 52.2153 182.895 51.6193C183.228 51.0251 183.693 50.5659 184.294 50.2454C184.894 49.9249 185.586 49.7646 186.366 49.7646C187.128 49.7646 187.802 49.9213 188.388 50.2382C188.974 50.5551 189.425 50.9891 189.743 51.5437C190.06 52.0965 190.219 52.7231 190.219 53.42C190.219 53.6631 190.204 53.9188 190.174 54.1889Z" fill="#161616"/>
<path d="M194.304 50.1134C194.739 49.8721 195.268 49.7515 195.893 49.7515V51.0623H195.542C194.047 51.0623 193.301 51.8348 193.301 53.3798V57.5393H191.969V49.8901H193.301V51.1326C193.535 50.695 193.87 50.3565 194.304 50.1134Z" fill="#161616"/>
<path d="M204.348 49.8906L199.517 61.1411H198.14L199.721 57.4552L196.484 49.8906H197.964L200.482 56.0885L202.973 49.8906H204.348Z" fill="#161616"/>
<path d="M210.777 57.3634C210.29 57.1636 209.904 56.8845 209.621 56.5261C209.338 56.1678 209.181 55.7554 209.152 55.2909H210.528C210.568 55.6726 210.755 55.9841 211.093 56.2254C211.429 56.4685 211.871 56.5891 212.417 56.5891C212.926 56.5891 213.326 56.4829 213.619 56.2686C213.912 56.0543 214.057 55.7842 214.057 55.4583C214.057 55.1234 213.902 54.8749 213.589 54.7111C213.277 54.549 212.793 54.3887 212.14 54.2303C211.544 54.0808 211.059 53.9296 210.683 53.7765C210.307 53.6235 209.984 53.3948 209.715 53.0923C209.447 52.7898 209.313 52.3918 209.313 51.9002C209.313 51.5077 209.436 51.1512 209.68 50.8252C209.923 50.4993 210.269 50.24 210.719 50.0492C211.168 49.8583 211.68 49.7646 212.257 49.7646C213.145 49.7646 213.863 49.9789 214.409 50.4057C214.957 50.8342 215.25 51.4195 215.287 52.1649H213.955C213.927 51.7652 213.759 51.4429 213.451 51.2016C213.143 50.9603 212.731 50.8378 212.213 50.8378C211.733 50.8378 211.354 50.9369 211.07 51.1313C210.787 51.3276 210.645 51.5833 210.645 51.9002C210.645 52.1505 210.732 52.3576 210.902 52.5197C211.072 52.6835 211.287 52.8132 211.546 52.9104C211.805 53.0094 212.164 53.1193 212.623 53.2381C213.2 53.3876 213.668 53.5352 214.029 53.6793C214.39 53.8233 214.7 54.0394 214.959 54.3275C215.218 54.6156 215.352 54.9938 215.361 55.4583C215.361 55.8779 215.24 56.2542 214.995 56.5891C214.751 56.9241 214.407 57.187 213.963 57.3778C213.519 57.5687 213.009 57.6641 212.432 57.6641C211.816 57.6641 211.265 57.5633 210.777 57.3634Z" fill="#161616"/>
<path d="M222.845 51.9056C222.62 51.5581 222.314 51.2916 221.929 51.1115C221.543 50.9297 221.116 50.8378 220.648 50.8378C219.975 50.8378 219.401 51.0431 218.926 51.4519C218.454 51.8624 218.182 52.4296 218.114 53.1553H223.181C223.181 52.6709 223.07 52.255 222.845 51.9056ZM224.515 54.1889H218.101C218.148 54.9415 218.42 55.5304 218.913 55.9535C219.406 56.3767 220.003 56.5891 220.706 56.5891C221.282 56.5891 221.764 56.4613 222.15 56.2056C222.535 55.9499 222.805 55.6078 222.962 55.1792H224.398C224.183 55.9139 223.754 56.5117 223.108 56.9727C222.463 57.4336 221.664 57.6641 220.706 57.6641C219.945 57.6641 219.264 57.5003 218.664 57.1744C218.063 56.8502 217.592 56.3857 217.25 55.786C216.908 55.1864 216.738 54.4914 216.738 53.6991C216.738 52.9086 216.903 52.2153 217.235 51.6193C217.568 51.0251 218.034 50.5659 218.633 50.2454C219.234 49.9249 219.926 49.7646 220.706 49.7646C221.468 49.7646 222.142 49.9213 222.728 50.2382C223.314 50.5551 223.765 50.9891 224.083 51.5437C224.4 52.0965 224.559 52.7231 224.559 53.42C224.559 53.6631 224.544 53.9188 224.515 54.1889Z" fill="#161616"/>
<path d="M228.652 50.1134C229.086 49.8721 229.615 49.7515 230.241 49.7515V51.0623H229.889C228.397 51.0623 227.648 51.8348 227.648 53.3798V57.5393H226.316V49.8901H227.648V51.1326C227.883 50.695 228.217 50.3565 228.652 50.1134Z" fill="#161616"/>
<path d="M234.764 56.3676L237.254 49.8906H238.675L235.525 57.5398H233.974L230.824 49.8906H232.26L234.764 56.3676Z" fill="#161616"/>
<path d="M241.327 57.5376H239.993V49.8884H241.327V57.5376ZM240.038 48.3957C239.862 48.2282 239.773 48.0229 239.773 47.7816C239.773 47.5404 239.862 47.3351 240.038 47.1676C240.214 47.0002 240.427 46.9155 240.682 46.9155C240.926 46.9155 241.134 47.0002 241.304 47.1676C241.474 47.3351 241.561 47.5404 241.561 47.7816C241.561 48.0229 241.474 48.2282 241.304 48.3957C241.134 48.5631 240.926 48.646 240.682 48.646C240.427 48.646 240.214 48.5631 240.038 48.3957Z" fill="#161616"/>
<path d="M243.595 51.6265C243.927 51.0359 244.388 50.5785 244.98 50.2526C245.569 49.9267 246.245 49.7646 247.007 49.7646C247.993 49.7646 248.806 49.9915 249.446 50.4471C250.085 50.9045 250.508 51.5365 250.712 52.3468H249.278C249.14 51.8804 248.874 51.5131 248.479 51.243C248.084 50.9729 247.593 50.8378 247.007 50.8378C246.245 50.8378 245.63 51.0881 245.161 51.5851C244.692 52.0839 244.458 52.788 244.458 53.6991C244.458 54.621 244.692 55.3323 245.161 55.8347C245.63 56.337 246.245 56.5891 247.007 56.5891C247.593 56.5891 248.08 56.4595 248.471 56.1984C248.862 55.9373 249.131 55.5664 249.278 55.082H250.712C250.497 55.8635 250.068 56.4883 249.424 56.9583C248.779 57.4282 247.974 57.6641 247.007 57.6641C246.245 57.6641 245.569 57.5003 244.98 57.1744C244.388 56.8502 243.927 56.3893 243.595 55.7933C243.262 55.1972 243.098 54.5004 243.098 53.6991C243.098 52.9086 243.262 52.2189 243.595 51.6265Z" fill="#161616"/>
<path d="M258.095 51.9056C257.87 51.5581 257.564 51.2916 257.179 51.1115C256.793 50.9297 256.366 50.8378 255.898 50.8378C255.225 50.8378 254.651 51.0431 254.176 51.4519C253.704 51.8624 253.432 52.4296 253.364 53.1553H258.431C258.431 52.6709 258.32 52.255 258.095 51.9056ZM259.763 54.1889H253.349C253.398 54.9415 253.668 55.5304 254.161 55.9535C254.654 56.3767 255.253 56.5891 255.956 56.5891C256.532 56.5891 257.012 56.4613 257.4 56.2056C257.785 55.9499 258.055 55.6078 258.212 55.1792H259.646C259.433 55.9139 259.002 56.5117 258.358 56.9727C257.713 57.4336 256.912 57.6641 255.956 57.6641C255.195 57.6641 254.514 57.5003 253.914 57.1744C253.313 56.8502 252.84 56.3857 252.5 55.786C252.158 55.1864 251.988 54.4914 251.988 53.6991C251.988 52.9086 252.153 52.2153 252.485 51.6193C252.818 51.0251 253.283 50.5659 253.883 50.2454C254.484 49.9249 255.176 49.7646 255.956 49.7646C256.718 49.7646 257.392 49.9213 257.978 50.2382C258.564 50.5551 259.015 50.9891 259.333 51.5437C259.65 52.0965 259.809 52.7231 259.809 53.42C259.809 53.6631 259.794 53.9188 259.763 54.1889Z" fill="#161616"/>
<path d="M41.003 34.8752C34.1689 37.4664 26.9776 36.9568 26.9776 36.9568L30.4844 31.5764L17.3886 31.562C17.3886 31.562 16.801 31.5188 16.5648 31.038C16.3268 30.5573 16.7141 29.8622 16.7141 29.8622C16.7141 29.8622 19.1931 23.902 23.3536 20.3349C27.5142 16.7678 30.5147 16.7948 33.2487 16.7948C35.9808 16.7948 40.6157 16.7678 40.6157 16.7678L44.4191 11.2164L46.694 12.2158C46.694 12.2158 52.9916 14.6575 52.9991 21.3037C53.0067 27.9517 47.8353 32.2841 41.003 34.8752ZM53.6888 14.445C51.5764 11.2128 47.8957 9.63183 45.9779 8.71169C45.687 8.55683 45.396 8.40378 45.1107 8.25432C47.0644 6.07013 48.7082 4.8907 49.36 4.45674C45.0861 2.51383 41.396 1.42983 39.1721 0.974267C38.6166 0.860826 38.0517 0.799603 37.4886 0.716773C31.6181 -0.134938 12.6102 0.299021 12.6102 0.299021C12.0585 0.299021 11.5578 0.515099 11.195 0.860826C10.8303 1.20655 10.6055 1.68553 10.6055 2.21132C10.6055 3.2629 11.5068 4.12362 12.6102 4.12362H22.596C23.6994 4.12362 24.6026 4.98253 24.6026 6.03411C24.6026 6.55991 24.3777 7.03708 24.013 7.38461C23.6503 7.73033 23.1477 7.94461 22.596 7.94461H14.6943C14.1407 7.94461 13.64 8.16069 13.2753 8.50642C12.9125 8.85394 12.6877 9.32932 12.6877 9.85691C12.6877 10.9067 13.5889 11.7674 14.6943 11.7674H19.7448C20.8463 11.7674 21.7495 12.6281 21.7495 13.6779C21.7495 14.2037 21.5246 14.6827 21.16 15.0284C20.7972 15.3741 20.2965 15.5902 19.7448 15.5902H2.00471C1.45299 15.5902 0.952284 15.8045 0.589509 16.1502C0.224845 16.4977 0 16.9749 0 17.5007C0 18.5523 0.903158 19.413 2.00471 19.413H14.4827C15.5861 19.413 16.4874 20.2719 16.4874 21.3235C16.4874 21.8493 16.2625 22.3283 15.8997 22.674C15.5351 23.0197 15.0325 23.2358 14.4827 23.2358H9.41136C8.85964 23.2358 8.35894 23.4501 7.99616 23.7976C7.6315 24.1433 7.40665 24.6223 7.40665 25.1463C7.40665 26.1979 8.30981 27.0568 9.41136 27.0568H9.55496C10.6565 27.0586 11.5578 27.9175 11.5578 28.9691C11.5578 29.4931 11.3329 29.972 10.9702 30.3178C10.6055 30.6653 10.1048 30.8796 9.55307 30.8796H2.00471C1.45299 30.8796 0.952284 31.0939 0.589509 31.4414C0.224845 31.7871 0 32.2661 0 32.7901C0 33.8435 0.903158 34.7024 2.00471 34.7024H6.40335C6.40335 34.7762 8.70282 36.4994 14.0235 37.9003C21.1997 39.7892 23.9469 39.5984 23.9469 39.5984C23.9469 39.5984 32.6535 40.6373 40.9728 37.8625C49.292 35.0877 53.1767 30.6995 54.9075 26.5364C56.8857 21.7863 55.7181 17.5475 53.6888 14.445Z" fill="#ED0000"/>
<path d="M4.23485 27.0598C4.78468 27.0598 5.28727 26.8455 5.65005 26.4998C6.01471 26.1522 6.23956 25.6733 6.23956 25.1493C6.23956 24.0977 5.3364 23.2388 4.23485 23.2388H3.29768C2.74785 23.2388 2.24525 23.453 1.88059 23.8006C1.51781 24.1463 1.29297 24.6235 1.29297 25.1493C1.29297 26.2009 2.19424 27.0598 3.29768 27.0598H4.23485Z" fill="#ED0000"/>
<path d="M7.47535 11.7676H9.51029C10.062 11.7676 10.5627 11.5533 10.9274 11.2058C11.2902 10.8601 11.5169 10.3829 11.5169 9.85712C11.5169 8.80554 10.6137 7.94482 9.51029 7.94482H7.47535C6.92363 7.94482 6.42292 8.1609 6.05826 8.50663C5.69548 8.85416 5.46875 9.32953 5.46875 9.85712C5.46875 10.9069 6.37191 11.7676 7.47535 11.7676Z" fill="#ED0000"/>
<path d="M50.689 23.7946C48.7863 30.9306 39.2484 34.3699 31.5828 34.8795L33.8011 31.5554C33.8011 31.5554 37.4401 31.5626 37.442 31.5608C37.9673 31.5356 38.3811 31.1215 38.3811 30.6155C38.3811 30.1131 37.9692 29.699 37.4458 29.672C37.4439 29.6702 18.9141 29.6774 18.9141 29.6774C18.9141 29.6774 23.7095 19.2353 31.0179 18.6699H45.6649C46.2318 18.6699 46.6909 18.2324 46.6909 17.6922C46.6909 17.152 46.2318 16.7162 45.6649 16.7162H43.9134L45.8898 13.8838C45.8898 13.8838 52.5898 16.6586 50.689 23.7946Z" fill="#161616"/>
<path d="M73.24 11.2758C71.6888 11.2758 70.4323 10.0783 70.4323 8.6018C70.4323 7.12166 71.6888 5.92422 73.24 5.92422C74.7894 5.92422 76.0478 7.12166 76.0478 8.6018C76.0478 10.0783 74.7894 11.2758 73.24 11.2758ZM91.9721 10.0297C90.725 8.72785 89.5215 8.52977 87.1596 7.99138C84.7959 7.45298 84.6202 7.18468 84.6202 7.18468C84.6202 7.18468 80.2065 0.261154 69.5556 0.00726138C57.5217 -0.280844 50.2019 8.09762 49.7787 8.52257C49.7787 8.52257 53.8221 10.3286 56.2293 14.9995C59.9723 22.2634 56.0063 28.3784 56.4976 27.6996C56.987 27.0189 58.7801 24.2963 60.7753 21.4135C62.5287 18.8782 64.6978 17.7599 66.4796 17.3782C68.2632 16.9965 71.3374 17.3998 72.3633 18.1003C70.4909 20.2989 69.0644 24.6403 69.0644 24.6403C69.0644 24.6403 62.8027 42.6072 62.0243 44.0099C61.499 44.9499 59.7947 48.8087 54.6478 52.7161C49.501 56.6235 43.6607 57.4734 39.6494 57.5149C35.6399 57.5581 32.5866 56.6451 29.4879 55.3505C30.425 55.2226 33.4104 54.7112 37.4236 52.2479C41.433 49.7864 43.929 46.1959 43.929 46.1959L53.1684 32.5884C53.021 32.7918 48.2048 39.2616 33.9168 41.2063C29.7354 41.7753 25.2102 41.5178 25.2102 41.5178C25.2102 41.5178 23.7987 42.3245 21.1837 42.4091C18.5706 42.4938 17.4407 41.6871 15.8498 40.9236C14.2627 40.1583 13.4162 41.6799 13.6524 42.3551C16.564 50.6435 24.1861 58.1109 34.5686 59.8089C44.9549 61.5087 52.7981 58.1109 58.457 53.2257C64.1178 48.3405 65.8561 42.2669 65.8561 42.2669C65.8561 42.2669 69.7786 31.1388 72.4521 23.8768C75.1257 16.6129 81.0095 14.2919 83.1937 13.6833C85.376 13.0746 87.6358 13.0602 89.6405 13.2583C91.6471 13.4564 91.615 13.4708 92.1516 13.1323C92.6863 12.7919 93.221 11.3334 91.9721 10.0297Z" fill="#161616"/>
<path d="M19.9186 55.8037C20.4231 56.2143 24.4798 59.4987 29.7381 61.3119C34.9984 63.1234 39.3649 63.0946 39.3649 63.0946C39.3649 63.0946 40.8802 65.5579 38.8604 68.2481C36.8406 70.9382 33.7192 71.1939 31.9072 70.9094C30.0952 70.6267 28.0149 69.4095 26.5601 68.0212C25.1033 66.6347 21.6267 62.8965 20.8539 62.0754C20.083 61.2543 18.9569 59.7832 18.9531 58.0833C18.9512 56.7455 19.9186 55.8037 19.9186 55.8037Z" fill="#161616"/>
<path d="M54.2617 59.4775C55.3576 58.9013 59.9339 56.7495 63.7676 51.6951C67.5994 46.6406 68.5932 43.3364 68.5932 43.3364C68.5932 43.3364 72.3759 44.3016 72.8804 48.1694C73.3036 51.4268 71.7883 53.1824 70.4959 54.5401C69.2035 55.8996 64.8804 58.3629 64.034 58.7465C63.1875 59.1282 60.8257 60.6137 59.7997 61.0387C58.7756 61.4636 55.7657 62.1641 54.2617 59.4775Z" fill="#161616"/>
</svg>
