<svg width="130" height="38" viewBox="0 0 130 38" fill="none" xmlns="http://www.w3.org/2000/svg">
<rect x="0.5" y="0.5" width="129" height="37" rx="4.5" fill="black"/>
<rect x="0.5" y="0.5" width="129" height="37" rx="4.5" stroke="#A6A6A6"/>
<path d="M102.974 28.4997H104.77V16.6232H102.974V28.4997ZM119.158 20.9016L117.098 26.0505H117.037L114.899 20.9016H112.963L116.17 28.0979L114.341 32.1012H116.215L121.156 20.9016H119.158ZM108.967 27.1508C108.38 27.1508 107.558 26.8602 107.558 26.1422C107.558 25.2255 108.581 24.8741 109.463 24.8741C110.253 24.8741 110.625 25.0419 111.105 25.2712C110.965 26.3715 110.005 27.1508 108.967 27.1508ZM109.185 20.6418C107.884 20.6418 106.537 21.2073 105.979 22.4602L107.574 23.117C107.915 22.4602 108.549 22.2464 109.216 22.2464C110.145 22.2464 111.089 22.796 111.105 23.7742V23.8963C110.779 23.7129 110.082 23.438 109.231 23.438C107.511 23.438 105.761 24.3698 105.761 26.1117C105.761 27.7008 107.171 28.7246 108.75 28.7246C109.958 28.7246 110.625 28.1898 111.042 27.5631H111.105V28.4804H112.84V23.9267C112.84 21.8182 111.243 20.6418 109.185 20.6418ZM98.0798 22.3473H95.5241V18.2765H98.0798C99.4231 18.2765 100.186 19.3734 100.186 20.3118C100.186 21.2322 99.4231 22.3473 98.0798 22.3473ZM98.0336 16.6232H93.728V28.4997H95.5241V24.0002H98.0336C100.025 24.0002 101.983 22.5782 101.983 20.3118C101.983 18.046 100.025 16.6232 98.0336 16.6232ZM74.5552 27.153C73.3138 27.153 72.2749 26.1273 72.2749 24.7198C72.2749 23.2959 73.3138 22.2556 74.5552 22.2556C75.7808 22.2556 76.7426 23.2959 76.7426 24.7198C76.7426 26.1273 75.7808 27.153 74.5552 27.153ZM76.6184 21.5666H76.5563C76.1531 21.0923 75.3771 20.6637 74.4003 20.6637C72.352 20.6637 70.475 22.4394 70.475 24.7198C70.475 26.9846 72.352 28.7446 74.4003 28.7446C75.3771 28.7446 76.1531 28.316 76.5563 27.8265H76.6184V28.4077C76.6184 29.954 75.7808 30.7801 74.4311 30.7801C73.33 30.7801 72.6474 29.9997 72.3678 29.3417L70.8012 29.9845C71.2507 31.0554 72.445 32.3721 74.4311 32.3721C76.5413 32.3721 78.3254 31.1475 78.3254 28.1627V20.9086H76.6184V21.5666ZM79.5667 28.4997H81.3656V16.6232H79.5667V28.4997ZM84.0186 24.5817C83.9723 23.0205 85.2449 22.2249 86.1597 22.2249C86.8736 22.2249 87.4781 22.577 87.6805 23.0818L84.0186 24.5817ZM89.6034 23.2346C89.2622 22.3321 88.2229 20.6637 86.0976 20.6637C83.9873 20.6637 82.2344 22.3013 82.2344 24.7042C82.2344 26.9694 83.9723 28.7446 86.2988 28.7446C88.1758 28.7446 89.2622 27.6124 89.7124 26.9541L88.3161 26.0356C87.8505 26.7091 87.2148 27.153 86.2988 27.153C85.384 27.153 84.7322 26.7396 84.3139 25.9284L89.7896 23.694L89.6034 23.2346ZM45.9737 21.9035V23.6176H50.1313C50.0072 24.5817 49.6814 25.2857 49.1849 25.7755C48.5797 26.3722 47.6333 27.0305 45.9737 27.0305C43.4138 27.0305 41.4127 24.9951 41.4127 22.4698C41.4127 19.9445 43.4138 17.9087 45.9737 17.9087C47.3545 17.9087 48.3626 18.4445 49.1074 19.1333L50.3333 17.9239C49.2936 16.9446 47.9131 16.1946 45.9737 16.1946C42.4671 16.1946 39.5195 19.0108 39.5195 22.4698C39.5195 25.9284 42.4671 28.7446 45.9737 28.7446C47.8661 28.7446 49.2936 28.1323 50.4104 26.9846C51.5585 25.852 51.9155 24.2603 51.9155 22.9745C51.9155 22.577 51.8842 22.2097 51.8222 21.9035H45.9737ZM56.6423 27.153C55.4009 27.153 54.3304 26.1429 54.3304 24.7042C54.3304 23.2502 55.4009 22.2556 56.6423 22.2556C57.8831 22.2556 58.9537 23.2502 58.9537 24.7042C58.9537 26.1429 57.8831 27.153 56.6423 27.153ZM56.6423 20.6637C54.3766 20.6637 52.5308 22.3625 52.5308 24.7042C52.5308 27.0305 54.3766 28.7446 56.6423 28.7446C58.9071 28.7446 60.7532 27.0305 60.7532 24.7042C60.7532 22.3625 58.9071 20.6637 56.6423 20.6637ZM65.6101 27.153C64.3697 27.153 63.2987 26.1429 63.2987 24.7042C63.2987 23.2502 64.3697 22.2556 65.6101 22.2556C66.8515 22.2556 67.9216 23.2502 67.9216 24.7042C67.9216 26.1429 66.8515 27.153 65.6101 27.153ZM65.6101 20.6637C63.3453 20.6637 61.4995 22.3625 61.4995 24.7042C61.4995 27.0305 63.3453 28.7446 65.6101 28.7446C67.8758 28.7446 69.7216 27.0305 69.7216 24.7042C69.7216 22.3625 67.8758 20.6637 65.6101 20.6637Z" fill="white"/>
<path d="M42.8297 12.5723C41.9664 12.5723 41.2238 12.2726 40.6251 11.682C40.026 11.091 39.7227 10.3511 39.7227 9.4907C39.7227 8.63029 40.0262 7.89166 40.6251 7.29939C41.2238 6.70872 41.9664 6.40913 42.8297 6.40913C43.2696 6.40913 43.6801 6.48408 44.0724 6.64014C44.4648 6.79622 44.7859 7.01288 45.0387 7.29642L45.0983 7.3634L44.4248 8.02766L44.3575 7.94602C44.1898 7.74277 43.9766 7.58487 43.7064 7.47009C43.4371 7.3556 43.1422 7.30273 42.8297 7.30273C42.2216 7.30273 41.7171 7.50645 41.2957 7.9206C41.2957 7.92069 41.2955 7.92069 41.2954 7.92079C40.8836 8.3433 40.6766 8.8577 40.6766 9.4907C40.6766 10.1242 40.8839 10.6387 41.2961 11.0614C41.7174 11.4753 42.222 11.6802 42.8297 11.6802C43.3864 11.6802 43.8467 11.5269 44.2087 11.2233H44.2089C44.5458 10.9409 44.7481 10.5592 44.8196 10.0726H42.7334V9.1968H45.7212L45.734 9.27695C45.7585 9.4309 45.7758 9.57951 45.7758 9.72227C45.7758 10.5394 45.5232 11.2065 45.0278 11.6972C44.4685 12.2821 43.7329 12.5723 42.8297 12.5723L42.8297 12.5723ZM68.7737 12.5723C67.909 12.5723 67.1751 12.2724 66.5841 11.682C66.584 11.6819 66.584 11.6819 66.5839 11.6818C66.5838 11.6818 66.5838 11.6817 66.5837 11.6816C65.9918 11.0976 65.6982 10.3575 65.6982 9.49069C65.6982 8.62392 65.9918 7.8838 66.5837 7.29975C66.5837 7.29969 66.5838 7.29966 66.5839 7.29956L66.5841 7.29937C67.1751 6.70885 67.909 6.40912 68.7737 6.40912C69.6366 6.40912 70.3708 6.70893 70.9618 7.30828C71.5538 7.89224 71.8476 8.63095 71.8476 9.49068C71.8476 10.3574 71.554 11.0976 70.9622 11.6816L70.962 11.6818C70.3706 12.2727 69.6296 12.5722 68.7737 12.5722L68.7737 12.5723ZM46.6308 12.4446V6.53679H46.7271H50.2073V7.43038H47.5682V9.05281H49.9485V9.92859H47.5682V11.5525H50.2073V12.4446H46.6308ZM52.3962 12.4446V7.43038H50.7772V6.53679H54.9525V7.43038H54.8562H53.3335V12.4446H52.3962ZM57.621 12.4446V6.53679H58.5584V6.63179V12.4446H57.621ZM60.918 12.4446V7.43038H59.299V6.53679H63.4744V7.43038H63.3781H61.8554V12.4446H60.918ZM72.6797 12.4446V6.53679H73.7367L76.4268 10.7854L76.4036 9.97887V6.53679H77.341V12.4446H76.4134L73.5939 7.98127L73.6171 8.78729V8.78859V12.4446H72.6797ZM68.7737 11.6802C69.3818 11.6802 69.8782 11.4755 70.2828 11.0621L70.2834 11.0613L70.284 11.0608C70.6944 10.6558 70.8952 10.1344 70.8952 9.49067C70.8952 8.84849 70.6943 8.32538 70.284 7.92057L70.2834 7.92L70.2828 7.91943C69.8782 7.50606 69.3819 7.30267 68.7737 7.30267C68.1644 7.30267 67.6681 7.5057 67.2559 7.91906L67.2555 7.91944C66.8527 8.33407 66.6521 8.84867 66.6521 9.49065C66.6521 10.1342 66.8526 10.6471 67.2555 11.0619L67.2559 11.0622C67.6682 11.4757 68.1646 11.6801 68.7737 11.6801V11.6802Z" fill="white"/>
<path d="M19.9475 18.4515L9.69531 29.1865C9.6957 29.1888 9.69647 29.1906 9.69685 29.1929C10.0113 30.3585 11.0905 31.2168 12.3713 31.2168C12.8833 31.2168 13.364 31.0802 13.7763 30.8405L13.809 30.8216L25.3491 24.2521L19.9475 18.4515Z" fill="#EA4335"/>
<path d="M30.3199 16.624L30.31 16.6174L25.3279 13.768L19.7148 18.6955L25.3474 24.2515L30.3033 21.4304C31.1722 20.9677 31.762 20.0641 31.762 19.022C31.762 17.9875 31.1801 17.0883 30.3199 16.624Z" fill="#FBBC04"/>
<path d="M9.69559 8.81171C9.63396 9.03591 9.60156 9.27074 9.60156 9.51461V28.4838C9.60156 28.7272 9.63357 28.9629 9.69597 29.1863L20.301 18.7259L9.69559 8.81171Z" fill="#4285F4"/>
<path d="M20.0235 18.9985L25.33 13.765L13.8029 7.17179C13.3839 6.92422 12.8949 6.78135 12.3717 6.78135C11.0908 6.78135 10.0102 7.64119 9.6957 8.80827C9.69531 8.80941 9.69531 8.81017 9.69531 8.81121L20.0235 18.9985Z" fill="#34A853"/>
</svg>
