<svg width="180" height="52" viewBox="0 0 180 52" fill="none" xmlns="http://www.w3.org/2000/svg">
<path d="M69.5421 14.6738C70.5623 13.269 71.8267 12.1764 73.3367 11.392C74.8454 10.609 76.4756 10.2168 78.2247 10.2168C80.3682 10.2168 82.1042 10.7847 83.4339 11.9219C84.7637 13.0591 85.5135 14.6082 85.6859 16.5717H80.8489C80.6255 15.8319 80.218 15.2679 79.6263 14.8797C79.0345 14.4928 78.3096 14.2986 77.4527 14.2986C76.0981 14.2986 74.9225 14.7682 73.9284 15.706C72.9331 16.6452 72.2982 17.8978 72.0239 19.4652C71.9377 19.9479 71.8959 20.3689 71.8959 20.7309C71.8959 21.9363 72.2303 22.8925 72.8991 23.5982C73.5679 24.3052 74.4849 24.658 75.6514 24.658C76.4926 24.658 77.2763 24.4599 78.0052 24.0638C78.7341 23.6677 79.348 23.0998 79.8457 22.3587H84.6814C83.8245 24.3222 82.5287 25.8673 80.7966 26.9954C79.0646 28.1247 77.1261 28.6874 74.9826 28.6874C73.4386 28.6874 72.0919 28.387 70.9437 27.7837C69.7942 27.1816 68.9112 26.329 68.2933 25.2259C67.6768 24.1242 67.3672 22.8414 67.3672 21.3763C67.3672 20.7231 67.4273 20.0856 67.5474 19.4652C67.8557 17.6735 68.5206 16.0772 69.5421 14.6738Z" fill="#161616"/>
<path d="M97.5167 20.5016C97.5167 19.6582 97.2725 18.9945 96.7839 18.5118C96.2954 18.0305 95.6736 17.7891 94.9186 17.7891C94.0447 17.7891 93.2466 18.1039 92.5256 18.7322C91.8058 19.3605 91.3513 20.2262 91.1632 21.3279C91.1109 21.6388 91.0848 21.9221 91.0848 22.1805C91.0848 23.0252 91.3304 23.6915 91.8189 24.1821C92.3074 24.674 92.9201 24.9192 93.6581 24.9192C94.5333 24.9192 95.3301 24.6005 96.0511 23.963C96.7709 23.3256 97.2346 22.456 97.4397 21.3542C97.4919 21.0433 97.5167 20.76 97.5167 20.5016ZM88.2045 17.4271C88.9582 16.3083 89.8674 15.4465 90.9307 14.8445C91.9939 14.2411 93.1173 13.9395 94.3008 13.9395C95.3131 13.9395 96.1622 14.1467 96.8479 14.5599C97.5337 14.973 98.0314 15.516 98.341 16.1876L98.7002 14.1467H103.1L100.552 28.5617H96.1543L96.5397 26.5208C95.991 27.1923 95.2961 27.7353 94.4562 28.1485C93.615 28.5617 92.6889 28.7676 91.6778 28.7676C90.6655 28.7676 89.7694 28.5354 88.9883 28.0711C88.2085 27.6055 87.6037 26.947 87.1752 26.0945C86.7455 25.2419 86.5312 24.2385 86.5312 23.0842C86.5312 22.5333 86.5835 21.9484 86.6854 21.3279C86.944 19.8471 87.4495 18.5473 88.2045 17.4271Z" fill="#161616"/>
<path d="M106.664 28.2259C105.764 27.8639 105.056 27.3602 104.542 26.7149C104.027 26.0682 103.77 25.3245 103.77 24.4798C103.77 24.3592 103.787 24.144 103.822 23.8345H108.066C108.032 24.3683 108.19 24.7946 108.543 25.1134C108.894 25.4321 109.396 25.5908 110.047 25.5908C110.596 25.5908 111.051 25.4872 111.411 25.2812C111.77 25.074 111.951 24.7815 111.951 24.4024C111.951 24.0404 111.759 23.7519 111.372 23.5368C110.987 23.3216 110.346 23.0593 109.456 22.7485C108.529 22.4389 107.754 22.1333 107.127 21.8316C106.501 21.5313 105.965 21.0958 105.519 20.5278C105.073 19.9586 104.85 19.2437 104.85 18.3833C104.85 17.5399 105.098 16.7765 105.597 16.0971C106.093 15.4164 106.792 14.8865 107.693 14.5074C108.593 14.1296 109.636 13.9395 110.819 13.9395C112.003 13.9395 113.032 14.1336 113.906 14.5205C114.781 14.9088 115.458 15.4465 115.938 16.1351C116.419 16.8251 116.66 17.6003 116.66 18.4607L116.633 18.8476H112.645C112.679 18.3308 112.525 17.9177 112.183 17.6081C111.839 17.2986 111.351 17.1425 110.716 17.1425C110.218 17.1425 109.811 17.2461 109.493 17.4534C109.176 17.6593 109.018 17.9439 109.018 18.3059C109.018 18.685 109.228 18.9998 109.649 19.249C110.068 19.4982 110.724 19.7776 111.616 20.0884C112.542 20.398 113.31 20.7036 113.919 21.0053C114.528 21.307 115.052 21.728 115.489 22.271C115.925 22.814 116.145 23.4895 116.145 24.2988C116.145 25.2288 115.865 26.0302 115.309 26.7018C114.751 27.3733 113.987 27.8862 113.019 28.239C112.05 28.5918 110.947 28.7676 109.713 28.7676C108.58 28.7676 107.564 28.5879 106.664 28.2259Z" fill="#161616"/>
<path d="M132.805 15.2022C133.618 16.0127 134.026 17.1395 134.026 18.5862C134.026 19.0689 133.975 19.5857 133.872 20.1366L132.38 28.5586H128.005L129.395 20.7307C129.446 20.4382 129.472 20.1798 129.472 19.9556C129.472 19.2328 129.271 18.6728 128.868 18.2766C128.464 17.8805 127.902 17.6825 127.183 17.6825C126.324 17.6825 125.605 17.95 125.022 18.4839C124.438 19.0177 124.061 19.7667 123.89 20.7307V20.6796L122.501 28.5586H118.102L121.472 9.44141H125.871L124.712 16.0547C125.279 15.4186 125.973 14.9136 126.797 14.5437C127.62 14.1738 128.511 13.9889 129.472 13.9889C130.878 13.9889 131.99 14.3929 132.805 15.2022Z" fill="#161616"/>
<path d="M145.653 24.3231L142.336 20.4222C141.598 20.7659 141.023 21.1935 140.611 21.7011C140.2 22.2087 139.993 22.7648 139.993 23.3669C139.993 23.9348 140.213 24.3965 140.651 24.7494C141.087 25.1022 141.692 25.2793 142.464 25.2793C143.613 25.2793 144.676 24.9605 145.653 24.3231ZM150.799 24.2968L154.401 28.5597H149.281L147.892 26.9319C146.023 28.2069 143.921 28.8443 141.59 28.8443C139.702 28.8443 138.214 28.4259 137.125 27.5904C136.036 26.7549 135.492 25.6229 135.492 24.1932C135.492 22.833 135.934 21.6198 136.817 20.5508C137.7 19.4831 138.879 18.6305 140.354 17.9931C139.822 17.1667 139.557 16.3574 139.557 15.5652C139.557 14.5146 139.83 13.5807 140.38 12.7622C140.929 11.9438 141.692 11.3116 142.67 10.863C143.647 10.4157 144.753 10.1914 145.988 10.1914C147.532 10.1914 148.719 10.5456 149.551 11.2512C150.383 11.9569 150.799 12.8527 150.799 13.9375C150.799 14.1618 150.774 14.4201 150.722 14.7126H146.606C146.623 14.6444 146.632 14.5408 146.632 14.4031C146.632 14.0752 146.519 13.8207 146.297 13.641C146.074 13.46 145.791 13.3695 145.448 13.3695C144.985 13.3695 144.59 13.5204 144.265 13.8207C143.938 14.1224 143.776 14.5054 143.776 14.971C143.776 15.5744 144.119 16.3063 144.804 17.1667L148.433 21.4807L148.896 20.758L150.13 19.1303H154.555L152.934 21.3771C152.179 22.5655 151.469 23.5387 150.799 24.2968Z" fill="#161616"/>
<path d="M163.817 10.4258L160.626 28.5606H156.227L159.418 10.4258H163.817Z" fill="#161616"/>
<path d="M180.001 10.4258L179.409 13.9121H174.598L172.025 28.5606H167.626L170.199 13.9121H165.414L166.031 10.4258H180.001Z" fill="#161616"/>
<path d="M73.4551 34.877V41.9126H72.5329V36.666L70.2051 41.9126H69.5573L67.2178 36.6569V41.9126H66.2969V34.877H67.2883L69.8812 40.6928L72.4728 34.877H73.4551Z" fill="#161616"/>
<path d="M78.3672 40.9562C78.6572 40.8001 78.8923 40.5666 79.0713 40.2558C79.2502 39.9436 79.3391 39.5632 79.3391 39.1159C79.3391 38.6687 79.2516 38.2896 79.0765 37.9774C78.9002 37.6666 78.6716 37.4344 78.3881 37.281C78.1047 37.1288 77.7964 37.0527 77.4659 37.0527C77.1289 37.0527 76.8193 37.1288 76.5398 37.281C76.259 37.4344 76.0356 37.6666 75.8671 37.9774C75.6973 38.2896 75.6137 38.6687 75.6137 39.1159C75.6137 39.5711 75.696 39.9541 75.8619 40.2649C76.0264 40.5771 76.2472 40.8093 76.5241 40.9614C76.801 41.1136 77.1054 41.191 77.4359 41.191C77.7664 41.191 78.0772 41.1123 78.3672 40.9562ZM76.0238 41.6474C75.6019 41.4113 75.2701 41.0729 75.0311 40.6361C74.792 40.1994 74.6719 39.6931 74.6719 39.1159C74.6719 38.5467 74.7947 38.0443 75.0415 37.6062C75.2871 37.1695 75.6228 36.8337 76.0486 36.6002C76.4745 36.3667 76.95 36.25 77.4764 36.25C78.0028 36.25 78.4783 36.3667 78.9041 36.6002C79.3286 36.8337 79.6643 37.1682 79.9112 37.601C80.1581 38.0352 80.2809 38.5401 80.2809 39.1159C80.2809 39.6931 80.1542 40.1994 79.9008 40.6361C79.6486 41.0729 79.3051 41.4113 78.874 41.6474C78.4417 41.8848 77.9623 42.0042 77.4359 42.0042C76.916 42.0042 76.4457 41.8848 76.0238 41.6474Z" fill="#161616"/>
<path d="M85.8393 36.8554C86.2586 37.2646 86.4676 37.8562 86.4676 38.6287V41.9131H85.5559V38.7612C85.5559 38.2051 85.4174 37.7801 85.1405 37.485C84.8649 37.1912 84.4861 37.043 84.0067 37.043C83.5208 37.043 83.1341 37.1951 82.848 37.5007C82.5607 37.8063 82.417 38.2497 82.417 38.832V41.9131H81.4961V36.3412H82.417V37.1348C82.5999 36.8501 82.8481 36.6298 83.1616 36.4737C83.475 36.3176 83.8212 36.2402 84.2 36.2402C84.874 36.2402 85.4213 36.4449 85.8393 36.8554Z" fill="#161616"/>
<path d="M91.8559 37.8095C91.7004 37.5564 91.4888 37.3623 91.2224 37.2311C90.9559 37.0986 90.6607 37.0317 90.3367 37.0317C89.8704 37.0317 89.4746 37.1813 89.1467 37.479C88.8189 37.7781 88.6321 38.1912 88.5851 38.7198H92.0884C92.0884 38.367 92.01 38.064 91.8559 37.8095ZM93.0093 39.4727H88.5746C88.6086 40.021 88.7954 40.4499 89.1363 40.7581C89.4772 41.0664 89.8913 41.2211 90.3772 41.2211C90.7756 41.2211 91.1074 41.128 91.3739 40.9418C91.6404 40.7555 91.8285 40.5063 91.9369 40.1941H92.9283C92.7794 40.7293 92.4829 41.1647 92.0375 41.5005C91.592 41.8363 91.0382 42.0042 90.3772 42.0042C89.8508 42.0042 89.3793 41.8848 88.9652 41.6474C88.5498 41.4113 88.2232 41.0729 87.9881 40.6361C87.7517 40.1994 87.6328 39.6931 87.6328 39.1159C87.6328 38.5401 87.7478 38.0352 87.9777 37.601C88.2063 37.1682 88.5289 36.8337 88.9443 36.6002C89.3597 36.3667 89.8364 36.25 90.3772 36.25C90.9036 36.25 91.37 36.3641 91.7749 36.595C92.1798 36.8258 92.492 37.1419 92.7115 37.5459C92.9296 37.9486 93.0393 38.405 93.0393 38.9126C93.0393 39.0897 93.0302 39.276 93.0093 39.4727Z" fill="#161616"/>
<path d="M99.0303 36.3398L95.689 44.535H94.738L95.8313 41.8501L93.5938 36.3398H94.6165L96.3578 40.8545L98.0794 36.3398H99.0303Z" fill="#161616"/>
<path d="M106.758 38.016C106.589 37.7052 106.362 37.4665 106.074 37.2999C105.787 37.1333 105.472 37.0507 105.127 37.0507C104.784 37.0507 104.469 37.132 104.186 37.2946C103.902 37.4573 103.676 37.6947 103.508 38.0069C103.339 38.3177 103.254 38.6837 103.254 39.1047C103.254 39.531 103.339 39.9022 103.508 40.217C103.676 40.5331 103.902 40.7731 104.186 40.9397C104.469 41.105 104.784 41.1889 105.127 41.1889C105.472 41.1889 105.787 41.105 106.074 40.9397C106.362 40.7731 106.589 40.5331 106.758 40.217C106.926 39.9022 107.011 39.5349 107.011 39.1139C107.011 38.6942 106.926 38.3282 106.758 38.016ZM102.657 37.6042C102.887 37.174 103.202 36.8408 103.604 36.6034C104.005 36.366 104.456 36.2479 104.955 36.2479C105.387 36.2479 105.79 36.3476 106.161 36.547C106.532 36.7477 106.815 37.01 107.011 37.3353V34.3867H107.942V41.9103H107.011V40.8623C106.828 41.1955 106.559 41.4683 106.201 41.6821C105.843 41.8946 105.425 42.0021 104.946 42.0021C104.452 42.0021 104.005 41.8801 103.604 41.6362C103.202 41.3922 102.887 41.0499 102.657 40.6092C102.427 40.1684 102.312 39.6674 102.312 39.1047C102.312 38.5355 102.427 38.0344 102.657 37.6042Z" fill="#161616"/>
<path d="M113.378 37.8095C113.224 37.5564 113.012 37.3623 112.746 37.2311C112.479 37.0986 112.184 37.0317 111.86 37.0317C111.394 37.0317 110.998 37.1813 110.67 37.479C110.342 37.7781 110.156 38.1912 110.108 38.7198H113.612C113.612 38.367 113.533 38.064 113.378 37.8095ZM114.533 39.4727H110.098C110.132 40.021 110.319 40.4499 110.66 40.7581C111.001 41.0664 111.415 41.2211 111.901 41.2211C112.299 41.2211 112.631 41.128 112.897 40.9418C113.164 40.7555 113.352 40.5063 113.459 40.1941H114.452C114.303 40.7293 114.006 41.1647 113.561 41.5005C113.115 41.8363 112.562 42.0042 111.901 42.0042C111.374 42.0042 110.903 41.8848 110.487 41.6474C110.073 41.4113 109.747 41.0729 109.51 40.6361C109.274 40.1994 109.156 39.6931 109.156 39.1159C109.156 38.5401 109.271 38.0352 109.501 37.601C109.73 37.1682 110.052 36.8337 110.468 36.6002C110.883 36.3667 111.36 36.25 111.901 36.25C112.427 36.25 112.892 36.3641 113.297 36.595C113.702 36.8258 114.014 37.1419 114.234 37.5459C114.453 37.9486 114.563 38.405 114.563 38.9126C114.563 39.0897 114.554 39.276 114.533 39.4727Z" fill="#161616"/>
<path d="M116.7 41.9103H115.777V34.3867H116.7V41.9103Z" fill="#161616"/>
<path d="M119.19 41.9132H118.269V36.3413H119.19V41.9132ZM118.299 35.254C118.177 35.132 118.117 34.9824 118.117 34.8067C118.117 34.6309 118.177 34.4814 118.299 34.3594C118.42 34.2374 118.569 34.1758 118.744 34.1758C118.913 34.1758 119.056 34.2374 119.175 34.3594C119.293 34.4814 119.352 34.6309 119.352 34.8067C119.352 34.9824 119.293 35.132 119.175 35.254C119.056 35.3759 118.913 35.4363 118.744 35.4363C118.569 35.4363 118.42 35.3759 118.299 35.254Z" fill="#161616"/>
<path d="M122.825 41.0578L124.547 36.3398H125.529L123.351 41.9117H122.279L120.102 36.3398H121.093L122.825 41.0578Z" fill="#161616"/>
<path d="M130.316 37.8095C130.16 37.5564 129.948 37.3623 129.682 37.2311C129.416 37.0986 129.12 37.0317 128.796 37.0317C128.331 37.0317 127.934 37.1813 127.606 37.479C127.28 37.7781 127.092 38.1912 127.045 38.7198H130.548C130.548 38.367 130.471 38.064 130.316 37.8095ZM131.469 39.4727H127.034C127.068 40.021 127.256 40.4499 127.597 40.7581C127.937 41.0664 128.351 41.2211 128.837 41.2211C129.235 41.2211 129.567 41.128 129.835 40.9418C130.101 40.7555 130.288 40.5063 130.397 40.1941H131.388C131.24 40.7293 130.943 41.1647 130.497 41.5005C130.052 41.8363 129.498 42.0042 128.837 42.0042C128.31 42.0042 127.84 41.8848 127.425 41.6474C127.009 41.4113 126.684 41.0729 126.448 40.6361C126.211 40.1994 126.094 39.6931 126.094 39.1159C126.094 38.5401 126.207 38.0352 126.437 37.601C126.667 37.1682 126.989 36.8337 127.404 36.6002C127.819 36.3667 128.297 36.25 128.837 36.25C129.363 36.25 129.83 36.3641 130.235 36.595C130.639 36.8258 130.952 37.1419 131.171 37.5459C131.391 37.9486 131.5 38.405 131.5 38.9126C131.5 39.0897 131.49 39.276 131.469 39.4727Z" fill="#161616"/>
<path d="M134.333 36.5039C134.634 36.3281 134.999 36.2402 135.432 36.2402V37.1951H135.189C134.156 37.1951 133.64 37.7578 133.64 38.8832V41.9131H132.719V36.3412H133.64V37.2463C133.802 36.9275 134.033 36.6809 134.333 36.5039Z" fill="#161616"/>
<path d="M141.273 36.3398L137.932 44.535H136.98L138.074 41.8501L135.836 36.3398H136.859L138.6 40.8545L140.322 36.3398H141.273Z" fill="#161616"/>
<path d="M145.717 41.7851C145.38 41.6396 145.114 41.4362 144.918 41.1752C144.722 40.9142 144.613 40.6138 144.594 40.2754H145.545C145.572 40.5535 145.701 40.7804 145.935 40.9562C146.168 41.1333 146.473 41.2211 146.851 41.2211C147.202 41.2211 147.479 41.1437 147.682 40.9877C147.884 40.8316 147.985 40.6348 147.985 40.3974C147.985 40.1535 147.878 39.9724 147.661 39.8531C147.445 39.735 147.111 39.6183 146.659 39.5029C146.247 39.394 145.912 39.2838 145.652 39.1723C145.392 39.0609 145.169 38.8943 144.983 38.6739C144.798 38.4536 144.705 38.1637 144.705 37.8056C144.705 37.5197 144.79 37.26 144.958 37.0226C145.127 36.7852 145.366 36.5963 145.677 36.4572C145.988 36.3182 146.342 36.25 146.74 36.25C147.354 36.25 147.85 36.4061 148.228 36.7169C148.607 37.0291 148.809 37.4554 148.835 37.9984H147.914C147.895 37.7072 147.778 37.4725 147.565 37.2967C147.353 37.1209 147.068 37.0317 146.71 37.0317C146.378 37.0317 146.116 37.1039 145.92 37.2455C145.724 37.3885 145.626 37.5748 145.626 37.8056C145.626 37.9879 145.686 38.1388 145.803 38.2568C145.921 38.3762 146.07 38.4706 146.249 38.5414C146.428 38.6136 146.676 38.6936 146.993 38.7802C147.392 38.889 147.716 38.9966 147.965 39.1015C148.215 39.2064 148.429 39.3638 148.608 39.5737C148.787 39.7836 148.88 40.059 148.886 40.3974C148.886 40.703 148.802 40.9772 148.633 41.2211C148.464 41.4651 148.226 41.6566 147.919 41.7956C147.612 41.9347 147.26 42.0042 146.861 42.0042C146.436 42.0042 146.054 41.9307 145.717 41.7851Z" fill="#161616"/>
<path d="M154.062 37.8095C153.906 37.5564 153.695 37.3623 153.428 37.2311C153.162 37.0986 152.866 37.0317 152.542 37.0317C152.077 37.0317 151.68 37.1813 151.352 37.479C151.026 37.7781 150.838 38.1912 150.791 38.7198H154.294C154.294 38.367 154.217 38.064 154.062 37.8095ZM155.216 39.4727H150.782C150.814 40.021 151.002 40.4499 151.343 40.7581C151.684 41.0664 152.097 41.2211 152.583 41.2211C152.981 41.2211 153.314 41.128 153.581 40.9418C153.847 40.7555 154.034 40.5063 154.143 40.1941H155.135C154.986 40.7293 154.69 41.1647 154.243 41.5005C153.798 41.8363 153.245 42.0042 152.583 42.0042C152.057 42.0042 151.586 41.8848 151.171 41.6474C150.756 41.4113 150.43 41.0729 150.194 40.6361C149.957 40.1994 149.84 39.6931 149.84 39.1159C149.84 38.5401 149.953 38.0352 150.183 37.601C150.413 37.1682 150.736 36.8337 151.15 36.6002C151.565 36.3667 152.043 36.25 152.583 36.25C153.109 36.25 153.576 36.3641 153.981 36.595C154.386 36.8258 154.698 37.1419 154.917 37.5459C155.137 37.9486 155.246 38.405 155.246 38.9126C155.246 39.0897 155.236 39.276 155.216 39.4727Z" fill="#161616"/>
<path d="M158.075 36.5039C158.376 36.3281 158.742 36.2402 159.174 36.2402V37.1951H158.931C157.899 37.1951 157.382 37.7578 157.382 38.8832V41.9131H156.461V36.3412H157.382V37.2463C157.544 36.9275 157.775 36.6809 158.075 36.5039Z" fill="#161616"/>
<path d="M162.302 41.0578L164.023 36.3398H165.006L162.828 41.9117H161.756L159.578 36.3398H160.571L162.302 41.0578Z" fill="#161616"/>
<path d="M166.835 41.9132H165.913V36.3413H166.835V41.9132ZM165.945 35.254C165.823 35.132 165.762 34.9824 165.762 34.8067C165.762 34.6309 165.823 34.4814 165.945 34.3594C166.066 34.2374 166.214 34.1758 166.39 34.1758C166.559 34.1758 166.702 34.2374 166.82 34.3594C166.937 34.4814 166.997 34.6309 166.997 34.8067C166.997 34.9824 166.937 35.132 166.82 35.254C166.702 35.3759 166.559 35.4363 166.39 35.4363C166.214 35.4363 166.066 35.3759 165.945 35.254Z" fill="#161616"/>
<path d="M168.406 37.6062C168.636 37.176 168.955 36.8429 169.364 36.6055C169.771 36.368 170.239 36.25 170.765 36.25C171.447 36.25 172.009 36.4153 172.451 36.7471C172.893 37.0803 173.186 37.5407 173.327 38.1309H172.335C172.24 37.7912 172.056 37.5236 171.783 37.3269C171.51 37.1301 171.17 37.0317 170.765 37.0317C170.239 37.0317 169.813 37.2141 169.489 37.5761C169.165 37.9394 169.003 38.4523 169.003 39.1159C169.003 39.7875 169.165 40.3056 169.489 40.6716C169.813 41.0375 170.239 41.2211 170.765 41.2211C171.17 41.2211 171.507 41.1267 171.777 40.9365C172.048 40.7463 172.233 40.4761 172.335 40.1233H173.327C173.178 40.6925 172.881 41.1477 172.436 41.49C171.99 41.8324 171.434 42.0042 170.765 42.0042C170.239 42.0042 169.771 41.8848 169.364 41.6474C168.955 41.4113 168.636 41.0755 168.406 40.6414C168.176 40.2072 168.062 39.6996 168.062 39.1159C168.062 38.5401 168.176 38.0378 168.406 37.6062Z" fill="#161616"/>
<path d="M178.429 37.8095C178.273 37.5564 178.062 37.3623 177.795 37.2311C177.529 37.0986 177.234 37.0317 176.91 37.0317C176.445 37.0317 176.048 37.1813 175.72 37.479C175.393 37.7781 175.205 38.1912 175.158 38.7198H178.661C178.661 38.367 178.584 38.064 178.429 37.8095ZM179.582 39.4727H175.148C175.181 40.021 175.368 40.4499 175.709 40.7581C176.05 41.0664 176.464 41.2211 176.95 41.2211C177.349 41.2211 177.68 41.128 177.948 40.9418C178.215 40.7555 178.401 40.5063 178.51 40.1941H179.501C179.354 40.7293 179.056 41.1647 178.61 41.5005C178.165 41.8363 177.611 42.0042 176.95 42.0042C176.424 42.0042 175.953 41.8848 175.538 41.6474C175.123 41.4113 174.796 41.0729 174.561 40.6361C174.325 40.1994 174.207 39.6931 174.207 39.1159C174.207 38.5401 174.321 38.0352 174.551 37.601C174.78 37.1682 175.102 36.8337 175.517 36.6002C175.933 36.3667 176.411 36.25 176.95 36.25C177.477 36.25 177.943 36.3641 178.348 36.595C178.753 36.8258 179.065 37.1419 179.284 37.5459C179.504 37.9486 179.614 38.405 179.614 38.9126C179.614 39.0897 179.603 39.276 179.582 39.4727Z" fill="#161616"/>
<path d="M28.3467 25.4054C23.6221 27.2929 18.6505 26.9217 18.6505 26.9217L21.0749 23.0025L12.0213 22.992C12.0213 22.992 11.6151 22.9605 11.4518 22.6103C11.2872 22.2601 11.555 21.7538 11.555 21.7538C11.555 21.7538 13.2688 17.4122 16.1451 14.8139C19.0215 12.2155 21.0958 12.2352 22.9859 12.2352C24.8747 12.2352 28.0789 12.2155 28.0789 12.2155L30.7084 8.1717L32.2811 8.89966C32.2811 8.89966 36.6348 10.6783 36.64 15.5195C36.6453 20.3621 33.0701 23.5179 28.3467 25.4054ZM37.1168 10.5235C35.6564 8.16908 33.1119 7.01745 31.7861 6.3472C31.5849 6.2344 31.3837 6.12291 31.1865 6.01404C32.5371 4.42302 33.6736 3.56389 34.1242 3.24778C31.1695 1.83252 28.6184 1.04291 27.081 0.711062C26.6969 0.628428 26.3064 0.583832 25.9171 0.523497C21.8586 -0.0969114 8.71785 0.219195 8.71785 0.219195C8.33643 0.219195 7.99027 0.376592 7.73947 0.628428C7.48737 0.880264 7.33193 1.22916 7.33193 1.61216C7.33193 2.37816 7.955 3.00513 8.71785 3.00513H15.6213C16.3842 3.00513 17.0086 3.63078 17.0086 4.39678C17.0086 4.77978 16.8531 5.12737 16.601 5.38052C16.3502 5.63235 16.0028 5.78844 15.6213 5.78844H10.1586C9.7759 5.78844 9.42975 5.94584 9.17765 6.19767C8.92685 6.45082 8.7714 6.79709 8.7714 7.18141C8.7714 7.94609 9.39448 8.57306 10.1586 8.57306H13.6502C14.4118 8.57306 15.0361 9.20003 15.0361 9.96472C15.0361 10.3477 14.8807 10.6966 14.6286 10.9485C14.3778 11.2003 14.0316 11.3577 13.6502 11.3577H1.38592C1.0045 11.3577 0.658345 11.5138 0.407547 11.7656C0.155443 12.0188 0 12.3663 0 12.7493C0 13.5153 0.624383 14.1423 1.38592 14.1423H10.0123C10.7752 14.1423 11.3983 14.768 11.3983 15.534C11.3983 15.917 11.2428 16.2659 10.992 16.5177C10.7399 16.7695 10.3924 16.9269 10.0123 16.9269H6.50638C6.12496 16.9269 5.77881 17.083 5.52801 17.3362C5.27591 17.588 5.12046 17.9369 5.12046 18.3186C5.12046 19.0846 5.74485 19.7102 6.50638 19.7102H6.60566C7.3672 19.7115 7.99027 20.3372 7.99027 21.1032C7.99027 21.4849 7.83483 21.8338 7.58403 22.0856C7.33193 22.3388 6.98577 22.4949 6.60435 22.4949H1.38592C1.0045 22.4949 0.658345 22.6509 0.407547 22.9041C0.155443 23.1559 0 23.5048 0 23.8865C0 24.6538 0.624383 25.2795 1.38592 25.2795H4.42685C4.42685 25.3333 6.01654 26.5885 9.69492 27.609C14.656 28.9849 16.5553 28.8458 16.5553 28.8458C16.5553 28.8458 22.5744 29.6027 28.3258 27.5814C34.0772 25.5602 36.7628 22.3637 37.9593 19.3312C39.327 15.8711 38.5197 12.7834 37.1168 10.5235Z" fill="#ED0000"/>
<path d="M2.92835 19.711C3.30846 19.711 3.65592 19.555 3.90672 19.3031C4.15883 19.05 4.31427 18.7011 4.31427 18.3194C4.31427 17.5534 3.68989 16.9277 2.92835 16.9277H2.28045C1.90034 16.9277 1.55288 17.0838 1.30077 17.337C1.04997 17.5888 0.894531 17.9364 0.894531 18.3194C0.894531 19.0854 1.51761 19.711 2.28045 19.711H2.92835Z" fill="#ED0000"/>
<path d="M5.16848 8.57173H6.5753C6.95672 8.57173 7.30287 8.41565 7.55498 8.1625C7.80578 7.91066 7.96253 7.56308 7.96253 7.18008C7.96253 6.41408 7.33814 5.78711 6.5753 5.78711H5.16848C4.78706 5.78711 4.4409 5.94451 4.1888 6.19634C3.938 6.44949 3.78125 6.79576 3.78125 7.18008C3.78125 7.94477 4.40563 8.57173 5.16848 8.57173Z" fill="#ED0000"/>
<path d="M35.0452 17.3306C33.7298 22.5287 27.1359 25.0339 21.8365 25.4051L23.37 22.9838C23.37 22.9838 25.8858 22.9891 25.8871 22.9877C26.2503 22.9694 26.5363 22.6677 26.5363 22.2991C26.5363 21.9332 26.2516 21.6315 25.8897 21.6118C25.8884 21.6105 13.0781 21.6158 13.0781 21.6158C13.0781 21.6158 16.3934 14.0095 21.4459 13.5977H31.5719C31.9638 13.5977 32.2812 13.279 32.2812 12.8855C32.2812 12.492 31.9638 12.1745 31.5719 12.1745H30.361L31.7273 10.1113C31.7273 10.1113 36.3593 12.1326 35.0452 17.3306Z" fill="#161616"/>
<path d="M50.6321 8.21356C49.5597 8.21356 48.691 7.34132 48.691 6.26577C48.691 5.1876 49.5597 4.31535 50.6321 4.31535C51.7032 4.31535 52.5732 5.1876 52.5732 6.26577C52.5732 7.34132 51.7032 8.21356 50.6321 8.21356ZM63.5822 7.30591C62.7201 6.35759 61.888 6.2133 60.2552 5.82112C58.6211 5.42894 58.4996 5.23351 58.4996 5.23351C58.4996 5.23351 55.4482 0.190231 48.0849 0.00528938C39.7655 -0.204574 34.7051 5.89851 34.4125 6.20806C34.4125 6.20806 37.2079 7.52364 38.872 10.926C41.4597 16.2172 38.7179 20.6716 39.0575 20.1771C39.3958 19.6813 40.6354 17.6981 42.0148 15.5981C43.227 13.7513 44.7266 12.9368 45.9584 12.6587C47.1915 12.3807 49.3167 12.6745 50.026 13.1847C48.7315 14.7862 47.7453 17.9486 47.7453 17.9486C47.7453 17.9486 43.4164 31.0362 42.8783 32.058C42.5151 32.7426 41.3369 35.5535 37.7787 38.3998C34.2205 41.246 30.1829 41.8651 27.4098 41.8953C24.6379 41.9268 22.527 41.2618 20.3848 40.3187C21.0327 40.2256 23.0965 39.8531 25.871 38.0587C28.6428 36.2657 30.3684 33.6503 30.3684 33.6503L36.7559 23.7382C36.654 23.8864 33.3244 28.5991 23.4466 30.0157C20.5559 30.4302 17.4275 30.2426 17.4275 30.2426C17.4275 30.2426 16.4517 30.8303 14.6439 30.8919C12.8373 30.9536 12.0562 30.3659 10.9563 29.8098C9.8591 29.2523 9.27391 30.3607 9.43719 30.8526C11.4501 36.8901 16.7195 42.3294 23.8973 43.5663C31.0777 44.8045 36.4999 42.3294 40.4121 38.771C44.3256 35.2125 45.5273 30.7883 45.5273 30.7883C45.5273 30.7883 48.2391 22.6823 50.0874 17.3925C51.9357 12.1013 56.0034 10.4106 57.5134 9.96723C59.0221 9.5239 60.5843 9.5134 61.9703 9.65768C63.3575 9.80196 63.3353 9.81246 63.7063 9.56587C64.0759 9.31797 64.4456 8.25554 63.5822 7.30591Z" fill="#161616"/>
<path d="M13.773 40.6465C14.1217 40.9455 16.9262 43.338 20.5615 44.6588C24.1981 45.9783 27.2168 45.9573 27.2168 45.9573C27.2168 45.9573 28.2644 47.7517 26.868 49.7113C25.4717 51.6709 23.3137 51.8571 22.0611 51.6499C20.8084 51.4439 19.3702 50.5573 18.3644 49.546C17.3573 48.536 14.9538 45.8131 14.4195 45.2149C13.8866 44.6168 13.1081 43.5452 13.1055 42.307C13.1042 41.3325 13.773 40.6465 13.773 40.6465Z" fill="#161616"/>
<path d="M37.5117 43.3259C38.2693 42.9062 41.4331 41.3388 44.0834 37.657C46.7325 33.9752 47.4196 31.5684 47.4196 31.5684C47.4196 31.5684 50.0346 32.2714 50.3834 35.0888C50.676 37.4616 49.6284 38.7404 48.7349 39.7294C47.8415 40.7197 44.8528 42.514 44.2676 42.7934C43.6824 43.0715 42.0496 44.1536 41.3403 44.4631C40.6323 44.7727 38.5515 45.2829 37.5117 43.3259Z" fill="#161616"/>
</svg>
