<svg width="123" height="46" viewBox="0 0 123 46" fill="none" xmlns="http://www.w3.org/2000/svg">
<g filter="url(#filter0_d_959_89)">
<rect x="4" width="115" height="38" rx="7" fill="#0C0D10" shape-rendering="crispEdges"/>
<rect x="4.5" y="0.5" width="114" height="37" rx="6.5" stroke="#A6A6A6" shape-rendering="crispEdges"/>
<path d="M82.1278 18.2408V20.4173H80.7516V21.8446H82.1278V26.6944C82.1278 28.3504 82.8835 29.0128 84.7847 29.0128C85.1188 29.0128 85.437 28.9733 85.7154 28.926V27.5145C85.4768 27.5381 85.3256 27.5539 85.0631 27.5539C84.2119 27.5539 83.8381 27.1596 83.8381 26.2606V21.8446H85.7154V20.4173H83.8381V18.2408H82.1278Z" fill="white"/>
<path d="M90.5587 29.1311C93.0884 29.1311 94.6396 27.4514 94.6396 24.6677C94.6396 21.8998 93.0804 20.2123 90.5587 20.2123C88.029 20.2123 86.4699 21.8998 86.4699 24.6677C86.4699 27.4514 88.0211 29.1311 90.5587 29.1311ZM90.5587 27.6249C89.0711 27.6249 88.2359 26.5445 88.2359 24.6677C88.2359 22.8067 89.0711 21.7185 90.5587 21.7185C92.0383 21.7185 92.8815 22.8067 92.8815 24.6677C92.8815 26.5366 92.0383 27.6249 90.5587 27.6249Z" fill="white"/>
<path d="M95.9668 28.9655H97.6771V23.8949C97.6771 22.6884 98.5919 21.8762 99.8885 21.8762C100.191 21.8762 100.7 21.9314 100.843 21.9787V20.3069C100.66 20.2596 100.334 20.2359 100.079 20.2359C98.9499 20.2359 97.9873 20.851 97.7407 21.6948H97.6134V20.3779H95.9668V28.9655Z" fill="white"/>
<path d="M105.09 21.6554C106.355 21.6554 107.182 22.5307 107.222 23.8791H102.846C102.942 22.5386 103.825 21.6554 105.09 21.6554ZM107.214 26.647C106.896 27.3173 106.188 27.688 105.153 27.688C103.785 27.688 102.902 26.7338 102.846 25.2276V25.133H108.964V24.5415C108.964 21.8446 107.508 20.2123 105.098 20.2123C102.656 20.2123 101.104 21.955 101.104 24.6993C101.104 27.4435 102.624 29.1311 105.106 29.1311C107.086 29.1311 108.471 28.1848 108.86 26.647H107.214Z" fill="white"/>
<path d="M70.9118 25.7942C71.0437 27.9029 72.8164 29.2515 75.4548 29.2515C78.2746 29.2515 80.0391 27.8375 80.0391 25.5817C80.0391 23.8081 79.0332 22.8273 76.5927 22.2633L75.2817 21.9446C73.7316 21.5849 73.105 21.1027 73.105 20.2608C73.105 19.1983 74.0779 18.5036 75.5373 18.5036C76.9225 18.5036 77.8789 19.182 78.052 20.269H79.8494C79.7423 18.2829 77.9778 16.8853 75.562 16.8853C72.9648 16.8853 71.2334 18.2829 71.2334 20.3834C71.2334 22.1162 72.2145 23.146 74.3665 23.6446L75.9001 24.0124C77.4749 24.3802 78.1675 24.9196 78.1675 25.8187C78.1675 26.8649 77.0791 27.625 75.595 27.625C74.0037 27.625 72.8989 26.9139 72.7422 25.7942H70.9118Z" fill="white"/>
<path d="M53.1948 20.2359C52.0175 20.2359 50.9992 20.8195 50.4742 21.7973H50.3469V20.3779H48.7003V31.8201H50.4106V27.6643H50.5458C50.9992 28.5712 51.9777 29.1074 53.2107 29.1074C55.3983 29.1074 56.7904 27.3962 56.7904 24.6677C56.7904 21.9393 55.3983 20.2359 53.1948 20.2359ZM52.7095 27.5854C51.2777 27.5854 50.3788 26.4657 50.3788 24.6756C50.3788 22.8777 51.2777 21.7579 52.7175 21.7579C54.1653 21.7579 55.0324 22.854 55.0324 24.6677C55.0324 26.4893 54.1653 27.5854 52.7095 27.5854Z" fill="white"/>
<path d="M62.7751 20.2359C61.5977 20.2359 60.5795 20.8195 60.0545 21.7973H59.9272V20.3779H58.2805V31.8201H59.9908V27.6643H60.1261C60.5795 28.5712 61.558 29.1074 62.791 29.1074C64.9786 29.1074 66.3707 27.3962 66.3707 24.6677C66.3707 21.9393 64.9786 20.2359 62.7751 20.2359ZM62.2898 27.5854C60.8579 27.5854 59.959 26.4657 59.959 24.6756C59.959 22.8777 60.8579 21.7579 62.2978 21.7579C63.7456 21.7579 64.6126 22.854 64.6126 24.6677C64.6126 26.4893 63.7456 27.5854 62.2898 27.5854Z" fill="white"/>
<path d="M45.6317 28.9655H47.594L43.2983 17.1713H41.3113L37.0156 28.9655H38.912L40.0086 25.8351H44.5433L45.6317 28.9655ZM42.21 19.3127H42.3502L44.0734 24.2985H40.4785L42.21 19.3127Z" fill="white"/>
<path d="M38.1641 8.27604V13.9656H40.2363C41.9466 13.9656 42.937 12.9207 42.937 11.1031C42.937 9.31301 41.9387 8.27604 40.2363 8.27604H38.1641ZM39.055 9.08038H40.1369C41.3261 9.08038 42.0302 9.82953 42.0302 11.1149C42.0302 12.42 41.3381 13.1613 40.1369 13.1613H39.055V9.08038Z" fill="white"/>
<path d="M45.9702 14.0484C47.2351 14.0484 48.0107 13.2086 48.0107 11.8167C48.0107 10.4328 47.2311 9.58901 45.9702 9.58901C44.7054 9.58901 43.9258 10.4328 43.9258 11.8167C43.9258 13.2086 44.7014 14.0484 45.9702 14.0484ZM45.9702 13.2953C45.2264 13.2953 44.8088 12.7551 44.8088 11.8167C44.8088 10.8862 45.2264 10.3421 45.9702 10.3421C46.71 10.3421 47.1316 10.8862 47.1316 11.8167C47.1316 12.7512 46.71 13.2953 45.9702 13.2953Z" fill="white"/>
<path d="M54.6156 9.67181H53.7605L52.9888 12.9483H52.9212L52.0303 9.67181H51.2109L50.32 12.9483H50.2563L49.4807 9.67181H48.6136L49.8069 13.9656H50.6859L51.5768 10.8034H51.6445L52.5394 13.9656H53.4264L54.6156 9.67181Z" fill="white"/>
<path d="M55.6004 13.9656H56.4556V11.454C56.4556 10.7837 56.8573 10.3658 57.4897 10.3658C58.1221 10.3658 58.4244 10.7088 58.4244 11.3988V13.9656H59.2796V11.1859C59.2796 10.1647 58.7466 9.58901 57.7801 9.58901C57.1278 9.58901 56.6982 9.87684 56.4874 10.3539H56.4238V9.67181H55.6004V13.9656Z" fill="white"/>
<path d="M60.6264 13.9656H61.4815V7.99609H60.6264V13.9656Z" fill="white"/>
<path d="M64.6977 14.0484C65.9625 14.0484 66.7381 13.2086 66.7381 11.8167C66.7381 10.4328 65.9585 9.58901 64.6977 9.58901C63.4328 9.58901 62.6533 10.4328 62.6533 11.8167C62.6533 13.2086 63.4289 14.0484 64.6977 14.0484ZM64.6977 13.2953C63.9539 13.2953 63.5363 12.7551 63.5363 11.8167C63.5363 10.8862 63.9539 10.3421 64.6977 10.3421C65.4375 10.3421 65.8591 10.8862 65.8591 11.8167C65.8591 12.7512 65.4375 13.2953 64.6977 13.2953Z" fill="white"/>
<path d="M69.2861 13.3229C68.8207 13.3229 68.4826 13.0982 68.4826 12.7118C68.4826 12.3333 68.7531 12.1322 69.3497 12.0927L70.4077 12.0257V12.3845C70.4077 12.9168 69.9304 13.3229 69.2861 13.3229ZM69.0673 14.0366C69.6361 14.0366 70.1094 13.7921 70.3679 13.3623H70.4356V13.9656H71.2589V11.0321C71.2589 10.1252 70.6464 9.58901 69.5605 9.58901C68.5781 9.58901 67.8781 10.0622 67.7906 10.7995H68.6179C68.7133 10.4959 69.0434 10.3224 69.5207 10.3224C70.1054 10.3224 70.4077 10.5787 70.4077 11.0321V11.4027L69.2344 11.4698C68.2042 11.5328 67.6235 11.9784 67.6235 12.7512C67.6235 13.5358 68.232 14.0366 69.0673 14.0366Z" fill="white"/>
<path d="M74.1608 14.0366C74.7575 14.0366 75.2626 13.7566 75.5211 13.2874H75.5888V13.9656H76.4081V7.99609H75.553V10.3539H75.4893C75.2546 9.88079 74.7535 9.60084 74.1608 9.60084C73.067 9.60084 72.363 10.4604 72.363 11.8167C72.363 13.177 73.0591 14.0366 74.1608 14.0366ZM74.4035 10.3618C75.1194 10.3618 75.5689 10.9256 75.5689 11.8207C75.5689 12.7197 75.1234 13.2756 74.4035 13.2756C73.6796 13.2756 73.246 12.7275 73.246 11.8167C73.246 10.9138 73.6836 10.3618 74.4035 10.3618Z" fill="white"/>
<path d="M81.9535 14.0484C83.2183 14.0484 83.9939 13.2086 83.9939 11.8167C83.9939 10.4328 83.2143 9.58901 81.9535 9.58901C80.6886 9.58901 79.9091 10.4328 79.9091 11.8167C79.9091 13.2086 80.6847 14.0484 81.9535 14.0484ZM81.9535 13.2953C81.2097 13.2953 80.7921 12.7551 80.7921 11.8167C80.7921 10.8862 81.2097 10.3421 81.9535 10.3421C82.6933 10.3421 83.1149 10.8862 83.1149 11.8167C83.1149 12.7512 82.6933 13.2953 81.9535 13.2953Z" fill="white"/>
<path d="M85.1259 13.9656H85.9811V11.454C85.9811 10.7837 86.3828 10.3658 87.0152 10.3658C87.6476 10.3658 87.9499 10.7088 87.9499 11.3988V13.9656H88.805V11.1859C88.805 10.1647 88.2721 9.58901 87.3055 9.58901C86.6532 9.58901 86.2237 9.87684 86.0129 10.3539H85.9492V9.67181H85.1259V13.9656Z" fill="white"/>
<path d="M92.7435 8.6033V9.69153H92.0554V10.4052H92.7435V12.8301C92.7435 13.6581 93.1214 13.9893 94.072 13.9893C94.239 13.9893 94.3981 13.9695 94.5374 13.9459V13.2401C94.418 13.2519 94.3425 13.2598 94.2112 13.2598C93.7856 13.2598 93.5987 13.0627 93.5987 12.6132V10.4052H94.5374V9.69153H93.5987V8.6033H92.7435Z" fill="white"/>
<path d="M95.6853 13.9656H96.5404V11.4579C96.5404 10.8074 96.9302 10.3697 97.6302 10.3697C98.2348 10.3697 98.557 10.7167 98.557 11.4027V13.9656H99.4121V11.1938C99.4121 10.1726 98.8434 9.59296 97.9206 9.59296C97.2683 9.59296 96.8109 9.88079 96.6001 10.3618H96.5325V7.99609H95.6853V13.9656Z" fill="white"/>
<path d="M102.497 10.3106C103.129 10.3106 103.543 10.7482 103.563 11.4224H101.375C101.423 10.7522 101.865 10.3106 102.497 10.3106ZM103.559 12.8064C103.4 13.1415 103.046 13.3269 102.529 13.3269C101.845 13.3269 101.403 12.8498 101.375 12.0967V12.0494H104.434V11.7536C104.434 10.4052 103.706 9.58901 102.501 9.58901C101.28 9.58901 100.504 10.4604 100.504 11.8325C100.504 13.2046 101.264 14.0484 102.505 14.0484C103.495 14.0484 104.187 13.5753 104.382 12.8064H103.559Z" fill="white"/>
<path d="M27.7354 19.286C27.7562 17.6891 28.6214 16.178 29.9938 15.3416C29.128 14.1157 27.6778 13.3386 26.169 13.2918C24.5597 13.1243 22.9996 14.2463 22.1795 14.2463C21.3436 14.2463 20.081 13.3084 18.7214 13.3361C16.9492 13.3929 15.297 14.3917 14.4348 15.9276C12.5814 19.1086 13.9639 23.7836 15.7393 26.3549C16.6276 27.6139 17.6657 29.0204 19.0241 28.9705C20.3534 28.9158 20.8498 28.1302 22.4544 28.1302C24.044 28.1302 24.5098 28.9705 25.8957 28.9388C27.3221 28.9158 28.2208 27.6741 29.0779 26.4031C29.7161 25.506 30.2072 24.5144 30.5331 23.4652C28.8568 22.7624 27.7374 21.0902 27.7354 19.286Z" fill="white"/>
<path d="M25.1176 11.6008C25.8953 10.6753 26.2785 9.48569 26.1857 8.28467C24.9975 8.40838 23.9 8.97131 23.1118 9.8613C22.341 10.7309 21.9399 11.8995 22.0157 13.0546C23.2043 13.0667 24.3728 12.5191 25.1176 11.6008Z" fill="white"/>
</g>
<defs>
<filter id="filter0_d_959_89" x="0" y="0" width="123" height="46" filterUnits="userSpaceOnUse" color-interpolation-filters="sRGB">
<feFlood flood-opacity="0" result="BackgroundImageFix"/>
<feColorMatrix in="SourceAlpha" type="matrix" values="0 0 0 0 0 0 0 0 0 0 0 0 0 0 0 0 0 0 127 0" result="hardAlpha"/>
<feOffset dy="4"/>
<feGaussianBlur stdDeviation="2"/>
<feComposite in2="hardAlpha" operator="out"/>
<feColorMatrix type="matrix" values="0 0 0 0 0 0 0 0 0 0 0 0 0 0 0 0 0 0 0.25 0"/>
<feBlend mode="normal" in2="BackgroundImageFix" result="effect1_dropShadow_959_89"/>
<feBlend mode="normal" in="SourceGraphic" in2="effect1_dropShadow_959_89" result="shape"/>
</filter>
</defs>
</svg>
