<svg width="127" height="38" viewBox="0 0 127 38" fill="none" xmlns="http://www.w3.org/2000/svg">
<rect x="0.5" y="0.5" width="126" height="37" rx="6.25" fill="#100F0D"/>
<rect x="0.5" y="0.5" width="126" height="37" rx="6.25" stroke="#A6A6A6"/>
<path d="M43.3495 24.1404H46.6876L45.4926 20.9578C45.3281 20.5181 45.1664 20.0325 45.007 19.5006C44.8631 19.9711 44.7062 20.4516 44.5366 20.9424L43.3495 24.1404ZM47.2579 25.6514H42.7868L41.6923 28.627H39.7266L44.105 17.5143H45.9629L50.4417 28.627H48.3758L47.2579 25.6514Z" fill="white"/>
<path d="M56.2405 26.6062C56.6286 26.0874 56.8226 25.3292 56.8226 24.3322C56.8226 23.407 56.6619 22.7357 56.3408 22.3189C56.0195 21.9023 55.5917 21.694 55.0572 21.694C54.6872 21.694 54.3455 21.7811 54.0321 21.9548C53.7186 22.1286 53.4204 22.3612 53.1378 22.6526V27.0855C53.328 27.1775 53.549 27.2504 53.8008 27.3039C54.0527 27.3579 54.302 27.3847 54.5485 27.3847C55.2887 27.3847 55.8525 27.125 56.2405 26.6062ZM51.2339 22.3766C51.2339 21.7631 51.2132 21.0881 51.1722 20.3519H52.9605C53.0273 20.6945 53.0736 21.0448 53.0993 21.4026C53.8393 20.6 54.6873 20.1984 55.6432 20.1984C56.1983 20.1984 56.7121 20.3378 57.185 20.6163C57.6576 20.8951 58.0393 21.3348 58.3296 21.9355C58.6201 22.5363 58.7652 23.2996 58.7652 24.2249C58.7652 25.1912 58.5995 26.017 58.268 26.702C57.9364 27.3873 57.4727 27.906 56.8766 28.259C56.2805 28.6116 55.5917 28.7881 54.8107 28.7881C54.2452 28.7881 53.6875 28.6934 53.1378 28.5044V31.9247L51.2339 32.0858V22.3766Z" fill="white"/>
<path d="M64.9274 26.6062C65.3155 26.0874 65.5095 25.3292 65.5095 24.3322C65.5095 23.407 65.3489 22.7357 65.0278 22.3189C64.7064 21.9023 64.2786 21.694 63.7441 21.694C63.3742 21.694 63.0324 21.7811 62.719 21.9548C62.4053 22.1286 62.1073 22.3612 61.8247 22.6526V27.0855C62.0149 27.1775 62.2357 27.2504 62.4878 27.3039C62.7394 27.3579 62.9886 27.3847 63.2354 27.3847C63.9753 27.3847 64.5394 27.125 64.9274 26.6062ZM59.9205 22.3766C59.9205 21.7631 59.8999 21.0881 59.8589 20.3519H61.6475C61.7142 20.6945 61.7605 21.0448 61.7863 21.4026C62.5262 20.6 63.3742 20.1984 64.3301 20.1984C64.8852 20.1984 65.3988 20.3378 65.8719 20.6163C66.3445 20.8951 66.7262 21.3348 67.0167 21.9355C67.3068 22.5363 67.4522 23.2996 67.4522 24.2249C67.4522 25.1912 67.2861 26.017 66.9549 26.702C66.6233 27.3873 66.1594 27.906 65.5635 28.259C64.9672 28.6116 64.2786 28.7881 63.4974 28.7881C62.9321 28.7881 62.3745 28.6934 61.8247 28.5044V31.9247L59.9205 32.0858V22.3766Z" fill="white"/>
<path d="M70.9499 28.1017C70.1274 27.6494 69.4954 27.0011 69.0536 26.1575C68.6113 25.3139 68.3905 24.3169 68.3905 23.1665C68.3905 21.9191 68.6449 20.8593 69.1537 19.9875C69.6624 19.116 70.355 18.4614 71.231 18.0242C72.1074 17.5871 73.0901 17.3685 74.1799 17.3685C74.8221 17.3685 75.435 17.4389 76.0184 17.5794C76.6015 17.7201 77.1449 17.913 77.6488 18.1585L77.163 19.6156C76.1505 19.135 75.1845 18.8947 74.2647 18.8947C73.4886 18.8947 72.809 19.0596 72.2258 19.3895C71.6425 19.7193 71.1887 20.2037 70.8651 20.8428C70.5412 21.4819 70.3795 22.2539 70.3795 23.1588C70.3795 23.9515 70.504 24.6544 70.753 25.2679C71.0026 25.8814 71.3957 26.3673 71.9328 26.725C72.4698 27.083 73.1469 27.2618 73.964 27.2618C74.334 27.2618 74.704 27.2312 75.074 27.1699C75.444 27.1086 75.791 27.0191 76.1146 26.9014V24.6544H73.5324V23.1819H77.9648V27.8602C77.3275 28.1566 76.6581 28.3844 75.9568 28.5427C75.255 28.701 74.5576 28.7803 73.8637 28.7803C72.7433 28.7803 71.7718 28.5544 70.9499 28.1017Z" fill="white"/>
<path d="M83.5903 27.0931C83.9857 26.9042 84.3096 26.6687 84.5615 26.3876V24.8538C84.0423 24.7976 83.6183 24.7694 83.2896 24.7694C82.5032 24.7694 81.9596 24.8958 81.6594 25.1491C81.3584 25.4019 81.2082 25.7434 81.2082 26.1728C81.2082 26.5821 81.3174 26.8849 81.5359 27.0817C81.7544 27.2785 82.051 27.3769 82.4261 27.3769C82.8063 27.3769 83.1943 27.2824 83.5903 27.0931ZM84.7311 28.627C84.6641 28.3048 84.6203 27.9395 84.5999 27.5304C84.3071 27.8782 83.9256 28.1733 83.4551 28.4162C82.9853 28.659 82.4544 28.7803 81.8633 28.7803C81.3854 28.7803 80.95 28.6871 80.5565 28.5004C80.1639 28.3139 79.8514 28.0327 79.6202 27.6567C79.389 27.2811 79.2732 26.8223 79.2732 26.2801C79.2732 25.4776 79.5634 24.8371 80.1443 24.3589C80.7251 23.881 81.6938 23.642 83.0505 23.642C83.5592 23.642 84.0629 23.6779 84.5615 23.7494V23.5884C84.5615 22.8573 84.4046 22.3422 84.0911 22.0428C83.7777 21.744 83.328 21.5944 82.7423 21.5944C82.3362 21.5944 81.902 21.6532 81.4394 21.7707C80.9769 21.8885 80.5708 22.029 80.2214 22.1926L79.9207 20.8121C80.2599 20.6586 80.707 20.5181 81.2621 20.3902C81.8172 20.2626 82.4029 20.1984 83.0196 20.1984C83.7392 20.1984 84.3506 20.3071 84.8543 20.5243C85.358 20.7417 85.7511 21.1151 86.0338 21.644C86.3164 22.1735 86.4577 22.8855 86.4577 23.78V27.07C86.4577 27.4128 86.4781 27.932 86.5194 28.627H84.7311Z" fill="white"/>
<path d="M87.9186 26.6406V16.8624L89.8148 16.709V26.3032C89.8148 26.6561 89.8752 26.9051 89.9959 27.051C90.1166 27.1965 90.3081 27.2697 90.5704 27.2697C90.6885 27.2697 90.8555 27.2416 91.0712 27.1853L91.2948 28.5427C91.1148 28.6144 90.8953 28.6719 90.6361 28.7152C90.3763 28.7585 90.1309 28.7803 89.8996 28.7803C88.5786 28.7803 87.9186 28.0672 87.9186 26.6406Z" fill="white"/>
<path d="M92.6594 26.6406V16.8624L94.5557 16.709V26.3032C94.5557 26.6561 94.616 26.9051 94.7367 27.051C94.8577 27.1965 95.0492 27.2697 95.3112 27.2697C95.4293 27.2697 95.5964 27.2416 95.8123 27.1853L96.0359 28.5427C95.8559 28.6144 95.6361 28.6719 95.3769 28.7152C95.1171 28.7585 94.8717 28.7803 94.6405 28.7803C93.3197 28.7803 92.6594 28.0672 92.6594 26.6406Z" fill="white"/>
<path d="M101.978 23.527C101.94 22.8674 101.774 22.3729 101.476 22.0428C101.179 21.7133 100.779 21.5482 100.282 21.5482C99.7984 21.5482 99.3961 21.7146 99.0752 22.0468C98.7544 22.3793 98.543 22.8726 98.4463 23.527H101.978ZM103.834 24.731H98.3928C98.4794 26.4644 99.3095 27.331 100.883 27.331C101.273 27.331 101.673 27.2837 102.083 27.1892C102.49 27.0944 102.882 26.968 103.256 26.8094L103.674 28.1054C102.742 28.5556 101.698 28.7803 100.537 28.7803C99.6507 28.7803 98.9072 28.6144 98.3012 28.282C97.6926 27.9497 97.2368 27.4716 96.9312 26.8477C96.6261 26.2242 96.4731 25.4725 96.4731 24.593C96.4731 23.6779 96.6351 22.8904 96.9592 22.2309C97.2826 21.5713 97.7333 21.0678 98.3113 20.7201C98.8894 20.3724 99.5565 20.1984 100.313 20.1984C101.1 20.1984 101.754 20.3813 102.281 20.747C102.808 21.1123 103.198 21.5995 103.452 22.2078C103.707 22.8165 103.834 23.4886 103.834 24.2249V24.731Z" fill="white"/>
<path d="M105.276 22.4303C105.276 21.9754 105.253 21.2826 105.212 20.3519H106.994C107.025 20.582 107.053 20.8568 107.084 21.1764C107.112 21.4959 107.129 21.7554 107.14 21.9548C107.361 21.5918 107.578 21.2863 107.791 21.0384C108.005 20.7902 108.255 20.5885 108.54 20.4323C108.825 20.2764 109.149 20.1985 109.515 20.1985C109.808 20.1985 110.058 20.2292 110.269 20.2906L110.03 21.9318C109.846 21.8756 109.64 21.8474 109.413 21.8474C108.968 21.8474 108.576 21.9612 108.242 22.1888C107.909 22.4161 107.552 22.7907 107.17 23.3122V28.627H105.276V22.4303Z" fill="white"/>
<path d="M111.339 32.0129C111.061 31.9645 110.832 31.9095 110.654 31.8482L111 30.4677C111.127 30.5033 111.29 30.5379 111.486 30.5712C111.68 30.6046 111.866 30.621 112.041 30.621C112.884 30.621 113.516 30.0814 113.936 29.0028L114.061 28.696L110.992 20.3519H113.034L114.577 25.0147C114.827 25.8125 114.99 26.4235 115.061 26.8477C115.206 26.2495 115.375 25.6513 115.571 25.0531L117.137 20.3519H119.054L115.996 28.7345C115.708 29.5269 115.395 30.1658 115.061 30.6517C114.728 31.1373 114.333 31.4978 113.88 31.7331C113.424 31.9681 112.877 32.0858 112.232 32.0858C111.914 32.0858 111.616 32.0618 111.339 32.0129Z" fill="white"/>
<path d="M39.7188 6.93526H43.1125L43.0171 7.75074H40.7134V9.33002H42.8857V10.0941H40.7134V11.8436H43.1403L43.0568 12.6669H39.7188V6.93526Z" fill="white"/>
<path d="M45.4519 9.74168L43.6615 6.93526H44.7914L46.005 8.99764L47.2822 6.93526H48.3802L46.6056 9.70596L48.5274 12.6669H47.3815L46.009 10.4107L44.6124 12.6669H43.5144L45.4519 9.74168Z" fill="white"/>
<path d="M51.7541 9.49418C51.9663 9.30316 52.0724 9.03311 52.0724 8.68478C52.0724 8.33112 51.9642 8.07678 51.7483 7.92098C51.5321 7.76518 51.2143 7.6874 50.7954 7.6874H50.2543V9.72192C50.5036 9.76144 50.6946 9.7812 50.8273 9.7812C51.2329 9.7812 51.542 9.6857 51.7541 9.49418ZM49.2595 6.93526H50.8112C51.5405 6.93526 52.0989 7.0832 52.4862 7.37859C52.8735 7.67423 53.067 8.1016 53.067 8.66096C53.067 9.04096 52.9802 9.37308 52.8066 9.65656C52.6326 9.9403 52.3907 10.1582 52.0803 10.3097C51.7702 10.4617 51.4132 10.5374 51.0101 10.5374C50.7901 10.5374 50.538 10.5111 50.2543 10.4581V12.6669H49.2595V6.93526Z" fill="white"/>
<path d="M54.0499 6.93526H55.0446V11.8198H57.4277L57.3442 12.6669H54.0499V6.93526Z" fill="white"/>
<path d="M61.5179 11.6832C61.7965 11.4973 62.0045 11.2414 62.1425 10.9154C62.2806 10.5896 62.3496 10.2167 62.3496 9.79716C62.3496 9.38549 62.2884 9.01891 62.1665 8.69667C62.0442 8.37469 61.8495 8.11832 61.5816 7.9268C61.3137 7.73553 60.9689 7.63977 60.547 7.63977C60.1439 7.63977 59.8017 7.7368 59.5206 7.93085C59.2394 8.12465 59.0286 8.38482 58.888 8.71061C58.7475 9.03665 58.6772 9.39613 58.6772 9.7893C58.6772 10.2035 58.7434 10.5744 58.8761 10.9014C59.0085 11.2287 59.2114 11.4874 59.4849 11.6774C59.7579 11.8674 60.096 11.9624 60.4994 11.9624C60.8999 11.9624 61.2393 11.8692 61.5179 11.6832ZM58.9397 12.386C58.518 12.1458 58.1957 11.8086 57.9729 11.3744C57.7501 10.9405 57.6388 10.4358 57.6388 9.86049C57.6388 9.25629 57.7572 8.72784 57.9948 8.27513C58.2321 7.82268 58.5743 7.47308 59.0212 7.22608C59.4681 6.97958 59.9952 6.85596 60.6028 6.85596C61.1836 6.85596 61.6837 6.97553 62.1028 7.21417C62.5217 7.45332 62.8415 7.78898 63.0615 8.22167C63.2818 8.65462 63.3918 9.15597 63.3918 9.72597C63.3918 10.3408 63.2719 10.8753 63.0317 11.3291C62.7916 11.7828 62.4496 12.1326 62.0053 12.3779C61.561 12.6233 61.0392 12.7461 60.4398 12.7461C59.8615 12.7461 59.3614 12.6261 58.9397 12.386Z" fill="white"/>
<path d="M66.0617 9.64668C66.3028 9.64668 66.5165 9.60007 66.7021 9.50608C66.8877 9.4126 67.0324 9.28062 67.1357 9.11038C67.2394 8.94014 67.2911 8.74279 67.2911 8.51859C67.2911 8.23106 67.1994 8.02054 67.0166 7.88728C66.8335 7.75403 66.5669 7.6874 66.2168 7.6874H65.4966V9.64668H66.0617ZM64.502 6.93526H66.3043C66.9621 6.93526 67.4602 7.06598 67.7983 7.32716C68.1365 7.58835 68.3055 7.96202 68.3055 8.4474C68.3055 8.7509 68.2444 9.01816 68.1225 9.24895C68.0005 9.47999 67.8492 9.66796 67.669 9.81287C67.4884 9.95803 67.303 10.0662 67.1121 10.1376L68.8825 12.6669H67.7288L66.2287 10.3948H65.4966V12.6669H64.502V6.93526Z" fill="white"/>
<path d="M69.6704 6.93526H73.0642L72.9687 7.75074H70.665V9.33002H72.8373V10.0941H70.665V11.8436H73.0919L73.0084 12.6669H69.6704V6.93526Z" fill="white"/>
<path d="M76.7564 6.93526H77.751V12.6669H76.7564V6.93526Z" fill="white"/>
<path d="M80.3809 7.76264H78.5944L78.682 6.93526H83.1661L83.0745 7.76264H81.3755V12.6669H80.3809V7.76264Z" fill="white"/>
<path d="M90.0612 11.6832C90.3395 11.4973 90.5478 11.2414 90.6858 10.9154C90.8236 10.5896 90.8926 10.2167 90.8926 9.79716C90.8926 9.38549 90.8315 9.01891 90.7097 8.69667C90.5875 8.37469 90.3925 8.11832 90.1248 7.9268C89.8567 7.73553 89.5119 7.63977 89.0903 7.63977C88.6869 7.63977 88.3449 7.7368 88.0638 7.93085C87.7824 8.12465 87.5716 8.38482 87.4313 8.71061C87.2905 9.03665 87.2202 9.39613 87.2202 9.7893C87.2202 10.2035 87.2864 10.5744 87.4193 10.9014C87.5517 11.2287 87.7547 11.4874 88.0279 11.6774C88.3011 11.8674 88.6393 11.9624 89.0426 11.9624C89.4429 11.9624 89.7826 11.8692 90.0612 11.6832ZM87.483 12.386C87.0611 12.1458 86.7389 11.8086 86.5161 11.3744C86.2933 10.9405 86.1818 10.4358 86.1818 9.86049C86.1818 9.25629 86.3004 8.72784 86.538 8.27513C86.7751 7.82268 87.1173 7.47308 87.5645 7.22608C88.0114 6.97958 88.5384 6.85596 89.146 6.85596C89.7268 6.85596 90.2267 6.97553 90.6461 7.21417C91.065 7.45332 91.3845 7.78898 91.6048 8.22167C91.8248 8.65462 91.9351 9.15597 91.9351 9.72597C91.9351 10.3408 91.8149 10.8753 91.575 11.3291C91.3349 11.7828 90.9926 12.1326 90.5485 12.3779C90.1042 12.6233 89.5822 12.7461 88.9828 12.7461C88.4045 12.7461 87.9047 12.6261 87.483 12.386Z" fill="white"/>
<path d="M93.045 6.93526H94.187L97.0362 11.3764C97.0107 10.9544 97.0005 10.565 97.0005 10.2088V6.93526H97.9223V12.6669H96.8172L93.9245 8.1543C93.9536 8.66654 93.9681 9.12026 93.9681 9.51596V12.6669H93.045V6.93526Z" fill="white"/>
<path fill-rule="evenodd" clip-rule="evenodd" d="M25.7283 6.96678H15.1497C10.1664 6.96678 8.34375 8.78014 8.34375 13.7379V24.2625C8.34375 29.2201 10.1664 31.0334 15.1497 31.0334H25.725C30.7082 31.0334 32.5342 29.2201 32.5342 24.2625V13.7379C32.5342 8.78014 30.7115 6.96678 25.7283 6.96678Z" fill="#C91C2E"/>
<path d="M18.897 20.9244H19.8671L19.3805 19.7985L18.897 20.9244ZM18.6581 21.4919L18.3704 22.147H17.7152L19.1086 19.0022H19.6746L21.0624 22.147H20.3897L20.1055 21.4919H18.6581ZM29.2008 22.1448H29.8341V19.0022H29.2008V22.1448ZM26.6807 20.7944H27.8477V20.2218H26.6807V19.5776H28.3748V19.0042H26.0477V22.1467H28.4359V21.5735H26.6807V20.7944ZM24.1646 21.1658L23.4466 19.0021H22.923L22.205 21.1658L21.5062 19.0036H20.8233L21.9256 22.1485H22.4568L23.1759 20.0827L23.8947 22.1485H24.4307L25.5303 19.0036H24.8649L24.1646 21.1658ZM16.7486 20.8032C16.7486 21.3148 16.4932 21.5881 16.0295 21.5881C15.5633 21.5881 15.3066 21.307 15.3066 20.7814V19.004H14.6649V20.8032C14.6649 21.6883 15.1592 22.1958 16.0209 22.1958C16.8909 22.1958 17.39 21.6786 17.39 20.7771V19.0021H16.7486V20.8032ZM13.1338 19.0022H13.7752V22.1487H13.1338V20.8709H11.6846V22.1487H11.043V19.0022H11.6846V20.2715H13.1338V19.0022Z" fill="white"/>
<path d="M20.4406 14.9966C18.2205 14.9966 16.4141 13.1994 16.4141 10.9906H16.9829C16.9829 12.8874 18.5339 14.4307 20.4406 14.4307C22.3473 14.4307 23.8983 12.8874 23.8983 10.9906H24.4672C24.4672 13.1994 22.6608 14.9966 20.4406 14.9966Z" fill="white"/>
</svg>
