<svg width="106" height="38" viewBox="0 0 106 38" fill="none" xmlns="http://www.w3.org/2000/svg">
<g clip-path="url(#clip0_959_100)">
<mask id="mask0_959_100" style="mask-type:luminance" maskUnits="userSpaceOnUse" x="0" y="0" width="106" height="38">
<path d="M106 0H0V38H106V0Z" fill="white"/>
</mask>
<g mask="url(#mask0_959_100)">
<path d="M102.179 0.474609H3.8189C1.97298 0.474609 0.476562 1.96326 0.476562 3.79961V34.1996C0.476562 36.036 1.97298 37.5246 3.8189 37.5246H102.179C104.025 37.5246 105.522 36.036 105.522 34.1996V3.79961C105.522 1.96326 104.025 0.474609 102.179 0.474609Z" fill="#1A1C20" stroke="#393E45"/>
<path d="M43.7358 25.996C45.465 25.5525 46.6046 24.2257 46.6046 22.4911C46.6046 20.3452 44.8897 18.8359 42.4846 18.8359H38.1992V30.3844H40.1765V26.1391H41.5786L44.6453 30.3844H46.9678L43.7358 25.9925V25.996ZM42.4846 20.6385C43.7213 20.6385 44.577 21.3931 44.577 22.4911C44.577 23.5891 43.7213 24.3437 42.4846 24.3437H40.1765V20.6421H42.4846V20.6385Z" fill="white"/>
<path d="M51.4171 30.549C52.4561 30.549 53.4125 30.0089 53.9553 29.1077L54.3328 30.3845H55.7493V21.8652H53.8546V26.7973C53.8546 28.0096 53.0458 28.8608 51.9421 28.8608C50.8383 28.8608 50.0978 28.0096 50.0978 26.7973V21.8652H48.2031V27.0082C48.2031 29.0576 49.5872 30.549 51.4171 30.549Z" fill="white"/>
<path d="M61.7995 30.5476C63.9926 30.5476 65.8045 29.303 65.8045 27.2393C65.8045 24.9289 63.9099 24.2566 62.2777 23.6987C61.0086 23.2731 59.9049 22.8796 59.9049 21.846C59.9049 20.9447 60.7461 20.469 61.7348 20.469C62.7738 20.469 63.5144 21.0091 63.9278 21.9282L65.8082 21.6171C65.2149 19.8146 63.7158 18.6665 61.6701 18.6665C59.6245 18.6665 57.8809 19.8789 57.8809 21.9426C57.8809 24.2708 59.7755 24.9074 61.4077 25.4475C62.6588 25.8552 63.7805 26.2486 63.7805 27.3001C63.7805 28.2193 62.9392 28.7414 61.8175 28.7414C60.5305 28.7414 59.8402 28.1371 59.229 27.039L57.3164 27.3681C57.8773 29.3172 59.6568 30.5476 61.7995 30.5476Z" fill="white"/>
<path d="M70.9601 28.7469C70.3166 28.7469 70.0038 28.4358 70.0038 27.7956V23.5038H72.5599V21.8658H70.0038V19.4087H68.5873L68.1092 21.8658H66.707V23.5038H68.1092V27.7956C68.1092 29.4658 69.0798 30.385 70.9601 30.385H72.5599L72.7253 28.7469H70.9601Z" fill="white"/>
<path d="M78.1388 30.5494C80.8244 30.5494 82.719 28.7146 82.719 26.1252C82.719 23.5359 80.8244 21.7012 78.1388 21.7012C75.4532 21.7012 73.5586 23.5359 73.5586 26.1252C73.5586 28.7146 75.4532 30.5494 78.1388 30.5494ZM78.1388 28.8291C76.5893 28.8291 75.5359 27.7311 75.5359 26.1252C75.5359 24.5194 76.5893 23.4214 78.1388 23.4214C79.6883 23.4214 80.7417 24.5194 80.7417 26.1252C80.7417 27.7311 79.6883 28.8291 78.1388 28.8291Z" fill="white"/>
<path d="M86.2657 30.3845V25.3559C86.2657 24.2759 86.7942 23.6679 87.9483 23.6679H89.0376L88.8722 21.8652H88.5091C87.5025 21.8652 86.7295 22.1443 86.1507 23.0956L85.7876 21.8652H84.3711V30.3845H86.2657Z" fill="white"/>
<path d="M98.3586 26.028C98.3586 23.571 96.5146 21.7041 93.9079 21.7041C91.3014 21.7041 89.457 23.5567 89.457 26.1283C89.457 28.6997 91.3014 30.5523 93.9079 30.5523C95.6876 30.5523 97.3703 29.7155 98.0101 28.0952L96.2301 27.7984C95.8166 28.4064 95.026 28.832 94.0229 28.832C92.5741 28.832 91.6177 27.9486 91.4344 26.636H98.3224C98.3405 26.4572 98.3548 26.2605 98.3548 26.028M93.9043 23.3421C95.0907 23.3421 95.9827 24.0968 96.295 25.159H91.5494C91.8622 24.061 92.7538 23.3421 93.9079 23.3421" fill="white"/>
<path d="M9.25267 28.798C10.8647 30.3996 13.4561 30.3996 18.6426 30.3996H19.5576C24.7441 30.3996 27.3354 30.3996 28.9475 28.798C30.5595 27.1964 30.5595 24.616 30.5595 19.4552V18.544C30.5595 13.3832 30.5595 10.8028 28.9475 9.20123C27.3354 7.59961 24.7404 7.59961 19.5576 7.59961H18.6426C13.4561 7.59961 10.8611 7.59961 9.25267 9.20123C7.64062 10.8064 7.64062 13.3868 7.64062 18.544V19.4552C7.64062 24.616 7.64062 27.1964 9.25267 28.798Z" fill="#0077FF"/>
<path fill-rule="evenodd" clip-rule="evenodd" d="M25.3319 22.7554L23.7842 22.3711C23.5984 22.3177 23.4661 22.1504 23.4589 21.9582L23.2659 16.2884C23.2087 15.5374 22.6511 14.9395 22.0649 14.7651C22.0327 14.7544 21.997 14.7651 21.9791 14.7971C21.9576 14.8256 21.9684 14.8647 21.9935 14.8861C22.1364 14.9964 22.5367 15.3595 22.5367 15.9859V23.3996C22.5367 24.115 21.854 24.6417 21.1535 24.4673L19.5807 24.0758C19.4055 24.0153 19.2841 23.8551 19.2804 23.6666L19.0874 17.9968C19.0302 17.2458 18.4726 16.6479 17.8865 16.4735C17.8543 16.4628 17.8186 16.4735 17.8006 16.5055C17.7792 16.534 17.7899 16.5731 17.815 16.5945C17.9579 16.7048 18.3582 17.0679 18.3582 17.6943V23.873V25.108C18.3582 25.8234 17.6792 26.3501 16.9786 26.1757L12.5392 25.0724C11.9208 24.9193 11.4883 24.3677 11.4883 23.7377V16.3133C11.4883 15.5979 12.1674 15.0712 12.868 15.2456L15.6668 15.9397V14.6014C15.6668 13.8859 16.3459 13.3592 17.0465 13.5336L19.8452 14.2277V12.8894C19.8452 12.174 20.5244 11.6473 21.2249 11.8217L25.6643 12.925C26.2826 13.0781 26.7151 13.6297 26.7151 14.2597V21.6841C26.7151 22.3995 26.0361 22.9262 25.3354 22.7518" fill="white"/>
<path d="M40.8997 13.3817C40.357 13.3817 39.8691 13.2563 39.436 13.0054C39.0031 12.7491 38.6632 12.3946 38.4164 11.942C38.1753 11.4894 38.0547 10.9795 38.0547 10.4123C38.0547 9.84519 38.1753 9.33802 38.4164 8.89085C38.6632 8.43822 39.0003 8.08648 39.4278 7.83563C39.8609 7.57933 40.3488 7.45117 40.8915 7.45117C41.478 7.45117 41.9988 7.59841 42.4538 7.89289C42.9143 8.18192 43.2431 8.57456 43.4405 9.07082L42.6018 9.2017C42.4483 8.8963 42.2209 8.65909 41.9193 8.49004C41.6234 8.31553 41.2889 8.22827 40.9161 8.22827C40.5324 8.22827 40.1898 8.32098 39.8883 8.50639C39.5923 8.69181 39.3593 8.95084 39.1894 9.28349C39.0249 9.61073 38.9427 9.98693 38.9427 10.4123C38.9427 10.8432 39.0249 11.2249 39.1894 11.5576C39.3593 11.8847 39.595 12.1411 39.8965 12.3265C40.1981 12.5118 40.5434 12.6046 40.9326 12.6046C41.3163 12.6046 41.6562 12.5174 41.9522 12.3428C42.2537 12.1629 42.484 11.912 42.643 11.5902L43.4816 11.7212C43.2733 12.2283 42.9362 12.6318 42.4702 12.9317C42.0043 13.2318 41.4808 13.3817 40.8997 13.3817Z" fill="white"/>
<path d="M47.8599 13.2991H46.7992L45.2286 11.5486H44.9738V13.2991H44.168V9.07007H44.9738V10.7797H45.2204L46.7251 9.07007H47.6955L45.87 11.1151L47.8599 13.2991Z" fill="white"/>
<path d="M49.8577 8.98877C50.3839 8.98877 50.7978 9.16055 51.0994 9.50409C51.4063 9.84219 51.5598 10.3166 51.5598 10.9275V13.2996H50.9842L50.7951 12.6371C50.6581 12.8497 50.4744 13.027 50.2442 13.1688C50.014 13.3105 49.7371 13.3814 49.4137 13.3814C49.1286 13.3814 48.8738 13.3242 48.649 13.2097C48.4243 13.0952 48.2488 12.937 48.1227 12.7352C47.9966 12.528 47.9336 12.2962 47.9336 12.0399C47.9336 11.6418 48.0926 11.3228 48.4105 11.0829C48.7284 10.8429 49.1889 10.7229 49.7919 10.7229H50.754C50.732 10.3902 50.6389 10.1339 50.4744 9.95401C50.3099 9.76857 50.0906 9.67585 49.8166 9.67585C49.6083 9.67585 49.4247 9.72496 49.2657 9.8231C49.1067 9.92133 48.9861 10.0495 48.9038 10.2076L48.1556 10.0849C48.2653 9.74681 48.4763 9.47957 48.7888 9.28325C49.1012 9.08693 49.4575 8.98877 49.8577 8.98877ZM49.5863 12.7025C49.9317 12.7025 50.2113 12.5907 50.4251 12.3671C50.6443 12.1381 50.754 11.8246 50.754 11.4264V11.3773H49.8166C49.104 11.3773 48.7476 11.59 48.7476 12.0154C48.7476 12.2226 48.8244 12.389 48.9778 12.5144C49.1314 12.6398 49.3342 12.7025 49.5863 12.7025Z" fill="white"/>
<path d="M54.8011 11.761C54.6696 11.8211 54.5133 11.8674 54.3324 11.9001C54.1515 11.9329 53.9733 11.9492 53.798 11.9492C53.2881 11.9492 52.8962 11.8074 52.622 11.5238C52.348 11.2402 52.2109 10.8394 52.2109 10.3214V9.06982H53.0167V10.3214C53.0167 10.9267 53.3101 11.2294 53.8966 11.2294C54.2529 11.2294 54.5544 11.1666 54.8011 11.0412V9.06982H55.6069V13.2989H54.8011V11.761Z" fill="white"/>
<path d="M58.3108 8.98877C58.837 8.98877 59.2509 9.16055 59.5524 9.50409C59.8594 9.84219 60.0129 10.3166 60.0129 10.9275V13.2996H59.4373L59.2481 12.6371C59.1111 12.8497 58.9275 13.027 58.6972 13.1688C58.467 13.3105 58.1902 13.3814 57.8668 13.3814C57.5817 13.3814 57.3268 13.3242 57.1021 13.2097C56.8773 13.0952 56.7019 12.937 56.5758 12.7352C56.4497 12.528 56.3867 12.2962 56.3867 12.0399C56.3867 11.6418 56.5456 11.3228 56.8636 11.0829C57.1815 10.8429 57.642 10.7229 58.245 10.7229H59.2071C59.1851 10.3902 59.0919 10.1339 58.9275 9.95401C58.763 9.76857 58.5438 9.67585 58.2697 9.67585C58.0613 9.67585 57.8777 9.72496 57.7188 9.8231C57.5598 9.92133 57.4392 10.0495 57.357 10.2076L56.6086 10.0849C56.7184 9.74681 56.9294 9.47957 57.2419 9.28325C57.5543 9.08693 57.9106 8.98877 58.3108 8.98877ZM58.0395 12.7025C58.3848 12.7025 58.6644 12.5907 58.8782 12.3671C59.0975 12.1381 59.2071 11.8246 59.2071 11.4264V11.3773H58.2697C57.557 11.3773 57.2007 11.59 57.2007 12.0154C57.2007 12.2226 57.2775 12.389 57.431 12.5144C57.5844 12.6398 57.7873 12.7025 58.0395 12.7025Z" fill="white"/>
<path d="M62.1845 13.2995H60.9922V9.07047H61.7733V12.3998H61.8967L63.6153 9.07047H64.8075V13.2995H64.0264V9.97841H63.903L62.1845 13.2995ZM62.9081 8.5224C62.5517 8.5224 62.253 8.42969 62.0118 8.24428C61.7761 8.05342 61.6363 7.76984 61.5925 7.39355H62.2502C62.2777 7.56806 62.3462 7.70167 62.4558 7.79438C62.5709 7.88164 62.7217 7.92526 62.9081 7.92526C63.0944 7.92526 63.2424 7.88164 63.3521 7.79438C63.4672 7.70167 63.5357 7.56806 63.5577 7.39355H64.2238C64.1744 7.76984 64.0291 8.05342 63.7879 8.24428C63.5522 8.42969 63.2589 8.5224 62.9081 8.5224Z" fill="white"/>
<path d="M67.6878 13.2989H66.882V9.80601H65.4102V9.06982H69.1597V9.80601H67.6878V13.2989Z" fill="white"/>
<path d="M73.7291 11.1565C73.7291 11.2656 73.7265 11.35 73.7209 11.4101H70.2098C70.2537 11.7864 70.4017 12.0863 70.6539 12.3098C70.9061 12.5334 71.2268 12.6453 71.6159 12.6453C71.8845 12.6453 72.123 12.5934 72.3313 12.4898C72.5451 12.3808 72.7068 12.2389 72.8165 12.0644L73.5729 12.1872C73.4085 12.5689 73.1426 12.8634 72.7753 13.0706C72.4136 13.2779 72.0106 13.3814 71.5666 13.3814C71.1445 13.3814 70.7663 13.2887 70.4319 13.1034C70.0974 12.9125 69.8371 12.6507 69.6507 12.3181C69.4643 11.9854 69.3711 11.6091 69.3711 11.1892C69.3711 10.7639 69.4643 10.3848 69.6507 10.0521C69.8371 9.71955 70.0948 9.46048 70.4236 9.27507C70.7525 9.08421 71.128 8.98877 71.5501 8.98877C71.9668 8.98877 72.3396 9.08421 72.6685 9.27507C73.0028 9.46048 73.2632 9.71955 73.4496 10.0521C73.636 10.3794 73.7291 10.7474 73.7291 11.1565ZM71.5501 9.70045C71.2268 9.70045 70.9472 9.79583 70.7115 9.98669C70.4812 10.1776 70.3277 10.4339 70.251 10.7556H72.8493C72.7781 10.4394 72.6246 10.1858 72.3888 9.99495C72.1586 9.79859 71.8791 9.70045 71.5501 9.70045Z" fill="white"/>
<path d="M77.3524 13.2991H76.1602V9.07007H76.9413V12.3994H77.0646L78.7831 9.07007H79.9754V13.2991H79.1942V9.97801H79.071L77.3524 13.2991Z" fill="white"/>
<path d="M83.3182 11.1401C83.5429 11.2055 83.7293 11.3255 83.8773 11.5C84.0253 11.6691 84.0993 11.8791 84.0993 12.1299C84.0993 12.3643 84.0308 12.5771 83.8937 12.7679C83.7567 12.9533 83.5594 13.1034 83.3018 13.2178C83.0496 13.3269 82.7563 13.3814 82.4219 13.3814C81.9724 13.3814 81.5859 13.2779 81.2624 13.0706C80.9391 12.858 80.7253 12.5744 80.6211 12.2199L81.3694 12.0972C81.5503 12.4898 81.8984 12.6861 82.4136 12.6861C82.6987 12.6861 82.9153 12.6343 83.0633 12.5307C83.2168 12.4216 83.2934 12.2717 83.2934 12.0808C83.2934 11.9118 83.2222 11.7754 83.0797 11.6718C82.9427 11.5682 82.7207 11.5164 82.4136 11.5164H81.8545V10.8129H82.4136C82.6768 10.8129 82.8769 10.7639 83.0139 10.6657C83.1564 10.5675 83.2277 10.4366 83.2277 10.273C83.2277 10.0985 83.151 9.95676 82.9975 9.8477C82.8495 9.73864 82.6658 9.68411 82.4466 9.68411C82.2328 9.68411 82.0409 9.73589 81.8709 9.83953C81.7011 9.94308 81.5722 10.0849 81.4845 10.2648L80.7363 10.1339C80.8623 9.76857 81.0788 9.48775 81.3858 9.29143C81.6983 9.08966 82.0601 8.98877 82.4712 8.98877C82.7673 8.98877 83.0331 9.04057 83.2688 9.14419C83.51 9.24781 83.6964 9.39232 83.8279 9.57771C83.965 9.76315 84.0335 9.97035 84.0335 10.1994C84.0335 10.4339 83.9677 10.633 83.8361 10.7966C83.7046 10.9602 83.532 11.0747 83.3182 11.1401Z" fill="white"/>
</g>
</g>
<defs>
<clipPath id="clip0_959_100">
<rect width="106" height="38" fill="white"/>
</clipPath>
</defs>
</svg>
