<svg width="154" height="45" viewBox="0 0 154 45" fill="none" xmlns="http://www.w3.org/2000/svg">
  <path d="M59.4965 12.5554C60.3693 11.3535 61.4511 10.4187 62.743 9.74767C64.0338 9.07772 65.4285 8.74219 66.9249 8.74219C68.7588 8.74219 70.2441 9.22809 71.3818 10.201C72.5194 11.174 73.1609 12.4993 73.3084 14.1792H69.1701C68.979 13.5463 68.6303 13.0637 68.1241 12.7316C67.6178 12.4005 66.9976 12.2344 66.2644 12.2344C65.1055 12.2344 64.0997 12.6362 63.2493 13.4385C62.3977 14.242 61.8545 15.3137 61.6199 16.6547C61.5461 17.0677 61.5103 17.4279 61.5103 17.7376C61.5103 18.7689 61.7964 19.587 62.3686 20.1907C62.9408 20.7956 63.7253 21.0975 64.7233 21.0975C65.443 21.0975 66.1136 20.928 66.7372 20.5891C67.3608 20.2502 67.886 19.7643 68.3118 19.1303H72.449C71.7159 20.8102 70.6073 22.1321 69.1254 23.0972C67.6435 24.0634 65.9851 24.5448 64.1511 24.5448C62.8302 24.5448 61.678 24.2878 60.6956 23.7716C59.7122 23.2565 58.9567 22.5271 58.4281 21.5834C57.9006 20.6407 57.6357 19.5432 57.6357 18.2897C57.6357 17.7309 57.6872 17.1855 57.79 16.6547C58.0537 15.1218 58.6226 13.7561 59.4965 12.5554Z" fill="#161616" />
  <path d="M83.4329 17.5381C83.4329 16.8166 83.2239 16.2487 82.8059 15.8358C82.388 15.4239 81.856 15.2174 81.21 15.2174C80.4624 15.2174 79.7796 15.4868 79.1627 16.0243C78.5469 16.5618 78.158 17.3025 77.9971 18.2451C77.9523 18.5111 77.93 18.7535 77.93 18.9745C77.93 19.6972 78.1401 20.2673 78.5581 20.687C78.976 21.1078 79.5002 21.3177 80.1316 21.3177C80.8804 21.3177 81.5621 21.045 82.179 20.4996C82.7948 19.9542 83.1915 19.2102 83.3669 18.2675C83.4116 18.0016 83.4329 17.7592 83.4329 17.5381ZM75.4658 14.9077C76.1106 13.9505 76.8884 13.2132 77.7981 12.6981C78.7078 12.1819 79.6689 11.9238 80.6814 11.9238C81.5476 11.9238 82.274 12.1011 82.8607 12.4546C83.4474 12.8081 83.8732 13.2727 84.1381 13.8473L84.4454 12.1011H88.2093L86.0301 24.434H82.2673L82.5969 22.6878C82.1276 23.2624 81.533 23.727 80.8144 24.0805C80.0947 24.434 79.3024 24.6101 78.4374 24.6101C77.5713 24.6101 76.8046 24.4115 76.1363 24.0143C75.4691 23.6159 74.9517 23.0526 74.5851 22.3231C74.2175 21.5937 74.0342 20.7352 74.0342 19.7477C74.0342 19.2764 74.0789 18.7759 74.1661 18.2451C74.3873 16.9782 74.8198 15.8661 75.4658 14.9077Z" fill="#161616" />
  <path d="M91.2578 24.1467C90.4878 23.837 89.8821 23.406 89.4417 22.8539C89.0014 22.3007 88.7812 21.6644 88.7812 20.9417C88.7812 20.8385 88.7958 20.6544 88.826 20.3896H92.4569C92.4279 20.8463 92.5631 21.211 92.8648 21.4837C93.1655 21.7564 93.5946 21.8922 94.1523 21.8922C94.6216 21.8922 95.0105 21.8036 95.319 21.6274C95.6263 21.4501 95.7805 21.1998 95.7805 20.8755C95.7805 20.5658 95.6163 20.3189 95.2855 20.1349C94.9558 19.9508 94.4082 19.7264 93.646 19.4604C92.8537 19.1956 92.1898 18.9341 91.6534 18.676C91.1181 18.419 90.6599 18.0465 90.2777 17.5606C89.8966 17.0735 89.7055 16.4619 89.7055 15.7258C89.7055 15.0042 89.9178 14.3511 90.3447 13.7698C90.7694 13.1874 91.3673 12.734 92.1384 12.4097C92.9084 12.0865 93.8002 11.9238 94.8127 11.9238C95.8253 11.9238 96.7059 12.0899 97.4535 12.421C98.2023 12.7531 98.7812 13.2132 99.1925 13.8024C99.6037 14.3926 99.8094 15.0558 99.8094 15.792L99.787 16.123H96.3751C96.4041 15.6809 96.2723 15.3274 95.9795 15.0626C95.6856 14.7977 95.2676 14.6642 94.7244 14.6642C94.2987 14.6642 93.95 14.7529 93.6784 14.9302C93.4068 15.1063 93.2716 15.3499 93.2716 15.6596C93.2716 15.9839 93.4515 16.2532 93.8114 16.4664C94.1701 16.6797 94.7312 16.9187 95.4944 17.1846C96.2868 17.4495 96.9439 17.7109 97.4647 17.969C97.9855 18.2271 98.4336 18.5874 98.808 19.052C99.1813 19.5165 99.369 20.0945 99.369 20.7869C99.369 21.5825 99.1299 22.2681 98.6538 22.8427C98.1766 23.4173 97.5228 23.856 96.6947 24.1579C95.8655 24.4598 94.9223 24.6101 93.8662 24.6101C92.8972 24.6101 92.0278 24.4564 91.2578 24.1467Z" fill="#161616" />
  <path d="M113.621 13.0068C114.318 13.7003 114.666 14.6642 114.666 15.902C114.666 16.315 114.623 16.7571 114.534 17.2284L113.258 24.434H109.515L110.704 17.7368C110.748 17.4865 110.77 17.2655 110.77 17.0736C110.77 16.4552 110.598 15.9761 110.253 15.6372C109.908 15.2983 109.427 15.1288 108.811 15.1288C108.077 15.1288 107.461 15.3577 106.963 15.8145C106.463 16.2712 106.14 16.912 105.994 17.7368V17.693L104.806 24.434H101.042L103.925 8.07812H107.689L106.698 13.7362C107.183 13.1919 107.776 12.7599 108.482 12.4434C109.186 12.127 109.948 11.9687 110.77 11.9687C111.973 11.9687 112.924 12.3144 113.621 13.0068Z" fill="#161616" />
  <path d="M124.615 20.8092L121.777 17.4718C121.145 17.7658 120.654 18.1316 120.302 18.5659C119.95 19.0002 119.773 19.476 119.773 19.9911C119.773 20.477 119.961 20.872 120.335 21.1739C120.708 21.4758 121.226 21.6273 121.886 21.6273C122.87 21.6273 123.779 21.3546 124.615 20.8092ZM129.017 20.7867L132.1 24.4338H127.719L126.531 23.0412C124.932 24.132 123.133 24.6774 121.139 24.6774C119.524 24.6774 118.251 24.3194 117.319 23.6046C116.387 22.8897 115.922 21.9213 115.922 20.6981C115.922 19.5344 116.3 18.4964 117.055 17.5818C117.811 16.6683 118.82 15.9389 120.081 15.3935C119.627 14.6865 119.4 13.9941 119.4 13.3163C119.4 12.4175 119.633 11.6185 120.104 10.9182C120.573 10.218 121.226 9.6771 122.063 9.29331C122.899 8.91064 123.845 8.71875 124.901 8.71875C126.222 8.71875 127.238 9.02174 127.95 9.62548C128.662 10.2292 129.017 10.9957 129.017 11.9237C129.017 12.1156 128.996 12.3367 128.952 12.5869H125.43C125.445 12.5286 125.452 12.4399 125.452 12.3221C125.452 12.0415 125.356 11.8238 125.166 11.6701C124.975 11.5152 124.733 11.4378 124.44 11.4378C124.043 11.4378 123.706 11.5669 123.427 11.8238C123.148 12.0819 123.009 12.4096 123.009 12.808C123.009 13.3242 123.302 13.9504 123.889 14.6865L126.994 18.3774L127.389 17.7591L128.445 16.3665H132.232L130.845 18.2888C130.199 19.3055 129.591 20.1381 129.017 20.7867Z" fill="#161616" />
  <path d="M140.156 8.91992L137.426 24.4353H133.662L136.392 8.91992H140.156Z" fill="#161616" />
  <path d="M154 8.91992L153.494 11.9027H149.378L147.176 24.4353H143.413L145.614 11.9027H141.521L142.048 8.91992H154Z" fill="#161616" />
  <path d="M62.8459 29.8398V35.8593H62.0569V31.3705L60.0654 35.8593H59.5111L57.5096 31.3627V35.8593H56.7217V29.8398H57.5699L59.7883 34.8156L62.0055 29.8398H62.8459Z" fill="#161616" />
  <path d="M67.0463 35.0401C67.2944 34.9065 67.4956 34.7068 67.6487 34.4408C67.8018 34.1738 67.8778 33.8483 67.8778 33.4657C67.8778 33.083 67.8029 32.7587 67.6532 32.4916C67.5023 32.2256 67.3067 32.027 67.0642 31.8957C66.8217 31.7655 66.558 31.7004 66.2752 31.7004C65.9869 31.7004 65.722 31.7655 65.4829 31.8957C65.2426 32.027 65.0515 32.2256 64.9073 32.4916C64.762 32.7587 64.6905 33.083 64.6905 33.4657C64.6905 33.855 64.7609 34.1827 64.9029 34.4487C65.0437 34.7158 65.2325 34.9144 65.4695 35.0446C65.7064 35.1747 65.9668 35.241 66.2495 35.241C66.5323 35.241 66.7982 35.1736 67.0463 35.0401ZM65.0414 35.6315C64.6805 35.4295 64.3966 35.14 64.1921 34.7663C63.9876 34.3926 63.8848 33.9594 63.8848 33.4657C63.8848 32.9786 63.9898 32.5488 64.201 32.174C64.4111 31.8003 64.6983 31.513 65.0627 31.3133C65.427 31.1135 65.8338 31.0137 66.2842 31.0137C66.7345 31.0137 67.1413 31.1135 67.5057 31.3133C67.8689 31.513 68.1561 31.7992 68.3673 32.1695C68.5785 32.541 68.6836 32.973 68.6836 33.4657C68.6836 33.9594 68.5752 34.3926 68.3584 34.7663C68.1427 35.14 67.8488 35.4295 67.48 35.6315C67.11 35.8346 66.6999 35.9367 66.2495 35.9367C65.8047 35.9367 65.4024 35.8346 65.0414 35.6315Z" fill="#161616" />
  <path d="M73.4395 31.5322C73.7983 31.8823 73.9771 32.3884 73.9771 33.0494V35.8593H73.197V33.1627C73.197 32.6869 73.0786 32.3233 72.8416 32.0708C72.6058 31.8194 72.2817 31.6926 71.8716 31.6926C71.4559 31.6926 71.1251 31.8228 70.8803 32.0843C70.6344 32.3457 70.5115 32.725 70.5115 33.2233V35.8593H69.7236V31.0923H70.5115V31.7712C70.668 31.5277 70.8803 31.3391 71.1485 31.2056C71.4167 31.0721 71.7129 31.0059 72.037 31.0059C72.6137 31.0059 73.0819 31.1809 73.4395 31.5322Z" fill="#161616" />
  <path d="M78.5857 32.348C78.4527 32.1314 78.2717 31.9653 78.0437 31.8531C77.8157 31.7397 77.5632 31.6825 77.286 31.6825C76.887 31.6825 76.5484 31.8104 76.2679 32.0652C75.9874 32.321 75.8276 32.6745 75.7874 33.1268H78.7847C78.7847 32.8249 78.7176 32.5657 78.5857 32.348ZM79.5725 33.7709H75.7784C75.8075 34.24 75.9673 34.6069 76.259 34.8706C76.5507 35.1343 76.9049 35.2668 77.3207 35.2668C77.6615 35.2668 77.9454 35.1871 78.1734 35.0277C78.4013 34.8684 78.5623 34.6552 78.655 34.3881H79.5033C79.3759 34.8459 79.1222 35.2185 78.7411 35.5058C78.36 35.7931 77.8861 35.9367 77.3207 35.9367C76.8703 35.9367 76.4668 35.8346 76.1126 35.6315C75.7572 35.4295 75.4778 35.14 75.2766 34.7663C75.0744 34.3926 74.9727 33.9594 74.9727 33.4657C74.9727 32.973 75.071 32.541 75.2677 32.1695C75.4633 31.7992 75.7393 31.513 76.0947 31.3133C76.4501 31.1135 76.858 31.0137 77.3207 31.0137C77.771 31.0137 78.17 31.1113 78.5165 31.3088C78.8629 31.5063 79.13 31.7768 79.3177 32.1224C79.5044 32.4669 79.5982 32.8574 79.5982 33.2917C79.5982 33.4432 79.5904 33.6026 79.5725 33.7709Z" fill="#161616" />
  <path d="M84.7275 31.0918L81.8687 38.1032H81.0552L81.9906 35.8061L80.0762 31.0918H80.9512L82.4409 34.9544L83.9139 31.0918H84.7275Z" fill="#161616" />
  <path d="M91.3363 32.527C91.1921 32.261 90.9976 32.0568 90.7518 31.9143C90.5059 31.7717 90.2366 31.701 89.9415 31.701C89.6476 31.701 89.3783 31.7706 89.1358 31.9098C88.8933 32.0489 88.6999 32.252 88.5558 32.5191C88.4116 32.7851 88.339 33.0982 88.339 33.4584C88.339 33.8231 88.4116 34.1407 88.5558 34.41C88.6999 34.6804 88.8933 34.8858 89.1358 35.0283C89.3783 35.1697 89.6476 35.2415 89.9415 35.2415C90.2366 35.2415 90.5059 35.1697 90.7518 35.0283C90.9976 34.8858 91.1921 34.6804 91.3363 34.41C91.4804 34.1407 91.5531 33.8265 91.5531 33.4662C91.5531 33.1071 91.4804 32.794 91.3363 32.527ZM87.8282 32.1746C88.0249 31.8065 88.2943 31.5215 88.6385 31.3184C88.9816 31.1153 89.3671 31.0143 89.794 31.0143C90.1639 31.0143 90.5082 31.0995 90.8255 31.2701C91.1429 31.4418 91.3854 31.6662 91.5531 31.9446V29.4219H92.3499V35.8587H91.5531V34.9621C91.3966 35.2471 91.1664 35.4806 90.8602 35.6635C90.554 35.8453 90.1964 35.9373 89.7862 35.9373C89.3638 35.9373 88.9816 35.8329 88.6385 35.6242C88.2943 35.4155 88.0249 35.1226 87.8282 34.7455C87.6316 34.3685 87.5332 33.9398 87.5332 33.4584C87.5332 32.9714 87.6316 32.5427 87.8282 32.1746Z" fill="#161616" />
  <path d="M97.0016 32.348C96.8697 32.1314 96.6887 31.9653 96.4607 31.8531C96.2327 31.7397 95.9802 31.6825 95.703 31.6825C95.304 31.6825 94.9654 31.8104 94.6849 32.0652C94.4044 32.321 94.2446 32.6745 94.2043 33.1268H97.2017C97.2017 32.8249 97.1346 32.5657 97.0016 32.348ZM97.9895 33.7709H94.1954C94.2245 34.24 94.3843 34.6069 94.676 34.8706C94.9676 35.1343 95.3219 35.2668 95.7376 35.2668C96.0785 35.2668 96.3624 35.1871 96.5903 35.0277C96.8183 34.8684 96.9793 34.6552 97.0709 34.3881H97.9202C97.7928 34.8459 97.5392 35.2185 97.1581 35.5058C96.777 35.7931 96.3031 35.9367 95.7376 35.9367C95.2873 35.9367 94.8838 35.8346 94.5284 35.6315C94.1742 35.4295 93.8948 35.14 93.6925 34.7663C93.4902 34.3926 93.3896 33.9594 93.3896 33.4657C93.3896 32.973 93.488 32.541 93.6847 32.1695C93.8803 31.7992 94.1563 31.513 94.5117 31.3133C94.8671 31.1135 95.275 31.0137 95.7376 31.0137C96.188 31.0137 96.5859 31.1113 96.9323 31.3088C97.2788 31.5063 97.5459 31.7768 97.7336 32.1224C97.9214 32.4669 98.0152 32.8574 98.0152 33.2917C98.0152 33.4432 98.0074 33.6026 97.9895 33.7709Z" fill="#161616" />
  <path d="M99.8427 35.8587H99.0537V29.4219H99.8427V35.8587Z" fill="#161616" />
  <path d="M101.973 35.8581H101.185V31.091H101.973V35.8581ZM101.211 30.1607C101.107 30.0564 101.056 29.9284 101.056 29.7781C101.056 29.6277 101.107 29.4998 101.211 29.3954C101.315 29.291 101.442 29.2383 101.592 29.2383C101.736 29.2383 101.859 29.291 101.961 29.3954C102.061 29.4998 102.112 29.6277 102.112 29.7781C102.112 29.9284 102.061 30.0564 101.961 30.1607C101.859 30.2651 101.736 30.3167 101.592 30.3167C101.442 30.3167 101.315 30.2651 101.211 30.1607Z" fill="#161616" />
  <path d="M105.083 35.1283L106.556 31.0918H107.396L105.533 35.8588H104.616L102.753 31.0918H103.601L105.083 35.1283Z" fill="#161616" />
  <path d="M111.493 32.348C111.36 32.1314 111.179 31.9653 110.951 31.8531C110.723 31.7397 110.47 31.6825 110.193 31.6825C109.795 31.6825 109.456 31.8104 109.175 32.0652C108.896 32.321 108.735 32.6745 108.694 33.1268H111.692C111.692 32.8249 111.626 32.5657 111.493 32.348ZM112.48 33.7709H108.686C108.715 34.24 108.875 34.6069 109.167 34.8706C109.458 35.1343 109.812 35.2668 110.228 35.2668C110.569 35.2668 110.852 35.1871 111.082 35.0277C111.31 34.8684 111.469 34.6552 111.562 34.3881H112.41C112.284 34.8459 112.029 35.2185 111.648 35.5058C111.267 35.7931 110.793 35.9367 110.228 35.9367C109.777 35.9367 109.375 35.8346 109.02 35.6315C108.664 35.4295 108.386 35.14 108.184 34.7663C107.981 34.3926 107.881 33.9594 107.881 33.4657C107.881 32.973 107.978 32.541 108.175 32.1695C108.371 31.7992 108.646 31.513 109.002 31.3133C109.357 31.1135 109.766 31.0137 110.228 31.0137C110.678 31.0137 111.077 31.1113 111.424 31.3088C111.77 31.5063 112.037 31.7768 112.225 32.1224C112.413 32.4669 112.506 32.8574 112.506 33.2917C112.506 33.4432 112.498 33.6026 112.48 33.7709Z" fill="#161616" />
  <path d="M114.928 31.2314C115.185 31.081 115.498 31.0059 115.868 31.0059V31.8228H115.66C114.776 31.8228 114.335 32.3042 114.335 33.2671V35.8593H113.547V31.0923H114.335V31.8666C114.473 31.5939 114.671 31.3829 114.928 31.2314Z" fill="#161616" />
  <path d="M120.865 31.0918L118.008 38.1032H117.193L118.128 35.8061L116.214 31.0918H117.089L118.579 34.9544L120.052 31.0918H120.865Z" fill="#161616" />
  <path d="M124.668 35.7493C124.38 35.6247 124.152 35.4508 123.984 35.2275C123.817 35.0042 123.724 34.7472 123.707 34.4577H124.521C124.544 34.6956 124.655 34.8897 124.855 35.0401C125.054 35.1916 125.315 35.2668 125.638 35.2668C125.939 35.2668 126.176 35.2005 126.349 35.067C126.522 34.9335 126.608 34.7651 126.608 34.562C126.608 34.3533 126.517 34.1984 126.331 34.0963C126.147 33.9953 125.861 33.8954 125.474 33.7967C125.122 33.7036 124.835 33.6093 124.612 33.5139C124.39 33.4185 124.199 33.276 124.04 33.0875C123.881 32.8989 123.802 32.6509 123.802 32.3446C123.802 32.1 123.875 31.8778 124.019 31.6746C124.163 31.4715 124.368 31.3099 124.633 31.191C124.899 31.072 125.202 31.0137 125.543 31.0137C126.068 31.0137 126.493 31.1472 126.816 31.4132C127.14 31.6803 127.313 32.045 127.336 32.5095H126.548C126.531 32.2604 126.432 32.0596 126.249 31.9092C126.067 31.7588 125.824 31.6825 125.517 31.6825C125.234 31.6825 125.009 31.7442 124.841 31.8654C124.674 31.9877 124.59 32.1471 124.59 32.3446C124.59 32.5006 124.641 32.6296 124.742 32.7306C124.842 32.8327 124.97 32.9135 125.123 32.9741C125.276 33.0359 125.488 33.1043 125.76 33.1784C126.101 33.2715 126.378 33.3635 126.591 33.4533C126.805 33.5431 126.988 33.6777 127.141 33.8573C127.294 34.0368 127.374 34.2725 127.379 34.562C127.379 34.8235 127.308 35.058 127.163 35.2668C127.018 35.4755 126.815 35.6393 126.552 35.7583C126.29 35.8772 125.988 35.9367 125.647 35.9367C125.283 35.9367 124.956 35.8739 124.668 35.7493Z" fill="#161616" />
  <path d="M131.806 32.348C131.673 32.1314 131.492 31.9653 131.264 31.8531C131.036 31.7397 130.784 31.6825 130.507 31.6825C130.109 31.6825 129.769 31.8104 129.488 32.0652C129.209 32.321 129.048 32.6745 129.008 33.1268H132.005C132.005 32.8249 131.939 32.5657 131.806 32.348ZM132.794 33.7709H129C129.028 34.24 129.189 34.6069 129.481 34.8706C129.772 35.1343 130.125 35.2668 130.541 35.2668C130.882 35.2668 131.167 35.1871 131.395 35.0277C131.623 34.8684 131.783 34.6552 131.876 34.3881H132.725C132.598 34.8459 132.344 35.2185 131.962 35.5058C131.581 35.7931 131.108 35.9367 130.541 35.9367C130.091 35.9367 129.689 35.8346 129.333 35.6315C128.978 35.4295 128.699 35.14 128.497 34.7663C128.295 34.3926 128.194 33.9594 128.194 33.4657C128.194 32.973 128.292 32.541 128.488 32.1695C128.685 31.7992 128.961 31.513 129.315 31.3133C129.671 31.1135 130.08 31.0137 130.541 31.0137C130.992 31.0137 131.391 31.1113 131.737 31.3088C132.083 31.5063 132.351 31.7768 132.538 32.1224C132.726 32.4669 132.82 32.8574 132.82 33.2917C132.82 33.4432 132.811 33.6026 132.794 33.7709Z" fill="#161616" />
  <path d="M135.241 31.2314C135.498 31.081 135.811 31.0059 136.181 31.0059V31.8228H135.973C135.09 31.8228 134.647 32.3042 134.647 33.2671V35.8593H133.859V31.0923H134.647V31.8666C134.786 31.5939 134.984 31.3829 135.241 31.2314Z" fill="#161616" />
  <path d="M138.857 35.1283L140.33 31.0918H141.171L139.308 35.8588H138.39L136.527 31.0918H137.377L138.857 35.1283Z" fill="#161616" />
  <path d="M142.738 35.8581H141.949V31.091H142.738V35.8581ZM141.976 30.1607C141.872 30.0564 141.819 29.9284 141.819 29.7781C141.819 29.6277 141.872 29.4998 141.976 29.3954C142.08 29.291 142.206 29.2383 142.357 29.2383C142.501 29.2383 142.624 29.291 142.725 29.3954C142.825 29.4998 142.877 29.6277 142.877 29.7781C142.877 29.9284 142.825 30.0564 142.725 30.1607C142.624 30.2651 142.501 30.3167 142.357 30.3167C142.206 30.3167 142.08 30.2651 141.976 30.1607Z" fill="#161616" />
  <path d="M144.081 32.174C144.278 31.8059 144.55 31.5209 144.9 31.3178C145.249 31.1147 145.649 31.0137 146.099 31.0137C146.683 31.0137 147.163 31.1551 147.542 31.439C147.92 31.724 148.17 32.1179 148.291 32.6229H147.443C147.361 32.3322 147.203 32.1033 146.97 31.935C146.736 31.7667 146.446 31.6825 146.099 31.6825C145.649 31.6825 145.285 31.8385 145.007 32.1482C144.73 32.459 144.592 32.8978 144.592 33.4657C144.592 34.0402 144.73 34.4835 145.007 34.7966C145.285 35.1097 145.649 35.2668 146.099 35.2668C146.446 35.2668 146.734 35.186 146.965 35.0232C147.197 34.8605 147.355 34.6294 147.443 34.3275H148.291C148.163 34.8145 147.91 35.2039 147.529 35.4968C147.148 35.7897 146.672 35.9367 146.099 35.9367C145.649 35.9367 145.249 35.8346 144.9 35.6315C144.55 35.4295 144.278 35.1422 144.081 34.7708C143.884 34.3993 143.787 33.965 143.787 33.4657C143.787 32.973 143.884 32.5432 144.081 32.174Z" fill="#161616" />
  <path d="M152.657 32.348C152.524 32.1314 152.343 31.9653 152.115 31.8531C151.887 31.7397 151.634 31.6825 151.357 31.6825C150.959 31.6825 150.62 31.8104 150.339 32.0652C150.06 32.321 149.899 32.6745 149.858 33.1268H152.856C152.856 32.8249 152.79 32.5657 152.657 32.348ZM153.644 33.7709H149.85C149.879 34.24 150.038 34.6069 150.33 34.8706C150.622 35.1343 150.976 35.2668 151.392 35.2668C151.733 35.2668 152.017 35.1871 152.246 35.0277C152.474 34.8684 152.633 34.6552 152.726 34.3881H153.574C153.448 34.8459 153.193 35.2185 152.812 35.5058C152.431 35.7931 151.957 35.9367 151.392 35.9367C150.941 35.9367 150.539 35.8346 150.184 35.6315C149.828 35.4295 149.549 35.14 149.348 34.7663C149.145 34.3926 149.045 33.9594 149.045 33.4657C149.045 32.973 149.142 32.541 149.339 32.1695C149.536 31.7992 149.81 31.513 150.166 31.3133C150.521 31.1135 150.93 31.0137 151.392 31.0137C151.842 31.0137 152.241 31.1113 152.588 31.3088C152.934 31.5063 153.201 31.7768 153.389 32.1224C153.577 32.4669 153.671 32.8574 153.671 33.2917C153.671 33.4432 153.662 33.6026 153.644 33.7709Z" fill="#161616" />
  <path d="M24.2522 21.7343C20.21 23.3491 15.9566 23.0315 15.9566 23.0315L18.0308 19.6785L10.2849 19.6695C10.2849 19.6695 9.93737 19.6425 9.79767 19.3429C9.65686 19.0433 9.88596 18.6101 9.88596 18.6101C9.88596 18.6101 11.3522 14.8957 13.8131 12.6726C16.2739 10.4496 18.0486 10.4664 19.6657 10.4664C21.2817 10.4664 24.0231 10.4496 24.0231 10.4496L26.2728 6.9899L27.6183 7.61271C27.6183 7.61271 31.3432 9.13439 31.3476 13.2764C31.3521 17.4195 28.2933 20.1195 24.2522 21.7343ZM31.7555 9.00198C30.5061 6.98765 28.3291 6.00237 27.1948 5.42893C27.0227 5.33243 26.8506 5.23704 26.6818 5.1439C27.8374 3.78269 28.8096 3.04765 29.1952 2.77721C26.6673 1.56637 24.4847 0.890813 23.1693 0.606899C22.8407 0.536202 22.5066 0.498047 22.1736 0.446427C18.7013 -0.0843673 7.45861 0.18608 7.45861 0.18608C7.13228 0.18608 6.83613 0.320742 6.62156 0.536202C6.40587 0.751661 6.27288 1.05016 6.27288 1.37784C6.27288 2.0332 6.80596 2.5696 7.45861 2.5696H13.3649C14.0176 2.5696 14.5518 3.10489 14.5518 3.76024C14.5518 4.08792 14.4188 4.3853 14.2031 4.60188C13.9885 4.81734 13.6913 4.95088 13.3649 4.95088H8.69128C8.36384 4.95088 8.06768 5.08555 7.85199 5.301C7.63742 5.51759 7.50443 5.81384 7.50443 6.14264C7.50443 6.79688 8.03751 7.33328 8.69128 7.33328H11.6785C12.3301 7.33328 12.8643 7.86969 12.8643 8.52392C12.8643 8.8516 12.7313 9.1501 12.5156 9.36556C12.301 9.58102 12.0049 9.71569 11.6785 9.71569H1.18573C0.859406 9.71569 0.563251 9.84923 0.34868 10.0647C0.13299 10.2813 0 10.5786 0 10.9063C0 11.5617 0.534195 12.0981 1.18573 12.0981H8.56612C9.21877 12.0981 9.75185 12.6334 9.75185 13.2887C9.75185 13.6164 9.61886 13.9149 9.40429 14.1304C9.1886 14.3458 8.89133 14.4805 8.56612 14.4805H5.56658C5.24025 14.4805 4.9441 14.614 4.72952 14.8306C4.51384 15.0461 4.38085 15.3446 4.38085 15.6711C4.38085 16.3265 4.91504 16.8618 5.56658 16.8618H5.65151C6.30305 16.8629 6.83613 17.3982 6.83613 18.0535C6.83613 18.3801 6.70314 18.6786 6.48857 18.894C6.27288 19.1106 5.97672 19.2442 5.6504 19.2442H1.18573C0.859406 19.2442 0.563251 19.3777 0.34868 19.5943C0.13299 19.8098 0 20.1083 0 20.4348C0 21.0913 0.534195 21.6266 1.18573 21.6266H3.78742C3.78742 21.6726 5.14749 22.7465 8.29455 23.6196C12.5391 24.7967 14.164 24.6778 14.164 24.6778C14.164 24.6778 19.3137 25.3253 24.2343 23.596C29.155 21.8667 31.4527 19.132 32.4764 16.5375C33.6465 13.5771 32.9558 10.9355 31.7555 9.00198Z" fill="#ED0000" />
  <path d="M2.50665 16.8637C2.83186 16.8637 3.12913 16.7302 3.3437 16.5147C3.55939 16.2981 3.69238 15.9996 3.69238 15.6731C3.69238 15.0177 3.15819 14.4824 2.50665 14.4824H1.95234C1.62712 14.4824 1.32985 14.616 1.11416 14.8325C0.899592 15.048 0.766602 15.3454 0.766602 15.6731C0.766602 16.3284 1.29968 16.8637 1.95234 16.8637H2.50665Z" fill="#ED0000" />
  <path d="M4.42025 7.33357H5.62387C5.95019 7.33357 6.24635 7.20003 6.46204 6.98345C6.67661 6.76799 6.81072 6.47061 6.81072 6.14293C6.81072 5.48758 6.27652 4.95117 5.62387 4.95117H4.42025C4.09392 4.95117 3.79777 5.08583 3.58208 5.30129C3.36751 5.51788 3.2334 5.81413 3.2334 6.14293C3.2334 6.79717 3.76759 7.33357 4.42025 7.33357Z" fill="#ED0000" />
  <path d="M29.9825 14.8289C28.8571 19.2761 23.2157 21.4195 18.6817 21.737L19.9938 19.6655C19.9938 19.6655 22.1462 19.67 22.1473 19.6688C22.458 19.6531 22.7027 19.395 22.7027 19.0797C22.7027 18.7666 22.4591 18.5085 22.1495 18.4917C22.1484 18.4906 11.1885 18.495 11.1885 18.495C11.1885 18.495 14.0249 11.9875 18.3476 11.6351H27.0109C27.3462 11.6351 27.6178 11.3624 27.6178 11.0258C27.6178 10.6891 27.3462 10.4175 27.0109 10.4175H25.9749L27.1439 8.65234C27.1439 8.65234 31.1068 10.3816 29.9825 14.8289Z" fill="#161616" />
  <path d="M43.3195 7.02717C42.4019 7.02717 41.6588 6.28091 41.6588 5.36072C41.6588 4.43828 42.4019 3.69203 43.3195 3.69203C44.2359 3.69203 44.9802 4.43828 44.9802 5.36072C44.9802 6.28091 44.2359 7.02717 43.3195 7.02717ZM54.399 6.25062C53.6614 5.43927 52.9495 5.31583 51.5525 4.9803C50.1545 4.64477 50.0505 4.47756 50.0505 4.47756C50.0505 4.47756 47.4399 0.162754 41.1402 0.00452536C34.0225 -0.175024 29.693 5.04651 29.4427 5.31135C29.4427 5.31135 31.8343 6.4369 33.258 9.34785C35.4719 13.8748 33.1262 17.6857 33.4167 17.2626C33.7062 16.8384 34.7668 15.1417 35.9469 13.3451C36.984 11.765 38.267 11.0682 39.3208 10.8303C40.3758 10.5924 42.1941 10.8437 42.8009 11.2803C41.6934 12.6504 40.8496 15.356 40.8496 15.356C40.8496 15.356 37.146 26.5532 36.6856 27.4274C36.3749 28.0132 35.3669 30.418 32.3226 32.8532C29.2784 35.2883 25.824 35.818 23.4514 35.8438C21.08 35.8707 19.274 35.3018 17.4412 34.4949C17.9955 34.4153 19.7612 34.0965 22.1349 32.5614C24.5064 31.0274 25.9827 28.7897 25.9827 28.7897L31.4476 20.3094C31.3604 20.4362 28.5118 24.4682 20.0607 25.6801C17.5876 26.0348 14.911 25.8743 14.911 25.8743C14.911 25.8743 14.0762 26.377 12.5295 26.4298C10.9839 26.4825 10.3156 25.9798 9.37461 25.504C8.43586 25.027 7.93519 25.9753 8.07488 26.3961C9.79705 31.5615 14.3053 36.2152 20.4463 37.2735C26.5895 38.3328 31.2285 36.2152 34.5756 33.1707C37.9239 30.1263 38.952 26.3411 38.952 26.3411C38.952 26.3411 41.2721 19.406 42.8534 14.8802C44.4348 10.3533 47.9149 8.90683 49.2068 8.52753C50.4976 8.14823 51.8342 8.13925 53.0199 8.2627C54.2068 8.38614 54.1878 8.39511 54.5051 8.18414C54.8214 7.97205 55.1377 7.06308 54.399 6.25062Z" fill="#161616" />
  <path d="M11.784 34.7773C12.0824 35.0332 14.4818 37.0801 17.5919 38.2101C20.7032 39.339 23.2859 39.3211 23.2859 39.3211C23.2859 39.3211 24.1822 40.8562 22.9875 42.5328C21.7929 44.2093 19.9466 44.3687 18.8749 44.1914C17.8032 44.0152 16.5727 43.2566 15.7122 42.3914C14.8506 41.5273 12.7942 39.1976 12.3372 38.6859C11.8812 38.1742 11.2151 37.2574 11.2129 36.198C11.2118 35.3642 11.784 34.7773 11.784 34.7773Z" fill="#161616" />
  <path d="M32.0918 37.0671C32.74 36.708 35.4467 35.367 37.7143 32.217C39.9807 29.067 40.5685 27.0078 40.5685 27.0078C40.5685 27.0078 42.8059 27.6093 43.1043 30.0198C43.3546 32.0498 42.4583 33.1439 41.6939 33.9901C40.9295 34.8373 38.3725 36.3725 37.8718 36.6115C37.3712 36.8494 35.9742 37.7752 35.3674 38.04C34.7617 38.3049 32.9814 38.7414 32.0918 37.0671Z" fill="#161616" />
</svg>