<svg width="42" height="42" viewBox="0 0 42 42" fill="none" xmlns="http://www.w3.org/2000/svg">
<path fill-rule="evenodd" clip-rule="evenodd" d="M21 0C9.41719 0 0 9.41719 0 21C0 32.5828 9.41719 42 21 42C32.5828 42 42 32.5828 42 21C42 9.41719 32.5828 0 21 0Z" fill="#ED0000"/>
<path d="M16.9559 30.6066C14.2734 27.9242 11.6074 25.2172 8.9168 22.5348C8.62148 22.2395 8.62148 21.7473 8.9168 21.452L12.0094 18.3594C12.3047 18.0641 12.7969 18.0641 13.0922 18.3594L17.5137 22.7809L28.8832 11.4031C29.1867 11.1078 29.6707 11.1078 29.9742 11.4031L33.075 14.5039C33.3785 14.8074 33.3785 15.2914 33.075 15.5867L18.0387 30.6066C17.7434 30.9102 17.2594 30.9102 16.9559 30.6066Z" fill="white"/>
</svg>
