<svg width="452" height="904" viewBox="0 0 452 904" fill="none" xmlns="http://www.w3.org/2000/svg">
<path d="M623.926 503.556C595.949 601.994 491.244 656.27 395.419 621.884C311.152 591.712 260.726 492.937 285.185 406.467C313.33 307.861 417.867 253.754 513.86 288.14C598.127 318.311 648.553 416.918 623.926 503.556ZM656.259 35.8089L558.255 1.08611C548.539 -2.28504 537.985 2.43482 533.964 11.874L493.087 106.603C487.224 120.425 473.487 129.022 458.577 128.853C442.326 128.516 426.244 129.696 410.329 131.887C395.419 133.91 380.844 126.493 373.305 113.346L322.041 24.8528C316.848 15.9192 305.791 12.5482 296.745 17.0993L203.6 63.7895C194.553 68.3406 190.532 79.1283 194.386 88.5675L233.084 183.634C238.78 197.625 235.932 213.806 225.211 224.425C213.986 235.887 203.432 248.192 193.716 261.339C184.669 273.644 169.089 279.037 154.347 275.329L55.8403 250.551C45.9561 248.023 35.737 253.754 32.5539 263.53L0.89125 362.979C-2.12425 372.756 2.73402 383.375 12.1156 387.083L106.601 425.346C121.008 431.077 130.39 445.404 130.055 461.08C129.888 473.553 129.888 486.027 130.055 495.971C130.223 509.119 123.354 521.592 112.13 528.503L19.8219 585.138C11.1105 590.532 8.09505 601.825 12.7858 610.927L61.0336 703.466C65.8919 712.568 76.7812 716.445 85.9953 712.399L178.135 671.777C192.543 665.54 209.295 668.911 220.185 680.205C227.053 687.453 234.257 694.363 241.796 701.106C253.188 711.051 257.209 726.895 252.35 741.222L219.682 838.312C216.499 848.088 221.19 858.707 230.739 862.584L326.732 902.532C336.114 906.409 347.003 902.363 351.526 893.261L397.429 800.892C404.13 787.407 418.202 779.485 433.28 780.496C449.362 781.507 465.445 781.339 481.36 779.99C496.438 778.811 510.51 787.07 517.379 800.555L563.784 891.744C568.475 900.846 579.364 904.892 588.745 900.678L684.236 859.381C693.45 855.336 698.141 844.717 694.79 834.94L661.117 737.851C656.259 723.692 660.112 707.68 671.169 697.735C683.231 686.779 694.455 675.148 704.675 662.506C714.391 650.707 730.306 646.325 744.714 650.707L841.879 680.879C851.596 683.913 861.983 678.688 865.668 669.08L902.692 571.485C906.378 561.877 902.022 551.09 892.808 546.876L799.83 503.219C786.093 496.814 777.884 482.824 778.554 467.653C779.224 451.303 778.554 435.29 776.879 419.277C775.204 404.276 782.91 389.78 796.144 382.363L885.604 333.313C894.483 328.425 898.169 317.3 893.813 308.029L850.088 213.132C845.9 203.861 835.178 199.478 825.629 203.186L730.139 239.595C716.066 244.989 700.151 241.449 689.932 230.493C678.875 218.863 666.813 207.906 654.081 197.793C642.187 188.354 637.161 172.509 641.181 157.844L668.489 59.4069C671.336 49.462 665.808 39.1801 656.259 35.8089Z" fill="#F7F7F7"/>
</svg>
